<svg xmlns="http://www.w3.org/2000/svg" xmlns:xlink="http://www.w3.org/1999/xlink" id="Layer_5" x="0px" y="0px" viewBox="0 0 4000 3436.15" style="enable-background:new 0 0 4000 3436.15;" xml:space="preserve"><style type="text/css">	.st0{fill:#FF2C2C;}	.st1{fill:url(#SVGID_1_);}	.st2{fill:url(#SVGID_2_);}	.st3{fill:#FF6969;}	.st4{opacity:0.33;}	.st5{fill:#FFFFFF;}	.st6{fill:#8B2D9B;}	.st7{fill:url(#SVGID_3_);}	.st8{fill:url(#SVGID_4_);}	.st9{fill:#A841B7;}	.st10{opacity:0.5;}	.st11{fill:#F4B516;}	.st12{fill:url(#SVGID_5_);}	.st13{fill:url(#SVGID_6_);}	.st14{fill:#FFC826;}	.st15{fill:#D68A25;}	.st16{opacity:0.35;fill:#FFFFFF;}	.st17{fill:#24536F;}	.st18{fill:#E5E5E5;}	.st19{fill:#DDDDDD;}	.st20{fill:#006EA5;}	.st21{fill:#61AACE;}	.st22{fill:#B5B5B5;}	.st23{fill:#EFEFEF;}	.st24{fill:#187BAD;}	.st25{opacity:0.5;fill:#FFFFFF;}	.st26{fill:#752912;}	.st27{fill:#FFC19F;}	.st28{opacity:0.19;fill:#821C08;}	.st29{fill:#7A4596;}	.st30{fill:url(#SVGID_7_);}	.st31{fill:#8A51AF;}	.st32{fill:#0687BA;}	.st33{fill:#E5D8C0;}	.st34{fill:url(#SVGID_8_);}	.st35{fill:#1AA7D3;}	.st36{fill:#2AA05A;}	.st37{fill:url(#SVGID_9_);}	.st38{fill:#51B77D;}	.st39{fill:#114244;}	.st40{fill:#66365A;}	.st41{fill:#A93CD6;}	.st42{opacity:0.16;}	.st43{fill:#FF6692;}	.st44{fill:#E82A6E;}	.st45{fill:#D3DAE5;}	.st46{fill:#E0956C;}	.st47{fill:#E02222;}	.st48{fill:#FF2E2E;}	.st49{fill:#79B737;}	.st50{fill:#B31E23;}	.st51{opacity:0.19;}	.st52{fill:#F4B18C;}	.st53{fill:#FF9797;}	.st54{fill:#701608;}	.st55{fill:#DD6B5B;}	.st56{fill:#C4735B;}	.st57{fill:#681D0C;}	.st58{fill:#F9FEFF;}	.st59{fill:#773220;}	.st60{fill:#63190D;}	.st61{fill:#FEFFFE;}	.st62{fill:#F9951E;}	.st63{fill:#19383F;}	.st64{fill:#F9E9A7;}	.st65{fill:#F44D19;}	.st66{fill:#B22909;}	.st67{fill:#2A535E;}	.st68{fill:#F95006;}	.st69{fill:#A02E07;}	.st70{opacity:0.35;}	.st71{fill:#CCCCCC;}	.st72{fill:#481651;}	.st73{fill:#F47193;}	.st74{fill:#BF3452;}	.st75{opacity:0.56;fill:#FFA727;}	.st76{fill:#B22248;}	.st77{opacity:0.26;}	.st78{fill:#84220F;}	.st79{fill:#4C0B00;}	.st80{fill:#AF4935;}	.st81{opacity:0.11;}	.st82{fill:#60514A;}	.st83{fill:#FF2C5E;}	.st84{opacity:0.22;}	.st85{opacity:0.19;fill:#601805;}	.st86{fill:#FFF8E9;}	.st87{fill:#F7E3BF;}	.st88{fill:#F9E7D4;}	.st89{fill:#CF79DB;}	.st90{fill:#B71543;}	.st91{fill:#FF8A8A;}	.st92{fill:#994939;}	.st93{fill:#631B0A;}	.st94{fill:#72221A;}	.st95{fill:#FFAA00;}	.st96{fill:#224966;}	.st97{fill:#0F7DA8;}	.st98{fill:#E2F4F7;}	.st99{opacity:0.22;fill:#470A04;}	.st100{opacity:0.16;fill:#6D0F03;}	.st101{opacity:0.46;fill:#006993;}	.st102{fill:#D5DDE0;}	.st103{opacity:0.8;}	.st104{fill:#006993;}	.st105{fill:#F9E7D7;}	.st106{fill:#723C27;}	.st107{fill:#F93030;}	.st108{opacity:0.35;fill:#660E0E;}	.st109{fill:#FF6E6E;}	.st110{fill:#BF2121;}	.st111{fill:#D3D3D3;}	.st112{fill:#FFDE55;}</style><g>	<g>		<g>			<path class="st0" d="M3209.1,3109.25l-1031.54,87.26l-71.34-41.04l1024.45-71.86L3209.1,3109.25z"></path>							<linearGradient id="SVGID_1_" gradientUnits="userSpaceOnUse" x1="2516.9221" y1="49.5418" x2="2554.5269" y2="-17.2068" gradientTransform="matrix(0.9999 -0.0115 -8.000000e-03 -0.6903 -7.5573 2846.0293)">				<stop offset="0" style="stop-color:#DCC499"></stop>				<stop offset="1" style="stop-color:#E5D8C0"></stop>			</linearGradient>			<path class="st1" d="M2170.4,2894.98l1015.2-91.25l-6.76,290.21l-999.34,84.22L2170.4,2894.98z"></path>							<linearGradient id="SVGID_2_" gradientUnits="userSpaceOnUse" x1="1701.0977" y1="417.4579" x2="1757.2535" y2="317.7813" gradientTransform="matrix(0.9999 -0.0115 -8.000000e-03 -0.6903 -7.5573 2846.0293)">				<stop offset="0" style="stop-color:#DCC499"></stop>				<stop offset="1" style="stop-color:#E5D8C0"></stop>			</linearGradient>			<path class="st2" d="M2170.4,2894.98l1015.2-91.25l-1360.34-22.39L714.24,2894.98H2170.4z"></path>			<path class="st0" d="M600.94,2895.22c0.14,20.03,6.01,287.31,5.5,302.69h1576.37c-9.98-26.84,1.55-135.43-0.53-184.71    c-2.07-49.28-7.63-96.61-2.99-122.26C2112.13,2891.07,776.73,2860.2,600.94,2895.22z"></path>			<path class="st3" d="M602.54,2893.27h1548.94l1078.95-100.47l-1409.66-26.67L602.54,2893.27z"></path>			<g class="st4">				<rect x="671.88" y="2893.71" class="st5" width="19.74" height="304.57"></rect>				<rect x="726.57" y="2893.71" class="st5" width="19.74" height="304.57"></rect>				<rect x="2031.79" y="2893.71" class="st5" width="19.73" height="304.57"></rect>				<rect x="2086.48" y="2893.71" class="st5" width="19.73" height="304.57"></rect>				<path class="st5" d="M1834.83,3134.28H895.5v-178.95h939.33V3134.28z M912,3114.87h906.34v-140.14H912V3114.87z"></path>			</g>		</g>		<g>			<path class="st6" d="M251.67,2891.46l895.51,12.51l59.94-34.2H318.4L251.67,2891.46z"></path>							<linearGradient id="SVGID_3_" gradientUnits="userSpaceOnUse" x1="4206.894" y1="424.4057" x2="4237.6606" y2="369.7955" gradientTransform="matrix(-0.9989 0.0461 -0.0318 -0.6896 5049.7979 2700.0767)">				<stop offset="0" style="stop-color:#DCC499"></stop>				<stop offset="1" style="stop-color:#E5D8C0"></stop>			</linearGradient>			<path class="st7" d="M1140.64,2685.38l-881.61-17.2l18.15,210.66l867.54,11.89L1140.64,2685.38z"></path>							<linearGradient id="SVGID_4_" gradientUnits="userSpaceOnUse" x1="3488.552" y1="735.7607" x2="3537.9482" y2="648.0827" gradientTransform="matrix(-0.9989 0.0461 -0.0318 -0.6896 5049.7979 2700.0767)">				<stop offset="0" style="stop-color:#DCC499"></stop>				<stop offset="1" style="stop-color:#E5D8C0"></stop>			</linearGradient>			<path class="st8" d="M1140.64,2685.38l-881.61-17.2l1175.12-83.45l965.28,26.79L1140.64,2685.38z"></path>			<path class="st6" d="M3065.9,2584.72c7.92,18.63-4.34,73.31-5.09,119.79c-0.95,58.78,10.02,93.08-0.78,102.39l-1917.39,97.3    c7.49-20.01-7.02-97.35-7.32-133.28c-0.3-35.93,2.5-70.61-2.59-89.03C1190.79,2678.67,2912.44,2567.94,3065.9,2584.72z"></path>			<path class="st9" d="M3064.52,2584.79l-1907.73,96.03l-936.98-18.37l1253.34-155.81L3064.52,2584.79z"></path>			<path class="st10" d="M1330.65,2787.5c0,29.56-24.21,53.51-54.08,53.51c-29.87,0-54.08-23.96-54.08-53.51    s24.21-53.51,54.08-53.51C1306.44,2733.99,1330.65,2757.94,1330.65,2787.5z"></path>			<path class="st10" d="M2969.8,2706.75c0,29.56-24.21,53.52-54.08,53.52c-29.87,0-54.08-23.96-54.08-53.52    c0-29.55,24.21-53.51,54.08-53.51C2945.59,2653.24,2969.8,2677.2,2969.8,2706.75z"></path>		</g>		<g>			<path class="st11" d="M3109.21,2579.86l-1228.07,54.84l-66.28-36.83l1221.5-41.08L3109.21,2579.86z"></path>							<linearGradient id="SVGID_5_" gradientUnits="userSpaceOnUse" x1="2309.188" y1="1046.9919" x2="2350.1431" y2="974.2969" gradientTransform="matrix(0.9999 -0.0115 -9.200000e-03 -0.7982 -4.8002 3061.3899)">				<stop offset="0" style="stop-color:#DCC499"></stop>				<stop offset="1" style="stop-color:#E5D8C0"></stop>			</linearGradient>			<path class="st12" d="M1874.07,2363.83l1212.89-57.25l-5.86,259.53l-1198.18,52.17L1874.07,2363.83z"></path>							<linearGradient id="SVGID_6_" gradientUnits="userSpaceOnUse" x1="1706.2251" y1="1319.8149" x2="1760.3182" y2="1223.7999" gradientTransform="matrix(0.9999 -0.0115 -9.200000e-03 -0.7982 -4.8002 3061.3899)">				<stop offset="0" style="stop-color:#DCC499"></stop>				<stop offset="1" style="stop-color:#E5D8C0"></stop>			</linearGradient>			<path class="st13" d="M1874.07,2363.83l1212.89-57.25l-1262.79-43.77L793,2363.83H1874.07z"></path>			<path class="st11" d="M698.74,2362.65c-7.27,23.38-0.19,78.28,1.49,135.34c1.6,54.41-3.98,126.02,8.19,136.7h1177.6    c-9.3-24.02,1.25-119.84-0.75-163.91c-1.99-44.08-7.22-86.41-2.95-109.34C1819.97,2361.42,861.87,2331.62,698.74,2362.65z"></path>			<path class="st14" d="M700.23,2362.19H1856.5l1272.06-65.3l-1308.58-47.67L700.23,2362.19z"></path>			<path class="st15" d="M2045.49,2608.9l-39.66-39.1l-39.66,39.1c0,0,0.64-158.7-11.48-170.53h79.32    C2052.47,2449.26,2045.49,2608.9,2045.49,2608.9z"></path>			<g>				<rect x="834.31" y="2362.1" class="st16" width="29.23" height="272.83"></rect>				<rect x="915.31" y="2362.1" class="st16" width="29.23" height="272.83"></rect>				<rect x="1669.36" y="2362.1" class="st16" width="29.23" height="272.83"></rect>				<rect x="1750.37" y="2362.1" class="st16" width="29.23" height="272.83"></rect>			</g>		</g>		<g>			<path class="st17" d="M2276.9,1264.94c0.01,18.22-38.57,33.01-86.17,33.03c-47.59,0.02-86.18-14.74-86.19-32.96    c-0.01-18.22,38.57-33.01,86.17-33.03C2238.3,1231.97,2276.89,1246.72,2276.9,1264.94z"></path>			<polygon class="st17" points="2036.01,2247.57 2744.55,2247.57 2760.26,2233.76 2288.81,1271.14 1558.21,1271.14    "></polygon>			<polygon class="st18" points="1970.97,2285.54 2701.58,2285.54 2204.65,1271.14 1473.99,1271.14    "></polygon>			<path class="st19" d="M1920.39,2296c14.19-0.44,634.61,7.48,702.49,6.45c-121.09-229.48-385.07-829.05-418.23-1031.31    l-683.77,11.81C1563.85,1482.81,1811.07,2103.38,1920.39,2296z"></path>			<path class="st5" d="M2581.53,2301.99l41.35,0.46c-108.69-259.6-350.25-818.07-418.23-1031.31l-4.24,0.47    C2247.06,1488.68,2473.93,2064.86,2581.53,2301.99z"></path>			<path class="st20" d="M1488.47,1213.18c-6.23-0.43-12.66-0.51-19.3-0.5c-49.28,0.02-89.22,9.34-89.2,59.62l-0.13,6.4    c0,0,719.49,2.57,730.57-0.3c14.86-50.96,23.46-56.75,107.71-65.22H1488.47z"></path>			<polygon class="st5" points="2701.58,2285.54 2744.55,2247.57 2266.75,1271.14 2204.65,1271.14    "></polygon>			<polygon class="st21" points="2760.26,2233.76 2744.55,2247.57 2266.75,1271.14 2288.81,1271.14    "></polygon>			<path class="st22" d="M2445.65,2244.08c-103.98-226.03-268.8-639.99-339.08-872.63c-0.45-1.49-1.94-2.31-3.31-1.81    c-1.37,0.49-2.1,2.12-1.65,3.63c70.34,232.86,235.31,647.19,339.36,873.39c0.47,1.01,1.39,1.58,2.34,1.58c0.4,0,0.8-0.1,1.17-0.3    C2445.78,2247.22,2446.29,2245.5,2445.65,2244.08z M2030,1366.47c-0.46-1.49-1.92-2.3-3.31-1.82c-1.37,0.49-2.1,2.12-1.65,3.63    c70.36,232.89,235.33,647.21,339.37,873.39c0.47,1.01,1.39,1.58,2.34,1.58c0.4,0,0.8-0.1,1.17-0.31c1.29-0.72,1.8-2.44,1.16-3.85    C2265.13,2013.09,2100.29,1599.14,2030,1366.47z M1957.64,1366.5c-0.46-1.49-1.95-2.3-3.31-1.81c-1.37,0.49-2.1,2.12-1.65,3.63    c70.39,232.97,235.35,647.27,339.37,873.39c0.47,1.01,1.39,1.58,2.34,1.58c0.4,0,0.8-0.1,1.17-0.3c1.29-0.72,1.8-2.44,1.16-3.86    C2192.77,2013.17,2027.96,1599.23,1957.64,1366.5z M1881.74,1366.53c-0.45-1.49-1.94-2.3-3.3-1.81c-1.37,0.49-2.1,2.12-1.65,3.63    c70.35,232.9,235.33,647.21,339.37,873.39c0.47,1.01,1.39,1.58,2.34,1.58c0.4,0,0.79-0.1,1.17-0.3c1.29-0.72,1.8-2.44,1.16-3.86    C2116.85,2013.16,1952.02,1599.2,1881.74,1366.53z M1802.31,1366.56c-0.46-1.49-1.9-2.3-3.3-1.82c-1.37,0.49-2.1,2.12-1.65,3.63    c70.34,232.86,235.31,647.19,339.36,873.39c0.47,1.01,1.39,1.58,2.34,1.58c0.4,0,0.79-0.1,1.17-0.3c1.29-0.72,1.8-2.44,1.16-3.85    C2037.41,2013.16,1872.59,1599.2,1802.31,1366.56z M1724.64,1366.6c-0.47-1.49-1.95-2.3-3.3-1.82c-1.37,0.49-2.1,2.12-1.65,3.63    c70.39,232.97,235.35,647.27,339.37,873.39c0.47,1.01,1.39,1.58,2.34,1.58c0.4,0,0.8-0.1,1.17-0.31c1.3-0.72,1.8-2.44,1.16-3.85    C1959.78,2013.27,1794.97,1599.33,1724.64,1366.6z M1648.75,1366.63c-0.45-1.49-1.94-2.3-3.31-1.82    c-1.37,0.49-2.1,2.12-1.65,3.63c70.35,232.9,235.33,647.21,339.37,873.39c0.47,1.01,1.39,1.58,2.34,1.58    c0.4,0,0.79-0.1,1.17-0.31c1.29-0.72,1.8-2.44,1.16-3.85C1883.86,2013.26,1719.03,1599.29,1648.75,1366.63z"></path>			<polygon class="st5" points="1734.99,2331.98 1739.15,2345.27 2211.48,1295.82 2204.65,1271.14    "></polygon>			<polygon class="st18" points="1734.99,2331.98 1650.55,2332.97 1663.42,2345.27 1739.15,2345.27    "></polygon>			<polygon class="st23" points="1734.99,2331.98 1650.55,2332.97 2128.92,1271.14 2204.65,1271.14    "></polygon>			<polygon class="st5" points="1678.88,2349.37 1648.34,2257.54 2128.92,1271.14 2204.65,1271.14    "></polygon>			<polygon class="st21" points="1633.34,2248.02 1649.49,2259.94 2132.49,1271.25 2110.41,1271.25    "></polygon>			<polygon class="st18" points="1678.88,2349.37 952.8,2349.37 923.41,2259.94 1649.49,2259.94    "></polygon>			<polygon class="st21" points="1633.34,2248.02 902.77,2248.02 918.92,2259.94 1649.49,2259.94    "></polygon>			<polygon class="st24" points="1633.34,2248.02 902.77,2248.02 1379.83,1271.25 2110.41,1271.25    "></polygon>			<path class="st25" d="M1586.95,2186.69H997.2l-5.91-9.47l410.7-840.81l5.91-3.69h589.78l5.91,9.47L1592.86,2183L1586.95,2186.69z     M1007.73,2173.53h575.11l404.3-827.65h-575.13L1007.73,2173.53z"></path>			<path class="st21" d="M2199.52,1235.78c35.94-0.02,65.05,6.25,67.18,36.15c13.28,0,22.06,0.01,22.06,0.01    c-0.02-49.77-39.97-59.57-89.25-59.55s-89.22,9.34-89.2,59.62c0,0,8.8-0.05,22.06-0.07    C2134.48,1241.77,2163.58,1235.79,2199.52,1235.78z"></path>		</g>		<g>			<path class="st26" d="M2660.39,1784.34c-7.99-4.3-32.24-19.67-28.51-63.31c1.39-16.16-9.61-20.92-19.31-25.14    c-13.23-5.75-24.67-10.71-14.6-39.94c12.59-36.55,1.93-66.47-27.81-78.1c-23.05-9.01-48.23-28.67-69.85-53.95    c-8.66-14.82-15.78-29.16-20.76-39.79c-125.74-14.37-298.78,46.47-359.8,78.04l-35.02-1.26c-1.17,32.13-29.17,63.16-43.72,85.75    c-17.63,27.37-23.93,55.13-8.73,82.51c6.02,10.87,10.8,20.58,8.16,29.52c-2.23,7.56-9.91,14.56-23.48,21.38    c-13.43,6.75-21.32,14.58-24.07,23.92c-3.9,13.18,3.28,26.12,9.6,37.53c4.45,8.05,5.05,20.79,3.44,27.51    c-5.91,24.81-13.24,34.33-7.59,50.95c-2.77-17.89,6.17-28.22,11.7-48.98c2.07-7.75,2.3-20.12-6.01-34.99    c-5.9-10.57-10.14-19.39-6.83-30.62c2.37-8.04,9.48-14.93,21.73-21.09c14.95-7.52,23.16-15.21,25.82-24.21    c1-3.41,0.92-6.86,0.44-10.34c8.9,16.26,10.06,30.15-18.17,46.58c-51.89,30.21,4.4,63.36-2.07,80.8    c-11.11,29.96-14.55,35.89-10.29,58.03c4.89,25.37,23.75,38.84,41.65,42.29c-0.14-4.05-19.88-25.85-8.57-66.17    c5.22,21.1,29.94,69.5,35.7,70.26c91.82,12.01,362.71,11.01,455.87-45.48c17.8-10.79,10.25-53.83,14.29-66.24    c2.92-8.98,14.06,39.99,19.41,52.39c100.17-74.92,47.18-103.54,38.38-109.09c-10.39-6.56-14.91-20.37,5.46-83.62    c10.39-32.25-52.63-10.93-33.79-65.66c11.29-32.8,2.57-58.97-26.48-75.11c-10.18-5.65-19.84-14.85-28.88-25.48    c13.6,8.84,27.25,16.04,40,21.03c27.59,10.78,37.84,35.74,26.01,70.11c-11.51,33.44,4.36,40.33,17.11,45.86    c9.86,4.28,17.75,7.67,16.56,20.38C2622.84,1769.3,2655.85,1783.31,2660.39,1784.34z M2033.31,1720.68    c-9.98-22.72-5.49-45.05,9.91-68.97c8.66-13.44,22.92-25.25,33.66-39.3C2064.81,1656.05,2030.87,1688.53,2033.31,1720.68z"></path>			<path class="st27" d="M2470.77,2208.25c1.64,4.09,72.16,1.38,71.18-2.91c-14.85-64.86-42.06-172.9-45.08-191.44    c0,0-65.68-21.12-68.28,28.76C2427.4,2065.56,2446.5,2147.65,2470.77,2208.25z"></path>			<polygon class="st28" points="2541.96,2202.32 2501.97,2201.36 2502.89,2171.32 2532.72,2165.84    "></polygon>			<g>				<g>					<polygon class="st29" points="2748.56,2334.39 2765.12,2323.47 2489.18,2310.58 2460.21,2319.74      "></polygon>											<linearGradient id="SVGID_7_" gradientUnits="userSpaceOnUse" x1="2965.9563" y1="433.3826" x2="2971.551" y2="419.9558" gradientTransform="matrix(-2.4715 -0.0443 9.100000e-03 -0.5102 10045.7598 2602.7522)">						<stop offset="0" style="stop-color:#DCC499"></stop>						<stop offset="1" style="stop-color:#E5D8C0"></stop>					</linearGradient>					<path class="st30" d="M2750.64,2333.06l-279.59-14.22l2.02-49.72c0,0,227.24,7.39,276.25,14.99      C2760.04,2288.05,2761.08,2330.29,2750.64,2333.06z"></path>					<path class="st31" d="M2463.89,2269.77l155.9-48.77l203.91,7.42l-69.4,56.42L2463.89,2269.77z"></path>					<path class="st29" d="M2747.72,2334.37c4.99,0.4,17.96-2.93,24.86-9.53l54.17-50.55c6.87-6.57,7.87-40.03-6.32-43.22      l-76.12,53.21C2759.27,2286.52,2755.91,2332.52,2747.72,2334.37z"></path>				</g>				<g>					<path class="st32" d="M2855.84,2242.07l-130.37,39.07l-10.72-3.67l127.24-38.44L2855.84,2242.07z"></path>					<path class="st33" d="M2510.52,2248.33l215.08,31.21l126.67-78.33l-204.09-21.18l-137.1,38.73L2510.52,2248.33z"></path>											<linearGradient id="SVGID_8_" gradientUnits="userSpaceOnUse" x1="-925.4916" y1="132.5674" x2="-921.5408" y2="125.5546" gradientTransform="matrix(0.7951 -0.0163 -8.900000e-03 -0.4327 3512.6472 2270.3059)">						<stop offset="0" style="stop-color:#DCC499"></stop>						<stop offset="1" style="stop-color:#E5D8C0"></stop>					</linearGradient>					<path class="st34" d="M2725.59,2247.19l126.67-45.98l-2.3,40.66l-124.37,37.67V2247.19z"></path>					<path class="st32" d="M2504.9,2219.22c0.2,4.06,1.37,8.08,2.1,15.48c0.93,9.36-1.74,17.96,0.52,19.31l218.39,27.12      c-1.74-3.1-0.13-12.94-0.52-18.67c-0.39-5.73-3.33-12.87-2.55-15.86c45.64-16.05,80.99-26.31,129.41-45.39l-204.23-27.68      C2595.71,2191.68,2557.23,2201.07,2504.9,2219.22z"></path>					<path class="st35" d="M2506.59,2219.09l217.21,27.44l128.46-45.32l-203.67-27.95L2506.59,2219.09z"></path>				</g>				<g>					<path class="st36" d="M2658.69,2235.21l149.95-53.61l-129.29-38.2l-172.92,71.97L2658.69,2235.21z"></path>											<linearGradient id="SVGID_9_" gradientUnits="userSpaceOnUse" x1="433.2625" y1="330.9765" x2="420.8439" y2="307.0062" gradientTransform="matrix(1.5222 0.0139 3.100000e-03 -0.3373 1939.998 2303.3259)">						<stop offset="0" style="stop-color:#DCC499"></stop>						<stop offset="1" style="stop-color:#E5D8C0"></stop>					</linearGradient>					<path class="st37" d="M2511.9,2214.46l148.92,19.75c4.97-7.38,2.48-33.9-0.13-40.8l-148.92-20.33      C2513.6,2179.65,2513.84,2208.51,2511.9,2214.46z"></path>					<path class="st36" d="M2812.97,2195.98l0.54-40.67l-153.69,37.91c7.5,14.49,2.99,39.4-1.13,41.98L2812.97,2195.98z"></path>					<path class="st38" d="M2508.35,2173.55l151.68,19.84l152.94-38.07l-143.17-13.72L2508.35,2173.55z"></path>				</g>				<path class="st38" d="M2631.87,2225.11l6.53-7.28l9.5,7.67c0,0-1.45-23.55,3.02-25.17c-0.77,0.05-15.69-2.61-16.46-2.44     C2629.57,2201.43,2631.87,2225.11,2631.87,2225.11z"></path>			</g>			<polygon class="st27" points="2588.32,2267.78 2522.76,2267.78 2533.67,2205.55 2613.99,2236.54    "></polygon>			<path class="st39" d="M2377.48,2301.06c2.44,15.34,0.64,30.59-24.13,34.53c-24.77,3.94-64.73,0.92-67.16-14.42    c-2.44-15.34,17.26-36.81,42.03-40.75C2352.99,2276.48,2375.05,2285.72,2377.48,2301.06z"></path>			<path class="st40" d="M2534.74,2317.22c-13.92-43.04,7.58-97.06,53.18-90.74c1.95-9.12-77.6-30.53-140.26-48.62    c-13.85-4-134.83,3.36-163.45,6.52c-3.19,52.21-3.58,92.04,20.73,115.51c13.92,13.44,115.97,16.3,138.65,16.47    C2484.48,2316.69,2509.98,2317.13,2534.74,2317.22z"></path>			<path class="st41" d="M2508.35,2026.08c-24.98,15.64-55.39,24.23-78.86,31.53c-12.42-57.11-31.84-134.55-31.69-138.66    c35.11,4.38,52.85,5.93,62.07,11.25C2476.7,1950.84,2485.25,1972.55,2508.35,2026.08z"></path>			<path class="st41" d="M2176.33,2200.4c59.52-1.64,137.52,14.55,183.64,9.63c43.39-4.63,47.86-21.53,105.69-27    c8.66-10.3-15.95-18.15-16.2-23.23c-4.03-80.48-7.37-183.54-11.84-235.67c-24.11-4.23-156.82-26.13-236.17,6.62    C2188.43,1982.19,2175.47,2133.23,2176.33,2200.4z"></path>			<path class="st27" d="M2402.07,1931.57c0.36-3.79-0.52-8.83-1.25-12.48c-2.94-0.51-6.14-1.07-9.31-1.49    c-35.51-4.77-84.9-7.02-130.47-1.32c-0.13,0.68-0.31,1.45-0.36,1.94c-2.76,29.29,26.09,58.41,65.13,62.1    C2364.85,1984,2399.31,1960.85,2402.07,1931.57z"></path>			<path class="st27" d="M2385.05,1844.51v86.2c0.06,18.57-23.35,33.71-52.47,33.81c-29.12,0.1-52.92-14.89-52.98-33.46v-86.55    H2385.05z"></path>			<path class="st28" d="M2447.68,1885.03c1.08-4.54,1.17-9.1,0.93-13.64c-45.2-11.68-113.81-25.46-163.65-30.55    c-0.75,1.9-1.93,3.6-2.41,5.64c-8.32,35.14,21.89,72.26,67.49,82.9C2395.65,1940.02,2439.36,1920.17,2447.68,1885.03z"></path>			<path class="st27" d="M2141.4,2137.98c-0.13,4.23,65.61,29.39,66.42,25.25c12.22-62.66,30.29-167.99,34.91-185.43    c0,0-51.8-44.16-74.04-1.46C2158.47,1995.95,2143.29,2075.37,2141.4,2137.98z"></path>			<path class="st41" d="M2134.83,2043.67c24.98,10.83,94.85,25.32,114.14,25c0-49.04,0.82-133.08-5.72-132.91    c-10.37-2.9-33.82-4.76-41.79-5C2159.41,1945.85,2153.42,1977.56,2134.83,2043.67z"></path>			<path class="st27" d="M2593.02,2235.54c36.3-3.24,49.54,15.59,50.92,45.12c1.55,33.28-23.59,53.23-47.01,52.99    c-66.46-0.67-155.95,1.63-174.45,1.67c-1.82-7.19-5.8-78.46-5.47-82.3C2443.22,2250.31,2550.57,2239.32,2593.02,2235.54z"></path>			<path class="st5" d="M2398.19,2242.36c-1.59,0.16-0.17,93.63,1.76,93.83c16.76,1.74,57.13,1.22,66.86,1.95l-8.01-100.29    C2440.68,2239.65,2409.67,2241.21,2398.19,2242.36z"></path>			<g class="st42">				<path d="M2416.22,2251.34c-20.52-31.99-71.34-41.02-110.89-50c-6.72,0.79-13.08,1.55-18.2,2.12c-0.37,6.11-0.68,12-0.94,17.77     c4.32,36.24,14.35,66.61,31.02,89.47c8.62,11.82,17.87,19.35,27.2,24.36c9.49,1.42,19.25,2.19,28.24,2.26     c37.29,0.29,43.71,0.53,66.51,0.67C2438.27,2303.41,2429.48,2272.01,2416.22,2251.34z"></path>			</g>			<path class="st27" d="M2423.38,2300.75c-10.16-45.67-18.51-54.38-35.5-64.58c-13.09-7.86-31.95-8.82-45.79-11.35    c-58.75,19.78-31.33,96.67-27.02,105.42c14.74-1.95,19.51,4.63,19.51,4.63c12.22,59.56,26.7,128.05,30.82,146.08    c7.41,0.16,78.59-15,82.25-16.19C2444.41,2438.61,2431.15,2335.67,2423.38,2300.75z"></path>			<path class="st5" d="M2357.43,2515.18c0.17,1.39,98.76-0.17,98.97-1.87c1.82-14.71,1.22-50.12,1.98-58.65l-105.77,7.37    C2354.52,2477.92,2356.2,2505.11,2357.43,2515.18z"></path>			<g>				<path class="st43" d="M2467.7,2504.6c-0.77-5.12-2.84-11.73-4.34-17.74c-1.11-4.45-42.91-8.67-44.23,1.57     c-0.34,2.62-0.5,4.95-0.53,7.07c-7.15-0.77-14.88-1.76-23.02-3.02c-17.7-2.74-33.46-6.05-44.43-9.15     c-2.63,16.12-4.51,44.35-7.28,62.29c0,0,182.02,56.7,214.52,33.15C2567.55,2572.14,2524.8,2532.86,2467.7,2504.6z"></path>				<path class="st44" d="M2345.36,2534.35c-0.47,4.01-0.96,7.86-1.49,11.28c0,0,182.02,56.7,214.52,33.15     c1.29-0.94,1.53-2.53,0.87-4.64C2506.6,2579.25,2390.72,2547.57,2345.36,2534.35z"></path>				<path class="st45" d="M2480.12,2511.37c1.38,0.45,2.86-0.25,3.34-1.62c0.48-1.37-0.25-2.86-1.62-3.34     c-10.54-3.62-23.72-0.09-32.07,8.64c-1,1.05-0.97,2.71,0.08,3.71c0.4,0.38,0.9,0.61,1.41,0.69c0.82,0.13,1.68-0.13,2.3-0.78     C2460.55,2511.37,2471.47,2508.33,2480.12,2511.37z M2493.66,2519.64c1.38,0.43,2.82-0.54,3.15-1.95     c0.33-1.41-0.54-2.82-1.95-3.15c-11.24-2.68-22.99,0.27-32.25,8.02c-1.11,0.93-1.26,2.58-0.33,3.7c0.43,0.51,1,0.81,1.61,0.91     c0.72,0.11,1.48-0.08,2.08-0.58C2476.9,2517.44,2488,2518.3,2493.66,2519.64z M2509.13,2523.56     c-10.06-2.99-23.82,0.19-33.52,7.66c-1.15,0.89-1.36,2.53-0.47,3.68c0.43,0.55,1.03,0.89,1.68,0.99c0.68,0.11,1.41-0.06,2-0.52     c8.45-6.51,20.36-9.42,28.83-6.79c1.43,0.44,2.85-0.38,3.26-1.77C2511.31,2525.43,2510.52,2523.97,2509.13,2523.56z"></path>			</g>			<path class="st40" d="M2321.5,2336.88c-12.46-43.49-5.35-78.1,14.05-94.55c21.54-18.26,51.89-11.12,66.42,4.52    c6.6-12.9-34.38-27.42-120.2-50.8c-13.91-3.79-74.71,2.14-103.42,4.35c-4.94,52.08-6.68,91.86,16.83,116.14    c13.46,13.9,41.54,17.7,64.21,18.65C2282.97,2336.17,2295.39,2336.25,2321.5,2336.88z"></path>			<path class="st41" d="M2323.1,2203.11c-43.9-9.35-74.43-2.71-100.31,21.61c-17.92,16.84-54.16,18.13-53.03,1.23    c1.18-17.71,6.62-57.76,7.48-71.66C2201.83,2154.28,2326.27,2169.11,2323.1,2203.11z"></path>			<path class="st27" d="M2317.83,2187.42c4.22,0.26,8.26-49.67,4.05-50.1c-63.51-6.46-160.01-36.44-177.8-39.44    c-3.15,28.02-7.25,51.74,11.92,65.58C2173.92,2176.4,2255.84,2183.64,2317.83,2187.42z"></path>			<path class="st46" d="M2408.72,2098.89c4.32,9.37-13.45,22.13-29.45,20.82c-16-1.3-42.05-11.46-41.15-22.5    C2346.29,2089.54,2399.84,2079.64,2408.72,2098.89z"></path>			<g>				<path class="st47" d="M2476.37,2057.78c-5.47-7.38-18.59-13.22-30.03-13.08c-13.41,0.16-16.22,7.7-29.63,7.54     c-9.52-0.11-17.91-6.17-27.21-8.22c-18.23-4.01-37.12,8.9-44.76,25.94c-7.63,17.04-6.05,36.86-1.19,54.88     c6.61,24.55,21.32,49.44,45.54,57.16c6.49,2.07,13.98,2.67,19.76-0.92c1.92-1.19,3.61-2.81,5.74-3.58     c3.65-1.32,7.63,0.15,11.43,0.94c11.99,2.48,24.68-2.22,33.96-10.21c9.28-7.99,15.55-18.92,20.35-30.19     C2491.64,2111.47,2493.57,2080.97,2476.37,2057.78z"></path>				<path class="st48" d="M2478.67,2060.8c-5.47-7.38-14.69-14.33-23.75-15.82c-24.29-3.99-26.26,8.23-35.73,7.15     c-27.85-3.17-68.36-9.59-65.75,43.18c3.39,68.6,44.59,62.06,64.28,72.37c25.82,13.53,57.78-19.13,62.58-30.39     C2491.62,2110.73,2495.87,2083.99,2478.67,2060.8z"></path>				<path class="st49" d="M2399.09,2018.44c-0.67-0.05-1.29,0.31-1.88,0.66c-1.49,0.89-2.98,1.79-4.47,2.68     c7.28,5.54,12.53,14.21,16.49,23.19c2.13,4.82,3.33,10.44,4.39,15.68c1.77,0.22,3.93,0.93,5.21-0.43     c0.58-0.62-0.52-3.91-0.72-4.66c-3.71-14.72-15.3-32.83-16.36-34.64C2401.08,2019.79,2400.25,2018.54,2399.09,2018.44z"></path>				<path class="st49" d="M2433.56,2032.01c-5.47,3.94-12.34,5.27-18.97,6.5c-0.62,0.12-1.23,0.23-1.85,0.34     c-0.43,0.08-0.91,0.15-1.28-0.07c-0.49-0.28-0.62-0.91-0.7-1.46c-0.89-5.92-1.78-11.9-1.42-17.88     c0.36-5.98,2.07-12.04,5.87-16.67c6.52-7.94,17.57-10.14,27.74-11.64c1.72,7.22,2.68,14.75,1.46,22.08     C2443.19,2020.53,2439.58,2027.67,2433.56,2032.01z"></path>				<path class="st50" d="M2396.86,2054.85c0,0,8.04,5.58,19.65,4.93c7.76-0.44,15.97-7.2,15.97-7.2s-1.93,9.85-17.81,9.49     C2401.99,2061.79,2396.86,2054.85,2396.86,2054.85z"></path>			</g>			<g>				<path class="st51" d="M2300.46,2123.5c7.03-6.31,20.19-17.57,43.31-29.47c0.67-0.34,23.52,3.58,39.49,8.47     c14.49,4.44,48.94,16.93,50.59,21.82c0.73,2.17,0.5,4.4-0.66,6.46c-4.22,7.5-11.51,9.73-19.68,9.4     c3.65,2.33,6.43,4.75,7.46,7.08c0.83,1.9,0.83,3.92-0.01,5.68c-4.76,9.98-11.52,11.67-19.46,10.51     c1.36,1.92,2.24,4.23,2.42,7.03c0.12,1.83-0.52,3.6-1.82,4.99c-2.47,2.67-7.17,3.89-15.74,4.44c1.2,1.74,2.12,3.89,2.66,6.53     c0.25,1.29-0.12,3-0.89,4.07c-0.67,0.95-33.13,10.39-48.44,6.72c-0.92-0.05-29.56-6.72-30.71-7.08     c0.94-5.24,28.82-18.97,24.37-22.04C2320.04,2158.94,2300.46,2123.5,2300.46,2123.5z"></path>				<path class="st27" d="M2368.2,2158.22c9.21,0.73,30.17,0.71,30.96,12.59c0.32,4.9-18.63,4.75-36.71,4.88     c-6.05,0.04-7.78-2.13-24.7-6.16c-0.72,1.49,7.1,6.12,17.97,8.62c5.92,1.36,25.66-5.43,28.63,9.26     c0.51,2.52-24.64,6.46-30.54,7.31c-9.4,1.35-62.64-7.45-65.27-9.26c-11.02-7.61-14.09-20.67-8.25-37.68     c6.11-12.78,34.3-40.63,59.52-51.93c18.38,1.12,30.65,4,43.46,6.66c32.99,14.44,49.24,19.8,45.77,25.93     c-8.28,14.67-34.62,2.53-48.77-2.08c-11.54-2.7-24.74-3.41-31.22-3.37c-1.6,2.55,19.05,4.9,30.27,7.54     c9.08,2.77,40.07,14.64,37.34,20.36c-7.34,15.37-19.34,5.08-43.69,0.27c-9.77-1.27-28.26-1.84-29.63-0.65     C2344.72,2153.27,2350.26,2154.1,2368.2,2158.22z"></path>			</g>			<g>				<path class="st52" d="M2560.2,1732.59c-6.1,44.98-43.8,76.4-74.88,74.98c-31.08-1.42-40.88-36.94-40.11-79.79     c0.78-42.85,26.61-76.55,57.69-75.02C2545.37,1654.86,2565.93,1690.32,2560.2,1732.59z"></path>				<path class="st26" d="M2080.87,1602.62c-0.76,162.45,131.85,255.54,266.95,241.05c135.1-14.49,221.42-137.05,190.96-291.89     c-16.91-85.98-102.81-150.65-231.79-135.97C2169.71,1431.43,2081.45,1476.69,2080.87,1602.62z"></path>				<path class="st27" d="M2137.39,1561.34c-9.32,28.4,35.02,267.04,66.19,297.38c33.07,32.18,159.95,48.34,184.95,45.66     c26.77-2.87,112.22-44.82,130.69-86.08c21.86-48.82,9.39-255.85-1.87-280.23c-38.06-82.35-112.7-77.25-209.92-66.82     C2216.48,1481,2161.57,1487.65,2137.39,1561.34z"></path>				<path class="st27" d="M2090.07,1792.83c17.28,44.98,65.62,68.99,98.99,60.63c33.36-8.36,13.77-145.57-48.66-150.66     C2088.41,1698.56,2073.83,1750.56,2090.07,1792.83z"></path>				<path class="st46" d="M2127.48,1786.67c4.83,19.28,28.62,33.37,44.58,26.12c6.22-2.82-12.24-69.88-22.54-68.74     C2132.1,1745.98,2122.65,1767.39,2127.48,1786.67z"></path>				<path class="st53" d="M2204.84,1792.24c0.51,9.8,14.54,17.03,31.34,16.15c16.79-0.88,30-9.53,29.48-19.33     c-0.51-9.8-14.55-17.03-31.34-16.15C2217.53,1773.79,2204.33,1782.45,2204.84,1792.24z"></path>				<path class="st53" d="M2465.19,1766.75c1.32,8.62,12.86,14.02,25.79,12.05c12.92-1.97,22.34-10.56,21.03-19.18     c-1.32-8.62-12.87-14.02-25.79-12.05C2473.3,1749.54,2463.88,1758.13,2465.19,1766.75z"></path>				<g>					<path class="st54" d="M2443.8,1783.53c-4.3-15.32-27.89-9.27-67-6.23c-2.04,0.16-10,0.83-12.04,1.02      c-39.07,3.56-63.34,1.55-65.01,17.37c-3.22,30.48,37.28,60.06,76.99,56.83l0.69-0.06      C2417.11,1848.98,2452.09,1813.04,2443.8,1783.53z"></path>					<path class="st55" d="M2377.67,1853.06l-0.69,0.06c-12.88,1.04-26.54-1.49-39.54-7.27l-0.79-0.34l0.59-0.62      c9.53-10.12,23-16.39,37.91-17.65c14.89-1.26,29.22,2.67,40.33,11.04l0.69,0.52l-0.73,0.47      C2403.59,1847.15,2390.52,1851.93,2377.67,1853.06z"></path>					<path class="st5" d="M2372.68,1797.79c-27.32,2.3-50.77-4.24-54.57-15.24l-0.22-0.67l106.13-8.96l-0.11,0.7      C2421.99,1785.1,2399.97,1795.49,2372.68,1797.79z"></path>				</g>				<path class="st56" d="M2357.77,1759.29c1.07-0.11,1.93-0.99,2-2.1c0.45-7.89,6.04-13.56,14.24-14.44     c8.25-0.89,15.07,3.55,16.97,11.04c0.31,1.2,1.54,1.93,2.73,1.62c1.2-0.31,1.93-1.53,1.62-2.73     c-2.44-9.59-11.41-15.51-21.8-14.39c-10.33,1.11-17.67,8.6-18.25,18.64c-0.07,1.24,0.88,2.3,2.11,2.37L2357.77,1759.29z"></path>				<path class="st57" d="M2193.19,1644.24c1.77-0.33,3.43-1.26,4.61-2.75c15.19-18.99,48.68-29.64,77.98-24.74     c4.06,0.7,8.01-1.98,8.77-6c0.75-3.99-1.97-7.79-6.07-8.48c-34.96-5.83-73.9,6.9-92.55,30.28c-2.57,3.22-1.99,7.82,1.29,10.29     C2188.97,1644.18,2191.15,1644.61,2193.19,1644.24z"></path>				<path class="st57" d="M2504.39,1604.77c1.68-0.13,3.29-0.94,4.39-2.39c2.05-2.69,1.37-8.52-1.32-10.57     c-19.53-14.92-52.7-16.93-78.86-4.83c-3.07,1.43-4.24,7.06-2.82,10.13c1.43,3.08,5.08,4.41,8.13,2.98     c21.92-10.18,50.42-8.7,66.28,3.44C2501.44,1604.48,2502.94,1604.88,2504.39,1604.77z"></path>				<path class="st26" d="M2465.78,1465.65c-39.17-13.34-108.06-12.39-168.47-3.04c-65.67,10.17-131.89,29.8-164.19,58.78     c-21.36,19.17-31.33,139.01-21.37,127.74c11.4-12.9,30.79-25.85,54.7-37.78c1.04-13.2,13.44-47.66,16.18-52.4     c-0.19,6.92,1.57,30.88,2.64,43.62c30.14-13.15,65.23-24.54,100.01-32.49c-2.94-13.26,0.82-31.74,0.7-32.66     c4.73,3.35,16,20.76,20.82,28.17c5.27-0.99,10.5-1.89,15.68-2.69c47.48-7.35,83.09-9.83,111.96-8.82     c-8.38-41.1-10.72-53.99-10.52-51.13c6.52,7.95,17.16,32.18,20.86,51.65c10.86,0.74,20.74,2.01,29.98,3.72     c-1.1-12.18-1.6-32.08-1.77-35.44c4.06,1.64,15.43,27.11,19.98,39.57c15.62,4.2,29.79,9.71,44.5,16     C2553.55,1585.32,2497.35,1476.4,2465.78,1465.65z"></path>				<g>					<path class="st58" d="M2424.3,1737.38c0,0,59.41,15.31,76.99-22.63c21.42-46.24-22.99-76.02-48.45-66.45      C2429.29,1657.14,2410.13,1684.53,2424.3,1737.38z"></path>					<path class="st59" d="M2499.18,1658.96c-12.37-14.58-27.12-17.98-42.29-14.46c-15.51,3.59-29.9,18.57-32.83,32.72      c6.68-16.3,20.61-23.53,29.41-26.84c14.02-5.29,33.86,0.33,44.18,14.89c9.17,12.95,10.92,33.7,3.06,50.67      C2510.92,1703.87,2512.07,1674.16,2499.18,1658.96z"></path>					<path class="st60" d="M2432.17,1688.87c-3.43,16.15,5.02,33.09,18.86,37.85c13.84,4.76,27.84-4.48,31.27-20.63      c3.43-16.15-5.02-33.09-18.86-37.85S2435.59,1672.72,2432.17,1688.87z"></path>					<path class="st61" d="M2433.68,1683.82c-0.95,4.48,1.39,9.18,5.23,10.5c3.84,1.32,7.72-1.24,8.67-5.72      c0.95-4.48-1.39-9.18-5.23-10.5C2438.51,1676.78,2434.63,1679.34,2433.68,1683.82z"></path>				</g>				<g>					<path class="st58" d="M2322.56,1749.15c0,0-65.12,29.2-94.87-3.47c-36.26-39.81,7.89-79.47,39.78-76.29      C2296.97,1672.32,2325.96,1694.34,2322.56,1749.15z"></path>					<path class="st59" d="M2216.36,1690.93c10.74-17.16,27.01-24.01,45.47-24.25c18.87-0.24,39.26,10.86,46.15,23.91      c-11.77-14.25-29.71-17.92-40.74-19.02c-17.57-1.77-39.19,8.47-47.55,25.12c-7.44,14.81-4.34,35.41,8.97,50.02      C2213.84,1737.43,2205.17,1708.81,2216.36,1690.93z"></path>					<path class="st60" d="M2236.32,1710.82c-4.44,16.28,5.16,33.08,21.44,37.52c16.28,4.44,33.08-5.16,37.52-21.44      c4.44-16.28-5.15-33.08-21.43-37.52C2257.56,1684.95,2240.76,1694.54,2236.32,1710.82z"></path>					<path class="st61" d="M2238.23,1705.72c-1.23,4.52,1.43,9.18,5.95,10.41c4.52,1.23,9.18-1.43,10.41-5.95      c1.23-4.52-1.43-9.18-5.95-10.41C2244.12,1698.54,2239.46,1701.2,2238.23,1705.72z"></path>				</g>				<g>					<path class="st62" d="M2060.86,1630.69c0,0-8.94,36.15,11.81,33.23c20.75-2.92,35.41-20.61,32.75-39.5      c-2.66-18.9-21.63-31.85-42.38-28.93C2042.29,1598.42,2060.86,1630.69,2060.86,1630.69z"></path>					<path class="st62" d="M2172.27,1615.01c0,0,18.57,32.28-2.18,35.2c-20.75,2.92-39.72-10.03-42.38-28.93      c-2.66-18.9,12-36.58,32.75-39.5C2181.21,1578.86,2172.27,1615.01,2172.27,1615.01z"></path>					<path class="st62" d="M2130.38,1621.4c1.26,8.98-4.12,17.16-12.02,18.27c-7.9,1.11-15.33-5.26-16.6-14.24      c-1.26-8.98,4.12-17.16,12.02-18.27C2121.69,1606.04,2129.12,1612.42,2130.38,1621.4z"></path>				</g>			</g>		</g>		<g>			<path class="st27" d="M2062.58,1027.09c-6.43,12.36-29.57,27-63.32,36.78c-12.22-62.66-33.39-179.52-38-196.96    c0,0,45.1-38.26,67.35,4.44C2038.81,890.96,2078.79,995.94,2062.58,1027.09z"></path>			<path class="st63" d="M1804.17,1177.04c-2.44,15.34-0.64,30.59,24.13,34.53c24.77,3.94,64.73,0.92,67.17-14.41    c2.44-15.34-17.26-36.81-42.03-40.75C1828.67,1152.46,1806.61,1161.7,1804.17,1177.04z"></path>			<g>				<path class="st63" d="M1662.76,1174.66c-2.95,15.25-21.75,38.7,3.31,37.53c23.72-1.1,81.25,4.59,82.69-9.53     c1.57-15.45-11.44-42.2-36.06-46.97C1688.07,1150.92,1665.72,1159.42,1662.76,1174.66z"></path>				<path class="st27" d="M1613.47,1184.16c4.26-46.59,14.34-56.29,29.9-68.56c11.99-9.46,27.68-12.82,41.08-17.09     c21.91-6.98,53.96-10.8,104.41-20.58c12.73-2.47,77.86,0.47,103.6,3.31c-10.52,56.48-5.18,68.05-32.32,95.48     c-15.47,15.63-110.22,23.01-135.48,22.91c-14.86-0.06-18.77,7.07-18.77,7.07c-4.55,60.63-10.21,130.4-12,148.82     c-7.34,1.09-79.85-4.89-83.65-5.6C1610.14,1323.58,1610.21,1219.79,1613.47,1184.16z"></path>				<path class="st64" d="M1705.36,1379.26c0.01,1.4-97.98,12.38-98.4,10.73c-3.68-14.36-7.58-49.56-9.42-57.92l105.85-6.14     C1703.51,1341.94,1705.31,1369.12,1705.36,1379.26z"></path>				<g>					<path class="st65" d="M1594.64,1382.79c0.12-5.18,1.33-12,2.05-18.15c0.54-4.56,41.46-14.06,44.07-4.07      c0.67,2.55,1.13,4.84,1.43,6.95c6.99-1.67,14.53-3.64,22.45-5.92c17.21-4.96,32.42-10.25,42.91-14.72      c4.66,15.66,10.11,43.42,15.14,60.86c0,0-173.34,79.38-208.57,60.16C1504.19,1462.48,1541.61,1418.07,1594.64,1382.79z"></path>					<path class="st66" d="M1719.78,1396.74c0.98,3.91,1.95,7.68,2.91,11c0,0-173.34,79.38-208.57,60.16      c-1.4-0.77-1.84-2.32-1.45-4.49C1565.55,1461.78,1676.47,1415.63,1719.78,1396.74z"></path>					<path class="st45" d="M1610.46,1394.95c0.69,0.56,1.58,0.71,2.38,0.48c0.5-0.14,0.96-0.44,1.31-0.87      c0.91-1.13,0.74-2.78-0.39-3.69c-9.4-7.6-22.92-9.42-32.91-4.49c-1.29,0.65-1.82,2.22-1.18,3.52c0.64,1.3,2.2,1.8,3.51,1.18      C1591.38,1386.97,1602.6,1388.6,1610.46,1394.95z M1599.16,1404.37c0.66,0.42,1.44,0.51,2.14,0.31      c0.59-0.17,1.13-0.55,1.48-1.1c0.78-1.22,0.42-2.85-0.8-3.63c-10.17-6.51-22.21-7.94-33.01-3.85      c-1.36,0.51-2.04,2.02-1.53,3.38c0.51,1.36,2.06,2.13,3.38,1.53C1576.25,1398.96,1587.15,1396.69,1599.16,1404.37z       M1554.62,1410.32c0.58,1.32,2.1,1.97,3.46,1.34c8.07-3.69,20.25-2.32,29.46,3.07c0.65,0.38,1.39,0.45,2.05,0.26      c0.62-0.18,1.18-0.59,1.54-1.2c0.73-1.25,0.31-2.86-0.94-3.59c-10.57-6.18-24.63-7.58-34.22-3.34      C1554.64,1407.44,1554.04,1408.99,1554.62,1410.32z"></path>				</g>				<path class="st67" d="M1717.84,1212.24c13.92-43.04,8.4-71.87-10.45-88.96c-20.92-18.97-54.17-18.23-68.28-4.24     c-6.06-15.11,65.64-26.98,152.19-47.45c14.03-3.32,74.59,4.65,103.21,7.82c3.19,52.21,3.58,92.04-20.73,115.51     c-13.92,13.44-42.12,16.3-64.8,16.47C1768.11,1211.71,1742.61,1212.15,1717.84,1212.24z"></path>			</g>			<path class="st27" d="M1501.41,741.67c-5.96-3.62,25.28-52.12,31.48-48.86c92.64,48.69,212.04,102.88,237.45,112.34l-38.64,64.97    C1678.83,841.04,1580.21,789.53,1501.41,741.67z"></path>			<path class="st68" d="M1662.08,749.63c-11.38,22.46-29.78,74.17-40.05,98.19c49.67,25.12,91.21,42.94,95.26,42.52    c42.14-4.37,73.17-85.75,76.44-90.14C1767.36,791.63,1711.16,772.68,1662.08,749.63z"></path>			<path class="st27" d="M1455.69,722.88c-1.93,3.56-8.08,4.81-17.61,7.07c-8.26,1.96-20.73,4.53-24.96,9.36    c-4.52,5.17,0.96,9.73,10.83,10.86c16.3,1.87,53.27,4.74,71.71,4.86c31.42,2.2,61.25-20.9,62.4-50.45    c1.73-44.31-0.31-61.6-0.25-88.87c0.02-6.72-13.8-0.84-17.32,7.66c-7.54,18.2-4.34,24.76-8.96,33.77    c-4.51,8.79-12.34,6.58-20.01,0.93c-29.22-38.04-41.96-63.06-56.22-60.4c-11.4,4.06,5.21,32.99,25.43,64.76    c-33.29-23.77-61.96-40.08-66.8-30.49c-5.74,11.36,22.56,32.41,46.64,53.84c-31.18-1.33-63.12-11.6-63.83,4.73    C1396.2,702.46,1461.12,712.84,1455.69,722.88z"></path>			<path class="st68" d="M2005.32,1076.37c-59.52-1.64-137.52,14.55-183.64,9.63c-43.39-4.63-49.95-27.17-107.78-32.64    c-2.39-8.38,16.97-22.47,17.23-27.54c4.02-80.48,8.43-173.59,12.9-225.71c24.11-4.23,156.82-26.13,236.17,6.62    C1993.23,858.16,2006.19,1009.2,2005.32,1076.37z"></path>			<path class="st69" d="M1779.58,807.54c-0.36-3.79,0.52-8.83,1.25-12.48c2.94-0.51,6.14-1.07,9.31-1.49    c35.51-4.76,84.9-7.02,130.47-1.32c0.13,0.68,0.31,1.44,0.36,1.94c2.77,29.28-26.09,58.41-65.13,62.09    C1816.8,859.97,1782.35,836.83,1779.58,807.54z"></path>			<path class="st27" d="M1796.6,720.48v86.2c-0.06,18.57,23.35,33.72,52.47,33.81c29.12,0.09,52.92-14.89,52.98-33.46v-86.55    H1796.6z"></path>			<path class="st28" d="M1796.22,768.43c-0.73-3.09-0.8-6.2-0.63-9.29c30.78-7.95,77.49-17.34,111.43-20.8    c0.51,1.3,1.31,2.45,1.64,3.84c5.67,23.93-14.91,49.2-45.95,56.45C1831.65,805.87,1801.89,792.35,1796.22,768.43z"></path>			<g class="st70">				<path d="M1752.4,1134.04c26.7-36.1,84.38-47.87,123.92-56.73c6.72,0.78,13.08,1.53,18.2,2.09c0.37,6.02,0.68,11.84,0.94,17.52     c-4.32,35.73-14.35,65.68-31.02,88.21c-8.62,11.65-17.87,19.08-27.2,24.02c-9.49,1.4-19.25,2.15-28.24,2.23     c-37.29,0.29-61.68,0.67-84.48,0.8C1734.57,1176.83,1741.32,1149.02,1752.4,1134.04z"></path>			</g>			<path class="st27" d="M1758.27,1176.72c10.16-45.68,18.51-54.39,35.5-64.58c13.09-7.85,31.95-8.82,45.79-11.35    c58.75,19.78,31.33,96.67,27.02,105.42c-14.74-1.95-19.51,4.63-19.51,4.63c-12.22,59.56-26.7,128.05-30.82,146.08    c-7.41,0.15-78.59-15-82.25-16.19C1737.24,1314.58,1750.51,1211.64,1758.27,1176.72z"></path>			<path class="st64" d="M1824.22,1391.15c-0.17,1.39-98.76-0.18-98.97-1.87c-1.82-14.71-1.22-50.12-1.98-58.65l105.77,7.37    C1827.13,1353.89,1825.45,1381.08,1824.22,1391.15z"></path>			<g>				<path class="st65" d="M1713.95,1380.57c0.77-5.12,2.84-11.73,4.34-17.74c1.11-4.45,42.91-8.67,44.23,1.57     c0.34,2.62,0.5,4.95,0.53,7.07c7.15-0.77,14.88-1.76,23.02-3.02c17.7-2.74,33.46-6.05,44.43-9.14     c2.63,16.12,4.51,44.35,7.28,62.29c0,0-182.02,56.7-214.52,33.15C1614.1,1448.11,1656.86,1408.83,1713.95,1380.57z"></path>				<path class="st66" d="M1836.29,1410.32c0.47,4,0.96,7.86,1.49,11.28c0,0-182.02,56.7-214.52,33.15     c-1.29-0.93-1.53-2.53-0.87-4.64C1675.05,1455.22,1790.93,1423.55,1836.29,1410.32z"></path>				<path class="st45" d="M1728.09,1394.65c0.62,0.65,1.48,0.91,2.3,0.78c0.51-0.08,1.01-0.31,1.41-0.69c1.05-1,1.08-2.66,0.08-3.71     c-8.35-8.73-21.53-12.26-32.07-8.64c-1.37,0.48-2.09,1.97-1.62,3.34c0.47,1.37,1.95,2.07,3.34,1.62     C1710.18,1384.3,1721.11,1387.35,1728.09,1394.65z M1715.68,1402.55c0.6,0.5,1.36,0.69,2.08,0.58c0.61-0.09,1.19-0.4,1.61-0.91     c0.93-1.11,0.78-2.77-0.33-3.7c-9.26-7.75-21.02-10.7-32.25-8.02c-1.41,0.33-2.28,1.74-1.95,3.15c0.33,1.41,1.77,2.38,3.15,1.95     C1693.65,1394.27,1704.75,1393.41,1715.68,1402.55z M1670.75,1402.79c0.41,1.39,1.83,2.22,3.26,1.77     c8.47-2.63,20.38,0.28,28.83,6.79c0.59,0.46,1.32,0.62,2,0.51c0.64-0.1,1.25-0.44,1.68-0.99c0.89-1.15,0.67-2.79-0.47-3.68     c-9.7-7.47-23.46-10.65-33.52-7.66C1671.14,1399.94,1670.34,1401.4,1670.75,1402.79z"></path>			</g>			<path class="st67" d="M1860.15,1212.85c12.46-43.49,5.35-78.1-14.05-94.55c-21.54-18.26-51.89-11.12-66.42,4.52    c-6.6-12.9,34.37-27.42,120.19-50.79c13.91-3.79,74.71,2.14,103.42,4.34c4.94,52.08,6.68,91.86-16.83,116.14    c-13.46,13.9-41.54,17.7-64.21,18.65C1898.69,1212.14,1886.26,1212.22,1860.15,1212.85z"></path>			<path class="st68" d="M1858.55,1079.08c43.9-9.35,74.43-2.7,100.31,21.61c17.92,16.84,54.16,18.13,53.03,1.23    c-1.18-17.71-6.62-57.76-7.48-71.66C1979.82,1030.26,1855.39,1045.08,1858.55,1079.08z"></path>			<path class="st68" d="M1995.51,810.13c15.91,9.2,36.16,49.85,83.28,118.87c-26.97,24.74-106.2,54.64-109.12,54.43    c-26.66-45.5-17.55-184.98-19.79-186.2C1959.44,799.41,1987.11,805.27,1995.51,810.13z"></path>			<g>				<g>					<g>						<g>							<path class="st5" d="M1633.11,1050.2c-10.49-35.79-30.2-269.78-25.85-285.83c38.57,29.23,124.54,43.01,126.96,139.23        L1633.11,1050.2z"></path>							<path class="st71" d="M1632.69,1052.73l-0.65-2.23c-11.09-37.84-29.94-271.35-25.85-286.41l0.42-1.59l1.31,0.99        c9.21,6.97,21.31,13.15,34.09,19.68c40.75,20.79,91.44,46.6,93.29,120.32L1632.69,1052.73z M1608.04,766.32        c-2.72,25.18,14.69,238.54,25.51,281.29l99.54-144.14c-1.97-72.14-51.92-97.84-92.08-118.33        C1628.77,778.89,1617.2,772.98,1608.04,766.32z"></path>						</g>						<g>							<path class="st5" d="M1633.11,1050.2c-10.49-35.79-62.2-243.33-62.33-251.99c80.05-23.39,158.31,54.26,163.43,105.4        c-0.06,0.93-38.82,145.66-41.92,158.96C1680.64,1052.75,1648.88,1042.18,1633.11,1050.2z"></path>							<path class="st71" d="M1692.95,1064.57l-1.38-1.16c-11.9-10.03-43.28-19.7-57.97-12.24l-1.18,0.6l-0.38-1.28        c-10.4-35.49-62.23-243.04-62.38-252.28l-0.01-0.84l0.81-0.23c33.43-9.79,70.17-2.75,103.5,19.7        c33.25,22.43,58.47,58.08,61.34,86.64c-0.02,0.59-2.1,8.43-13.85,52.69C1709.78,1000.14,1692.95,1064.57,1692.95,1064.57z         M1650.71,1046.36c15.14,0.98,32.41,7.88,40.91,14.26c3.02-12.18,40.97-155.05,41.47-157.16        c-2.88-27.95-27.68-62.74-60.37-84.78c-32.47-21.9-68.25-28.88-100.76-19.67c2.24,16.53,51.33,213.06,61.85,249.62        C1638.57,1046.58,1644.47,1045.96,1650.71,1046.36z"></path>						</g>						<g>							<path class="st5" d="M1635.64,1051.61c-10.49-35.79-90.61-212.06-90.74-220.72c106.63-37.92,181.52,35.03,189.32,72.71        c-0.06,0.93-38.82,145.66-41.92,158.96C1680.64,1052.75,1651.41,1043.59,1635.64,1051.61z"></path>							<path class="st71" d="M1692.95,1064.57l-1.38-1.16c-11.35-9.57-40.26-18.52-55.44-10.82l-1.18,0.6l-0.38-1.28        c-5.64-19.22-31.42-79.08-54.16-131.89c-22.67-52.64-36.56-85.11-36.64-89.12l-0.01-0.79l0.76-0.27        c59.87-21.27,105.8-7,133.76,8.73c33.9,19.06,53.32,47.07,57.02,64.92c-0.03,0.4-2.1,8.43-13.85,52.69        C1709.78,1000.14,1692.95,1064.57,1692.95,1064.57z M1654.24,1047.56c13.79,0.89,28.91,6.66,37.38,13.07        c3.02-12.18,40.88-154.73,41.47-157.16c-3.71-17.37-22.74-44.32-55.87-62.97c-27.45-15.44-72.42-29.47-131.1-8.86        c1.58,6.81,18.49,46.08,36.34,87.53c22.3,51.79,47.51,110.35,53.88,130.91C1641.42,1047.82,1647.68,1047.13,1654.24,1047.56z        "></path>						</g>						<g>							<path class="st5" d="M1881.24,1057.5c24.96-33.85,52.4-30.29,51.32-86.7c-0.21-10.67,2.45-124.13,1.91-157.34        c-88.91-5.59-185.15,18.57-205.21,76.75c-0.13,0.93,6.47,149.46,8.09,163.08c20.44-7.9,43.36-12.31,67.59-12.22        C1832.69,1041.17,1858.7,1047.15,1881.24,1057.5z"></path>							<path class="st71" d="M1736.42,1054.82l-0.17-1.41c-1.72-14.52-8.15-162.93-8.09-163.36        c21.04-61.04,121.71-83.01,206.38-77.69l1.02,0.07c0,0-1.96,154.41-1.89,158.36c0.73,38.92-11.96,49.72-28.05,63.4        c-7.31,6.22-15.6,13.26-23.48,23.97l-0.54,0.72l-0.81-0.37c-23.06-10.58-49.32-16.26-75.85-16.32        c-23.52-0.09-46.12,3.99-67.19,12.14L1736.42,1054.82z M1730.37,890.54c0.15,4.81,6,140.42,7.93,161.2        c20.93-7.91,43.34-11.87,66.63-11.78c26.53,0.18,52.8,5.69,75.95,16.15c7.89-10.49,16.07-17.45,23.3-23.61        c15.64-13.3,27.99-23.81,27.26-61.69c-0.07-3.99,2.23-134.8,1.93-156.31C1849.81,809.47,1751.02,831.17,1730.37,890.54z"></path>						</g>						<g>							<path class="st5" d="M1881.24,1057.5c24.96-33.85,42.9-65.77,70.02-97.96c6.94-8.24-1.35-89.88-3.25-119.67        c-52.95-17.76-176.47-21.46-218.76,50.34c-0.13,0.93,6.47,149.46,8.09,163.08c20.44-7.9,43.36-12.31,67.59-12.22        C1832.69,1041.17,1858.7,1047.15,1881.24,1057.5z"></path>							<path class="st71" d="M1736.42,1054.82l-0.17-1.41c-1.72-14.52-8.15-162.93-8.09-163.36l0.11-0.41        c42.81-72.63,166.48-68.85,220.11-50.82l0.7,0.23c0,0,1.02,14.36,1.72,23.2c3.79,47.95,6.74,91.55,1.3,97.99        c-16.52,19.62-29.4,38.79-43.04,59.08c-8.46,12.59-17.2,25.62-26.92,38.82l-0.54,0.72l-0.81-0.37        c-23.06-10.58-49.32-16.26-75.85-16.32c-23.52-0.09-46.12,3.99-67.19,12.14L1736.42,1054.82z M1730.37,890.54        c0.19,5.29,6.01,140.47,7.93,161.2c20.93-7.91,43.34-11.87,66.63-11.78c26.53,0.18,52.8,5.69,75.95,16.15        c9.48-12.9,18.05-25.66,26.35-38.01c13.66-20.35,26.57-39.56,43.17-59.29c5.29-6.28,0.86-62.69-1.81-96.38        c-0.66-8.5-1.26-16.02-1.64-21.76C1893.65,823.09,1772.48,819.51,1730.37,890.54z"></path>						</g>						<g>							<path class="st5" d="M1881.24,1057.5c24.96-33.85,58.35-66.5,85.48-98.7c6.94-8.24-3.79-66.96-3.79-80.66        c-40.66-35.99-150.9-62.39-233.67,12.07c-0.13,0.93,6.47,149.46,8.09,163.08c20.44-7.9,43.36-12.31,67.59-12.22        C1832.69,1041.17,1858.7,1047.15,1881.24,1057.5z"></path>							<path class="st71" d="M1736.42,1054.82l-0.17-1.41c-1.72-14.52-8.15-162.93-8.09-163.36l0.11-0.41        c86.13-77.48,197.65-45.75,235.4-12.35l0.38,0.83c-0.01,4.24,1.05,12.98,2.27,23.11c3.46,28.59,5.94,52.71,1.24,58.28        c-10.36,12.28-21.86,24.9-32.97,37.1c-18.21,19.97-37.05,40.63-52.45,61.53l-0.54,0.72l-0.81-0.37        c-23.06-10.58-49.32-16.26-75.85-16.32c-23.52-0.09-46.12,3.99-67.19,12.14L1736.42,1054.82z M1730.37,890.54        c0.29,7.61,6.03,140.65,7.93,161.2c20.93-7.91,43.34-11.87,66.63-11.78c26.53,0.18,52.8,5.69,75.95,16.15        c15.37-20.73,34.03-41.19,52.07-60.98c11.1-12.19,22.58-24.78,32.91-37.05c4.46-5.28,0.73-36.14-1.74-56.57        c-1.18-9.83-2.22-18.36-2.29-22.88C1924.29,845.82,1815.13,814.68,1730.37,890.54z"></path>						</g>						<path class="st72" d="M1750.67,889.88c1.68,3.23-14,13.86-29.58,14.03c-15.58,0.16-28.24-9.79-28.42-13.42       C1692.58,888.75,1749.97,888.53,1750.67,889.88z"></path>						<path class="st73" d="M1995.51,1102.58c-6.56-51.63-12.25-148.36-19-201.94c-65.03-59.31-201.05-29.33-225.4-14.87l-1.88,1.23       c-15.66,12.66-45.95,10.48-54.97-0.11c-20.26-23.8-87.45-58.74-149.68-22.77c0.15,0.39-2.33,5.08-2.17,5.48       c16.92,43.93,70.59,169.15,91.56,214.22c17.15-21.58,99.97-16.31,129.88,15.01c2.89,7.69,29.32,11.41,42.31,1.51       c94.41-37.19,161.33-6.66,185.51,4.31C1992.18,1104.88,1995.02,1102.35,1995.51,1102.58z"></path>						<path class="st74" d="M1633.47,1086.04c-20.96-45.05-74.83-174.09-91.07-216.45c65.78-39.12,138.86,1.21,153.61,25.15       c-0.06,0.93,69.23,192.87,66.13,206.16C1732.5,1069.88,1650.46,1064.67,1633.47,1086.04z"></path>						<path class="st75" d="M1737.74,1069.07l-3.34,2.03c-24.7-21-76.2-20.56-98.13-4.91l-3.06-0.83       c-17.04-37.69-59.29-142.13-71.56-175.14l0.84-2.47c27.66-16.85,55.02-15.1,73.12-10.67c25.04,6.15,44.76,20.42,51.29,31.3       c0,0,6.37,19.92,13.1,40.92L1737.74,1069.07z M1679.84,1050.63c18.63-0.19,38.12,4.04,52.28,13.57       c-5.59-18.85-48.26-151.75-48.84-153.9c-6.07-9.89-25.09-23.44-48.65-29.24c-16.99-4.2-42.56-5.87-68.52,9.32       c12.72,33.94,52.52,132.33,69.86,171.06C1646.78,1054.63,1662.95,1050.81,1679.84,1050.63z"></path>						<path class="st74" d="M1991.65,1104.63c-6.5-51.15-12.14-146.98-18.82-200.06c-64.43-58.76-199.11-28.61-223.24-14.28       c-0.13,0.93,51.78,198.82,53.39,212.44C1899.12,1064.42,1969.11,1094.29,1991.65,1104.63z"></path>						<path class="st75" d="M1970.25,1081.76c-20.44-9.34-75.76-28.15-147.9-1.46l-2.75-1.68c-0.88-7.31-21.03-85.11-33.06-131.58       c-9.34-36.04-9.34-36.04-9.23-36.68l0.98-1.47c19.27-11.39,127.05-35.95,179.28,11.52l0.66,1.26       c2.67,21.06,5.13,50.96,7.54,79.86c2.36,28.52,4.8,58,7.36,78.09L1970.25,1081.76z M1823.23,1075.62       c26.2-9.41,50.2-12.94,71.14-13.16c34.09-0.36,60.05,8.04,74.23,14.08c-2.41-20-4.71-47.76-6.94-74.67       c-2.36-28.5-4.8-57.99-7.42-78.91c-49.61-44.18-152.35-21.45-172.54-11.23c1.06,4.3,4.56,17.82,8.83,34.3L1823.23,1075.62z"></path>						<path class="st76" d="M1762.14,1100.91c2.86,7.61,29.06,11.37,41.93,1.56c-0.47-3.11-53.39-212.58-53.39-212.58       c-15.36,13.6-49.24,11.52-58,0.61L1762.14,1100.91z"></path>					</g>					<path class="st77" d="M1756.79,914.12l-1.03,0.91c-8.87,7.86-23.45,9.68-34.27,8.77c-9.21-0.77-16.85-3.65-20.3-7.51l2.2,6.66      c4.59,2.53,10.67,4.34,17.76,4.95c1.93,0.17,3.99,0.25,6.13,0.23c10.38-0.11,22.42-2.7,30.63-9.61      C1757.52,917.01,1757.15,915.53,1756.79,914.12z M1796.41,1071.48c-8.81,5.21-20.55,6.68-29.75,5.89      c-5.05-0.43-9.59-1.51-13.29-3.01l1.6,4.84c3.42,1.07,7.16,1.92,11.33,2.27c1.95,0.17,4.02,0.25,6.16,0.22      c8.22-0.09,17.45-1.76,25.04-5.85C1797.15,1074.44,1796.78,1072.96,1796.41,1071.48z"></path>				</g>				<path class="st27" d="M1891.73,1020.24c0.61,2.74,1.34,8.51,21.9,11.89c3.4,0.56-16.09,0.41-13.36,3.49     c7.63,8.58,21.59,22.13,46.76,26.82c60.29,11.24,88.3-10.34,94.08-24.02c4.07-9.63-11.57-64.29-58.53-74.62     c-0.04,7.03,3.8,30.07-0.57,32.11c-5.98,2.79-21.57-3.74-37.16-6.01c-32.87-4.78-56.56,2.57-50.06,11.83     c2.24,3.19,55.87,14.47,55.99,16.43C1950.89,1020.14,1891.27,1018.18,1891.73,1020.24z"></path>			</g>			<g>				<path class="st27" d="M1639,535.34c36.55-4.5,70.87,31.14,76.64,79.33c5.76,48.19-1.82,89.05-38.38,93.43     c-36.56,4.37-84.66-27.65-96.96-77.75C1568.76,583.26,1589.04,541.49,1639,535.34z"></path>				<path class="st46" d="M1625.82,649.23c7.21,20.02,27.36,31.1,45.03,24.75c17.65-6.35,26.13-27.74,18.92-47.76     c-7.2-20.02-27.36-31.1-45.01-24.75C1627.09,607.82,1618.62,629.21,1625.82,649.23z"></path>				<path class="st27" d="M2067.23,535.34c-36.55-4.5-70.87,31.14-76.64,79.33c-5.76,48.19,1.82,89.05,38.38,93.43     c36.56,4.37,84.66-27.65,96.96-77.75C2137.47,583.26,2117.19,541.49,2067.23,535.34z"></path>				<path class="st46" d="M2080.41,649.23c-7.21,20.02-27.36,31.1-45.03,24.75c-17.65-6.35-26.13-27.74-18.91-47.76     c7.2-20.02,27.36-31.1,45.01-24.75C2079.14,607.82,2087.61,629.21,2080.41,649.23z"></path>				<path class="st78" d="M1606.35,444.63c-15.33,169.65,108,279.51,247.93,276.79c139.94-2.72,252.79-128.29,235.4-292.86     c-9.65-91.38-104.5-171.27-238.16-167.8C1711.61,264.41,1617.25,323.98,1606.35,444.63z"></path>				<path class="st27" d="M2052.04,420.83c-30.38-84.42-103.61-85.63-199.48-85.63c-95.87,0-169.1,1.2-199.48,85.63     c-9.16,25.46-1.27,235.45,24.96,282.53c22.18,39.78,107.35,78.88,166.75,78.88c2.48,0,13.07,0,15.55,0     c59.4,0,144.57-39.1,166.75-78.88C2053.31,656.29,2061.2,446.3,2052.04,420.83z"></path>				<path class="st53" d="M1680.51,651.65c-0.58,9.82,12.59,18.58,29.42,19.58c16.82,1,30.94-6.15,31.52-15.97     c0.58-9.81-12.59-18.58-29.42-19.58C1695.21,634.68,1681.09,641.83,1680.51,651.65z"></path>				<path class="st53" d="M1960.94,656.1c0.79,9.8,15.06,16.64,31.86,15.28c16.8-1.36,29.78-10.41,28.99-20.21     c-0.79-9.8-15.06-16.64-31.86-15.28C1973.13,637.25,1960.15,646.3,1960.94,656.1z"></path>				<g>					<path class="st54" d="M1933.95,663.26c-3.23-16.81-29.06-12.45-71.25-12.74c-2.21-0.02-10.79-0.02-13,0      c-42.19,0.28-68.02-4.07-71.24,12.74c-6.21,32.37,34.52,67.73,77.37,67.86h0.74C1899.42,730.99,1940.15,695.63,1933.95,663.26z      "></path>					<path class="st55" d="M1856.57,731.79h-0.74c-13.9-0.05-28.31-3.99-41.72-11.36l-0.82-0.43l0.69-0.61      c11.13-9.98,26.13-15.49,42.23-15.49c16.07,0,31.07,5.5,42.23,15.49l0.69,0.61l-0.82,0.43      C1884.87,727.8,1870.44,731.74,1856.57,731.79z"></path>					<path class="st5" d="M1856.21,672.11c-29.48,0-54.03-9.13-57.1-21.27l-0.18-0.74h114.55l-0.18,0.74      C1910.21,662.98,1885.66,672.11,1856.21,672.11z"></path>				</g>				<path class="st56" d="M1834.55,629.96c1.09-0.02,2.03-0.82,2.19-1.93c1.15-7.88,7.26-13.08,15.57-13.24     c8.36-0.16,14.81,4.89,16.06,12.57c0.2,1.23,1.37,2.07,2.59,1.87c1.23-0.2,2.07-1.36,1.87-2.59     c-1.6-9.84-10.08-16.57-20.61-16.37c-10.47,0.21-18.49,7.08-19.96,17.11c-0.18,1.24,0.68,2.38,1.91,2.57L1834.55,629.96z"></path>				<path class="st78" d="M1568.17,529.05c29.07-10.3,47.21-29.08,48.86-76.47c-16.77-3.59-24.76-8.5-40.94-13.88     c62.85-15.9,53.6-105.63,135.65-143.14c134.5-50.87,257.13-13.48,292.46,7.07c65.11,37.87,73.13,88.92,77.82,146.13     c9,51.83,20.55,67.17,47.65,78.96c-29.14,8.44-46.39,0.87-56.26-9.2c2.89,32.62,18.05,42.95,34.81,57.4     c-45.49,2.31-70.82-35.68-79.01-68.5c-9.1-36.45,5.11-76.62-0.63-90.89c-3.32-8.26-33.28-55.99-45.84-56.35     c-27.38-0.79-57.44,94.34-154.35,92.79c39.12-21.06,60.46-50.86,82-93.34c-7.6,4.53-15.22,10.03-22.77,16.72     c-79.53,70.45-164.58,80.57-232.94,74.68c11.3,55.54,27.89,113.75-58.49,140.28c7.84-9.7,19.28-38.82,20.96-61.84     C1607.88,535.22,1590.93,540.24,1568.17,529.05z"></path>				<path class="st79" d="M1694.47,489.95c-1.95,0.02-3.89-0.76-5.3-2.31c-2.64-2.89-2.44-7.36,0.45-10     c21-19.16,59.03-24.84,90.41-13.53c3.69,1.34,5.59,5.39,4.26,9.07c-1.34,3.69-5.4,5.6-9.07,4.26c-26.3-9.51-59-4.93-76.05,10.66     C1697.84,489.32,1696.15,489.94,1694.47,489.95z"></path>				<path class="st79" d="M2008.65,489.95c1.95,0.02,3.89-0.76,5.3-2.31c2.64-2.89,2.44-7.36-0.45-10     c-21-19.16-59.03-24.84-90.41-13.53c-3.68,1.34-5.59,5.39-4.26,9.07c1.34,3.69,5.4,5.6,9.07,4.26c26.3-9.51,59-4.93,76.05,10.66     C2005.29,489.32,2006.97,489.94,2008.65,489.95z"></path>				<g>					<path class="st58" d="M1903.53,614.56c0,0,67.49,21.53,93.18-14.02c31.31-43.32-16.66-77.5-47.76-70.81      C1920.18,535.93,1894.06,560.88,1903.53,614.56z"></path>					<path class="st59" d="M2001.77,545.27c-12.51-15.72-29.32-20.67-47.56-18.84c-18.64,1.87-37.51,15.1-42.84,28.74      c10.02-15.37,27.3-21,38.05-23.31c17.13-3.71,39.6,3.98,49.71,19.46c8.99,13.77,8.24,34.44-3.26,50.33      C2009.45,590.86,2014.8,561.66,2001.77,545.27z"></path>					<path class="st60" d="M1918.87,569.21c-6.19,15.56,1.41,33.2,16.98,39.39c15.56,6.19,33.2-1.41,39.39-16.97      c6.19-15.56-1.41-33.2-16.97-39.39C1942.69,546.04,1925.06,553.64,1918.87,569.21z"></path>					<path class="st61" d="M1921.32,564.38c-1.72,4.32,0.39,9.21,4.71,10.93c4.32,1.72,9.21-0.39,10.93-4.71      c1.72-4.32-0.39-9.21-4.71-10.93C1927.93,557.96,1923.04,560.06,1921.32,564.38z"></path>				</g>				<g>					<path class="st58" d="M1801.61,614.89c0,0-67.48,21.57-93.2-13.96c-31.34-43.29,16.61-77.51,47.71-70.84      C1784.9,536.26,1811.04,561.2,1801.61,614.89z"></path>					<path class="st59" d="M1703.32,545.66c12.5-15.73,29.31-20.69,47.54-18.87c18.64,1.86,37.52,15.07,42.86,28.71      c-10.03-15.36-27.31-20.98-38.07-23.28c-17.13-3.69-39.6,4.01-49.7,19.5c-8.98,13.78-8.21,34.44,3.29,50.33      C1695.67,591.25,1690.29,562.06,1703.32,545.66z"></path>					<path class="st60" d="M1731.34,569.91c-6.19,15.56,1.41,33.2,16.98,39.39c15.56,6.19,33.2-1.41,39.39-16.98      c6.19-15.56-1.41-33.2-16.98-39.39C1755.17,546.74,1737.53,554.34,1731.34,569.91z"></path>					<path class="st61" d="M1733.8,565.08c-1.72,4.32,0.39,9.21,4.71,10.93c4.32,1.72,9.21-0.39,10.93-4.71      c1.72-4.32-0.39-9.21-4.71-10.93C1740.41,558.66,1735.51,560.77,1733.8,565.08z"></path>				</g>			</g>		</g>		<g>			<path class="st80" d="M1175.15,2198.39c0,0,3.65,4.42,4.93,28.77c47.26-44.96,60.1-139.17,51.73-345.21l-495.4-5.41    c-15.16,240.17-43.58,328.52,53.3,372.16c1.36-5.09,1.58-33.12,5.19-38.51c2.02,15.54,9.21,37.59,12.11,42.35    c65.28,11.57,252.95,22.28,308.11,7.79c19.16-5.04,35.66-11.68,49.76-21.07C1168.46,2211.62,1175.15,2198.39,1175.15,2198.39z"></path>			<path class="st81" d="M942.46,2724.36c2.67-1.69,61.42,21.11,86.04,26.64c30.45,6.84,107.17-18.71,93.93-31.77    c-28.13-27.75-142.24-63.83-159.91-55.3c-32.95,15.9-110.61,35.61-111.93,61.94c-0.66,13.13,43.22,25.61,61.9,15.93    C926.76,2734.39,934.22,2729.58,942.46,2724.36z"></path>			<path class="st81" d="M1140.73,2665.6c0,11.27-72.25,20.4-161.37,20.4c-89.12,0-161.37-9.13-161.37-20.4s72.25-20.4,161.37-20.4    C1068.48,2645.2,1140.73,2654.34,1140.73,2665.6z"></path>			<path class="st82" d="M1184.87,2510.14c-14.1-7.89-41.48-13.09-72.73,8.37c-18.99,1.1-257.88,8.82-276.87,7.72    c-31.24-21.46-58.94-16.81-72.73-8.37c-15.52,9.49-34.48,37.4-20.02,69.62c13.29,29.61,100.07,80.88,127.03,82.05    c25.92,1.13,180.04,1.13,205.96,0c26.96-1.17,116.57-56.1,129.87-85.71C1219.86,2551.6,1202.08,2519.77,1184.87,2510.14z"></path>			<path class="st83" d="M739.99,2337.49c22.92,13.69,71.22,45.19,96.9,52.88c34.4-44.03,66.75-178.37,66.72-182.63    c-30.2,1.91-65.29,5.89-74.99,11.15C811.4,2241.55,764.66,2300.55,739.99,2337.49z"></path>			<path class="st83" d="M1220.33,2338.15c-22.92,13.7-71.22,45.19-96.9,52.88c-34.39-44.04-66.75-178.37-66.72-182.64    c30.2,1.91,65.29,5.89,74.99,11.15C1148.92,2242.21,1195.66,2301.21,1220.33,2338.15z"></path>			<path class="st84" d="M1138.52,2505.88c-1.64-2.6-5.18-9.06-6.83-11.93c-53.07,0.99-254.22,6.49-311.19,7.87    c-0.86,5.52-1.69,10.21-3,14.85C881.59,2563.05,1005.54,2603.69,1138.52,2505.88z"></path>			<path class="st83" d="M817.51,2516.68c78.66,46.42,225.15,54.58,321.02-10.79c0,0-25.55-228.68-37.81-289.71    c-66.13-18.25-189.39-13.2-249.94-2.9C841.99,2291.13,827.79,2401.69,817.51,2516.68z"></path>			<path class="st27" d="M1050.81,2218.88c0.18-3.94-0.49-7.74-1.43-11.48c-40.47-2.73-101.25-3.61-144.6-0.16    c-0.33,1.7-1.05,3.29-1.13,5.06c-1.36,30.48,30.48,56.67,71.12,58.48C1015.4,2272.6,1049.45,2249.36,1050.81,2218.88z"></path>			<path class="st27" d="M1029.24,2134.41l-0.93,86.1c-0.2,18.51-23.89,33.27-52.92,32.95c-29.03-0.31-52.4-15.58-52.19-34.1    l0.93-86.1L1029.24,2134.41z"></path>			<path class="st85" d="M1042.23,2175.68c0.16-3.52-0.44-6.92-1.28-10.26c-36.17-2.44-90.49-3.23-129.24-0.14    c-0.29,1.52-0.94,2.94-1.01,4.52c-1.22,27.24,27.24,50.65,63.56,52.27C1010.58,2223.69,1041.01,2202.92,1042.23,2175.68z"></path>			<g>				<g>					<g>						<path class="st86" d="M1176.79,2506.95c6.12-24.88,24.57-177.41,30.2-216.47c-52.35-11.86-173.02-1.31-221.73,91.41       c-0.03,0.89,38.38,120.97,41.37,133.7C1045.26,2506.22,1154.2,2499.27,1176.79,2506.95z"></path>						<path class="st87" d="M1026.48,2516.28l-0.2-0.44c-1.93-8.2-18.97-62.04-30.23-97.74c-9.64-30.59-11.21-35.64-11.2-36       c26.99-51.36,74.61-74.83,109.76-85.28c44.95-13.37,88.64-11.71,112.37-6.33l0.32-0.03c0,0-4.74,35.18-8.15,61.49       c-7.55,58.29-17.9,138.12-22.15,155.39l-0.09,0.38l-0.29-0.1C1155.15,2500.31,1045.64,2506.64,1026.48,2516.28z        M985.52,2382.21c0.39,1.46,38.9,123.41,41.28,132.92c10.24-4.88,44.05-8.71,73.33-10.47c27.44-1.64,63.73-2.09,76.37,2       c4.29-17.97,14.54-97.04,22.03-154.88c3.37-25.99,6.28-48.47,8.02-60.58C1157.74,2280.3,1035.09,2288.11,985.52,2382.21z"></path>					</g>					<g>						<path class="st88" d="M1210.48,2433.87c0.97-2.21,7.93-99.92,9.8-117.87c-48.35-21.35-171.91-13.54-235.99,67.08       c-0.03,0.89,39.34,119.78,42.33,132.5C1045.26,2506.22,1184.82,2449.33,1210.48,2433.87z"></path>						<path class="st87" d="M1026.48,2516.28l-0.2-0.44c-1.96-8.33-19.66-62.87-31.4-98.88c-9.49-29.1-10.91-33.54-10.9-33.9       c28.29-35.59,72.45-61.42,124.16-72.2c41.93-8.73,85.98-6.89,112.24,4.72l0.27,0.12c0,0-2.61,30.83-4.47,54.8       c-3.01,38.76-4.87,62.38-5.42,63.62c-16.42,9.9-80.8,37.42-127.69,57.4c-26.62,11.33-49.61,21.13-56.32,24.5L1026.48,2516.28z        M984.67,2383.25c0.47,1.63,39.68,122.17,42.13,131.88c7.07-3.51,28.77-12.85,56.08-24.48       c46.77-19.92,110.79-47.19,127.37-57.12c0.6-2.6,3.09-34.74,5.3-63.16c1.83-23.59,3.56-45.89,4.39-54.06       c-26.2-11.45-69.98-13.26-111.68-4.56C1056.75,2322.48,1012.87,2347.86,984.67,2383.25z"></path>					</g>					<g>						<path class="st86" d="M813.63,2507.56c-21.26-34.18-10.08-65.12-33.53-97.93c-6-8.39-14.34-77.16-21.22-116.17       c51.97-12.28,165.03-6.64,224.52,87.41c0.06,0.89-29.34,122.26-31.93,135.01c-18.92-9.22-40.49-15.36-63.66-17.35       C861.29,2496.26,835.97,2499.7,813.63,2507.56z"></path>						<path class="st87" d="M951.7,2516.48l-0.33-0.16c-19.61-9.56-41-15.39-63.57-17.32c-25.47-2.18-51.11,0.92-74.08,9.01       c-10.29-16.55-13.38-32.63-16.04-48.04c-2.94-17.02-5.72-33.09-17.81-50c-4.21-5.9-9.5-40.69-14.61-74.33       c-2.35-15.43-6.77-42.51-6.77-42.51l0.34-0.08c24.9-5.89,66.74-7.96,109.55,3.83c49.37,13.6,89.21,42.54,115.25,83.71       c0.03,0.41-1.78,8.71-11.85,50.81C963.53,2465.87,951.7,2516.48,951.7,2516.48z M871.15,2497.41       c5.55-0.02,11.11,0.2,16.68,0.68c22.51,1.93,43.84,7.73,63.42,17.22c1.77-8.42,31.31-131.89,31.79-134.3       c-56.55-89.19-164.62-101.02-223.76-87.18c2.1,11.98,4.29,26.38,6.61,41.61c5.1,33.52,10.36,68.17,14.44,73.87       c12.22,17.09,15.15,34.04,17.98,50.44c2.63,15.24,5.35,30.99,15.43,47.29C831.72,2500.76,851.29,2497.49,871.15,2497.41z"></path>					</g>					<g>						<path class="st88" d="M781.42,2439.58c-1.04-2.21-29.58-102.17-33.79-120.87c50.58-26.04,167.8-22.06,235.78,62.16       c0.06,0.89-29.34,122.26-31.93,135.01C932.55,2506.67,807.57,2454.83,781.42,2439.58z"></path>						<path class="st87" d="M951.7,2516.48l-0.33-0.16c-6.45-3.14-24.88-11.09-48.21-21.15c-44.15-19.04-104.61-45.11-121.86-55.17       c-0.92-1.94-29.5-101.25-33.98-121.16l-0.09-0.4l0.28-0.15c27.4-14.11,70.13-18.04,111.53-10.29       c35.49,6.65,85.93,24.66,124.61,72.57c0.03,0.41-1.78,8.71-11.85,50.81C963.53,2465.87,951.7,2516.48,951.7,2516.48z        M781.64,2439.23c17.36,10.09,77.65,36.08,121.7,55.08c22.96,9.9,41.18,17.75,47.91,21.01c1.77-8.42,31.27-131.72,31.79-134.3       c-38.53-47.61-88.74-65.49-124.1-72.12c-41.15-7.7-83.61-3.83-110.93,10.09C752.73,2339.52,780.1,2435.05,781.64,2439.23z"></path>					</g>					<path class="st89" d="M742.47,2351.13c1.88-2.02,2.37-2.45,4.63-4.57c84.89-21.69,158.81-1.62,206.37,34.25      c1.83,13.8,9.06,154.63,5.97,172.5C891.61,2533.07,803.09,2337.89,742.47,2351.13z"></path>					<path class="st89" d="M1229.99,2351.13c-1.88-2.02-2.37-2.45-4.63-4.57c-84.89-21.69-158.81-1.62-206.37,34.25      c-1.83,13.8-9.05,154.63-5.97,172.5C1080.86,2533.07,1169.38,2337.89,1229.99,2351.13z"></path>					<path class="st9" d="M1178.79,2544.56c13.58-55.05,37.11-133.85,51.2-193.43c-85.9-26.37-162.65-1.14-210.2,33.69      c-1.82,13.41-12.78,154.09-9.68,171.44C1077.94,2536.61,1118.17,2531.69,1178.79,2544.56z"></path>					<path class="st75" d="M1031.72,2535.29c-0.37-0.24-0.61-0.64-0.69-1.1c-2.53-14.12,6.42-127.48,7.68-136.85      c0.06-0.46,0.31-0.87,0.65-1.14c47.46-34.71,110.39-44.81,168.43-27.01c0.82,0.25,1.3,1.14,1.08,2.02      c-6.14,25.91-14.5,56.38-22.59,85.84c-6.81,24.75-13.23,48.12-18.12,67.94c-0.2,0.86-1.04,1.39-1.81,1.22      c-49.72-10.52-82.63-5.44-133.39,9.27l-0.41,0.07C1032.27,2535.56,1031.98,2535.47,1031.72,2535.29z M1165.51,2522.63      c4.85-19.53,11.13-42.37,17.76-66.51c7.93-28.84,16.13-58.65,22.2-84.16c-56.53-16.89-117.57-6.96-163.76,26.58      c-1.83,15.09-9.36,114.37-7.83,133.24c31.82-9.17,56.73-14.5,83.38-14.5C1132.28,2517.28,1147.86,2518.97,1165.51,2522.63z"></path>					<path class="st9" d="M793.68,2544.56c-13.57-55.05-37.1-133.85-51.2-193.43c85.9-26.37,162.65-1.14,210.2,33.69      c1.82,13.41,12.78,154.09,9.68,171.44C894.53,2536.61,854.3,2531.69,793.68,2544.56z"></path>					<path class="st75" d="M939.92,2535.56l-0.41-0.07c-50.76-14.71-83.66-19.8-133.39-9.27c-0.78,0.17-1.61-0.36-1.82-1.22      c-4.89-19.82-11.32-43.19-18.12-67.94c-8.09-29.47-16.45-59.93-22.59-85.84c-0.22-0.88,0.27-1.77,1.08-2.02      c58.04-17.8,120.97-7.7,168.43,27.01c0.35,0.27,0.59,0.68,0.65,1.14c1.27,9.37,10.21,122.74,7.69,136.85      c-0.08,0.46-0.33,0.86-0.69,1.1C940.49,2535.47,940.2,2535.56,939.92,2535.56z M855.21,2517.28c26.64,0,51.56,5.33,83.38,14.5      c1.53-18.87-5.99-118.15-7.83-133.24c-46.19-33.54-107.23-43.47-163.76-26.58c6.07,25.51,14.27,55.33,22.2,84.16      c6.63,24.14,12.9,46.98,17.76,66.51C824.61,2518.97,840.19,2517.28,855.21,2517.28z"></path>					<path class="st72" d="M1019.35,2384.63c0.04,2.73-13.96,8.26-32.84,8.34c-18.88,0.08-34.28-5.45-33.84-8.15      c0.32-1.9,15-6.61,33.88-6.69C1005.43,2378.05,1019.32,2383.09,1019.35,2384.63z"></path>					<path class="st89" d="M953.39,2402.52c-0.14-8.57-0.72-16.64-0.78-22.36c25.05,6.28,44,6.7,66.74,0.38      c0.36,3.78-1.53,20.15-1.07,24.65C1002.02,2412.51,967,2414.95,953.39,2402.52z"></path>					<path class="st6" d="M962.35,2556.26c-2.02-46.75-7.4-114.62-9.68-171.44c24.81,4.72,43.93,5.95,66.68-0.19      c0.05,13.56-1.56,141.35-2.89,169.81C1007.15,2562.88,975.96,2564.05,962.35,2556.26z"></path>					<g>						<path class="st77" d="M1019.13,2410.35c0.02-1.62,0.03-3.17,0.05-4.68c-5.27,5.05-18.6,8.56-35.7,8.56       c-12.34,0-22.72-1.85-29.66-4.75c0.07,1.34,0.14,2.71,0.22,4.06c0.41,0.18,0.71,0.37,1.21,0.53       c7.47,2.48,17.5,3.84,28.24,3.84C997.56,2417.92,1011.37,2415.42,1019.13,2410.35z"></path>						<path class="st77" d="M986.83,2541.1c11.1,0,22.2-1.48,30.21-4.59c0.03-1.3,0.07-2.64,0.1-4.03       c-6.93,3.03-17.66,4.94-30.32,4.94c-10.18,0-18.86-1.35-25.59-3.4c0.07,1.26,0.15,2.63,0.22,3.87       C968.57,2539.87,977.27,2541.1,986.83,2541.1z"></path>					</g>				</g>				<path class="st27" d="M1169.5,2445.41c-6.88-4.22-21.69-14.98-28.34-6.99c-2.74,3.29,10.73,12.92,23.45,22.29     c4.25,3.13,6.59,2.49,20.62,8.32c-0.26,1.42-8.16,0.69-17.13-3.13c-4.88-2.08-15.35-17.01-24.99-8.15     c-1.65,1.52,14.1,17.22,17.83,20.84c5.95,5.78,46.84,26.9,49.63,26.96c11.7,0.27,21.83-7.39,26.43-22.41     c2.24-12.17-3.39-46.32-15.42-67.25c-13.57-8.65-23.72-12.9-34.14-17.6c-30.73-6.72-44.96-11.27-45.67-5.16     c-1.67,14.62,23.18,19.56,35.54,23.57c9.55,4.02,19.24,10.29,23.8,13.64c-0.17,2.63-15.98-6.32-25.27-10.2     c-7.84-2.71-35.84-10.22-36.84-4.77c-2.7,14.63,11.06,13.52,30.75,22.61c7.56,4.11,20.92,13.2,21.28,14.75     C1188.65,2453.97,1184.3,2451.71,1169.5,2445.41z"></path>				<path class="st27" d="M806.41,2444.5c6.65-4.58,20.85-16.13,27.92-8.51c2.92,3.14-10.01,13.49-22.21,23.53     c-4.08,3.36-6.45,2.84-20.14,9.43c0.33,1.41,8.18,0.24,16.93-4.05c4.76-2.34,14.41-17.82,24.51-9.49     c1.73,1.43-13.15,17.96-16.68,21.78c-5.63,6.1-45.32,29.39-48.1,29.61c-11.67,0.91-22.2-6.2-27.6-20.94     c-2.9-12.03,0.88-46.44,11.76-67.99c13.08-9.37,22.98-14.16,33.13-19.42c30.32-8.38,44.29-13.69,45.32-7.63     c2.46,14.51-22.08,20.78-34.22,25.46c-9.31,4.53-18.66,11.31-23.03,14.91c0.32,2.61,15.61-7.17,24.68-11.56     c7.68-3.13,35.24-12.14,36.53-6.76c3.49,14.47-10.31,14.1-29.48,24.25c-7.32,4.51-20.17,14.31-20.45,15.88     C787.75,2454.08,791.98,2451.58,806.41,2444.5z"></path>			</g>			<path class="st27" d="M923.67,2626.09c-2,1.09,29.57,67.86,32.15,66.87c16.68-6.41,147.67-62.66,218.95-93.2    c24.9-10.67,36.12-39.66,24.99-64.36c-11.59-25.7-42.56-36.11-67.31-22.61C1061.48,2551.52,934.56,2620.18,923.67,2626.09z"></path>			<g>				<path class="st64" d="M883.35,2638.75l44.77,84.26c14.41-9.2,99.6-59.79,113.37-66.4l-45.92-75.44     c-6.51,4.28-24.59,15.7-33.32,21.35C956.12,2606.5,886.46,2635.31,883.35,2638.75z"></path>				<path class="st90" d="M902.2,2740.12c-43.38-4.63-67.39-54.62-52.04-79.64c3.8-6.2,14.87-13.44,20.12-16.94     c20.81,5.85,57.7,71.54,52.16,87.73C919.59,2733.13,905.89,2740.13,902.2,2740.12z"></path>				<path class="st83" d="M919.15,2732.59c-44-0.98-79.19-55.38-48.87-89.05c12.59-8.19,30.69-14.69,72.01-31.82     c3.75-1.82,20.22-11.96,24.56-14.65c24.7,8.19,53.57,59.29,43.43,78.15c-4.71,2.71-11.71,6.65-19.46,11.73     C950.55,2713.35,927.33,2732.77,919.15,2732.59z"></path>				<path class="st5" d="M939.44,2635.72c5.43,1.28,12.47,7.46,17.9,15.79c0.19,0.26,0.38,0.54,0.56,0.82     c5.26,8.32,7.74,17.05,6.86,23.55c-0.08,0.63,0.07,1.29,0.4,1.82c0.34,0.54,0.87,0.94,1.49,1.12c1.22,0.32,2.38-0.48,2.58-1.78     c1.13-7.78-1.67-17.64-7.67-27.14l-0.6-0.95c-6.23-9.49-14.23-16.39-20.91-17.97c-1.23-0.29-2.38,0.54-2.54,1.85     C937.35,2634.08,938.22,2635.4,939.44,2635.72z M924.01,2641.47c0.34,0.54,0.87,0.94,1.48,1.11c11.69,3.06,28.35,27,26.47,41.99     c-0.19,1.27,0.69,2.59,1.93,2.89c1.23,0.29,2.38-0.54,2.54-1.85c2.27-17.91-16.41-44.14-30.23-47.73     c-1.23-0.33-2.41,0.46-2.59,1.77C923.52,2640.28,923.67,2640.94,924.01,2641.47z M942.16,2695.2     c1.95-18.37-17.47-45.82-31.58-49.86c-1.21-0.36-2.39,0.41-2.6,1.69c-0.22,1.31,0.58,2.64,1.81,2.98     c11.94,3.46,29.49,28.76,27.89,44.23c-0.05,0.62,0.09,1.22,0.41,1.72c0.36,0.57,0.93,0.99,1.59,1.13     C940.91,2697.36,942.04,2696.5,942.16,2695.2z"></path>			</g>			<path class="st27" d="M1020.57,2641.96c1.97,1.15-31.71,66.89-34.26,65.82c-16.47-6.94-145.6-67.31-215.89-100.09    c-24.55-11.45-34.84-40.79-22.93-65.12c12.39-25.32,43.68-34.74,67.99-20.46C885.19,2563.06,1009.87,2635.71,1020.57,2641.96z"></path>			<g>				<path class="st64" d="M1080.71,2643.76l-30.21,90c-15.64-6.68-107.48-42.46-122.07-46.7l32.77-81.53     c7.09,3.14,26.69,11.4,36.17,15.53C1004.04,2623.96,1077.09,2640.89,1080.71,2643.76z"></path>				<path class="st90" d="M1078.72,2746.32c41.82-11.62,57.23-64.58,38.1-86.65c-4.74-5.46-16.78-10.77-22.5-13.35     c-19.47,9.13-44.97,79.62-36.89,94.61C1060.53,2742.29,1075.1,2746.93,1078.72,2746.32z"></path>				<path class="st83" d="M1060.87,2741.69c43.02-8.13,68.68-67.26,33.45-95.37c-13.69-5.99-32.51-9.42-75.85-19.5     c-3.97-1.18-21.8-8.44-26.49-10.38c-22.91,12.06-42.91,66.92-29.89,83.78c5.07,1.89,12.57,4.62,21.01,8.35     C1026.92,2727.92,1052.87,2743.2,1060.87,2741.69z"></path>				<path class="st5" d="M1026.59,2646.76c-0.37-1.26-1.62-1.88-2.79-1.4c-6.3,2.64-13.02,10.72-17.59,21.05l-0.43,1.03     c-4.35,10.31-5.48,20.43-3.11,27.89c0.41,1.24,1.68,1.84,2.82,1.33c0.58-0.28,1.03-0.76,1.28-1.34c0.24-0.57,0.28-1.24,0.1-1.85     c-1.92-6.24-0.91-15.2,2.9-24.23c0.13-0.31,0.26-0.62,0.41-0.9c3.97-9.06,9.87-16.27,14.99-18.41     C1026.32,2649.41,1026.96,2647.96,1026.59,2646.76z M1041.35,2651.2c-0.39-1.25-1.68-1.84-2.83-1.31     c-12.98,5.78-27.04,34.56-21.89,51.77c0.37,1.25,1.62,1.88,2.79,1.4c1.17-0.5,1.81-1.94,1.42-3.15     c-4.28-14.41,8.17-40.62,19.14-45.53c0.58-0.26,1.03-0.74,1.27-1.33C1041.49,2652.48,1041.54,2651.8,1041.35,2651.2z      M1034.93,2710.19c0.63-0.24,1.12-0.75,1.38-1.37c0.23-0.54,0.27-1.16,0.12-1.75c-4.1-14.92,9-42.6,20.16-47.95     c1.15-0.53,1.73-1.97,1.29-3.21c-0.41-1.22-1.69-1.79-2.83-1.24c-13.19,6.26-27.77,36.37-22.87,54.08     C1032.52,2710,1033.77,2710.66,1034.93,2710.19z"></path>			</g>			<g>				<path class="st27" d="M686.98,2049.47c12.55,46.51,58.14,75.37,92.18,70.51c34.04-4.87,40.23-43.18,33.82-88.05     c-6.41-44.86-39.22-77.39-73.25-72.41C693.23,1966.33,675.19,2005.76,686.98,2049.47z"></path>				<path class="st46" d="M728.06,2059.2c2.82,19.68,19.16,33.61,36.5,31.13c17.35-2.49,29.13-20.44,26.32-40.11     c-2.82-19.67-19.16-33.6-36.5-31.13C737.03,2021.57,725.25,2039.53,728.06,2059.2z"></path>				<path class="st27" d="M1265.1,2047.46c-12.22,46.6-57.61,75.77-91.68,71.15c-34.07-4.63-40.54-42.9-34.44-87.81     c6.11-44.9,38.69-77.66,72.74-72.92C1258.27,1964.37,1276.59,2003.67,1265.1,2047.46z"></path>				<path class="st46" d="M1221.59,2057.48c-2.68,19.7-18.92,33.74-36.28,31.38c-17.36-2.37-29.27-20.24-26.6-39.93     s18.92-33.73,36.28-31.38C1212.35,2019.91,1224.26,2037.79,1221.59,2057.48z"></path>				<path class="st80" d="M1215.69,1895.32c0.51,146.3-100.61,212.46-242.53,212.96c-141.93,0.49-246.24-64.95-246.75-211.26     c-0.51-146.3,103.46-180.64,245.39-181.13C1113.72,1715.39,1215.18,1749.02,1215.69,1895.32z"></path>				<path class="st27" d="M1199.17,1946.23c0.6,171.45-91.74,248.9-221.43,249.35c-129.68,0.45-225.06-76.34-225.65-247.79     c-0.6-171.45,94.5-176.3,224.18-176.75C1105.95,1770.58,1198.58,1774.79,1199.17,1946.23z"></path>				<path class="st91" d="M1151.73,2063.81c0.03,8-12.38,14.52-27.71,14.57c-15.32,0.05-27.77-6.39-27.8-14.38     c-0.03-8,12.38-14.52,27.7-14.57C1139.25,2049.38,1151.7,2055.82,1151.73,2063.81z"></path>				<path class="st91" d="M851.2,2064.86c0.03,7.99-12.38,14.52-27.71,14.57c-15.33,0.05-27.78-6.38-27.81-14.38     c-0.03-7.99,12.38-14.52,27.7-14.57C838.72,2050.43,851.17,2056.87,851.2,2064.86z"></path>				<g>					<path class="st58" d="M1035.22,1975.85c-15.57,23.17-13.32,48.52,0.63,58.03c21.02,14.33,70.42,18.02,88.59-3.14      c17.6-20.5,8.56-57.48-20.68-73.16C1078.15,1943.86,1050.29,1953.43,1035.22,1975.85z"></path>					<path class="st92" d="M1127.06,1968.57c-23.04-35.48-77.35-22.89-92.36,8.07c15.56-23.16,44.69-30.44,68.37-17.76      c14.63,7.84,25.12,21.95,28.07,37.72c2.35,12.58-0.4,26.74-7.71,35.25C1131.9,2026.27,1144,1994.67,1127.06,1968.57z"></path>					<path class="st93" d="M1041.21,1991.15c-6.31,16.01,1.56,34.1,17.57,40.41c16.01,6.31,34.1-1.55,40.41-17.57      c6.31-16.01-1.56-34.1-17.57-40.41C1065.61,1967.28,1047.52,1975.14,1041.21,1991.15z"></path>					<path class="st61" d="M1043.72,1988.38c-1.75,4.44,0.43,9.46,4.88,11.21c4.44,1.75,9.46-0.43,11.21-4.88      c1.75-4.44-0.43-9.46-4.87-11.21C1050.49,1981.76,1045.47,1983.94,1043.72,1988.38z"></path>				</g>				<g>					<path class="st58" d="M923.42,1976.24c15.73,23.06,13.66,48.42-0.22,58.03c-20.92,14.48-70.29,18.51-88.61-2.52      c-17.75-20.37-8.96-57.42,20.17-73.3C880.27,1944.55,908.2,1953.93,923.42,1976.24z"></path>					<path class="st92" d="M831.53,1969.6c22.79-35.64,77.19-23.43,92.41,7.42c-15.72-23.05-44.9-30.13-68.49-17.29      c-14.57,7.95-24.97,22.12-27.81,37.92c-2.26,12.6,0.58,26.74,7.95,35.2C827.1,2027.33,814.78,1995.81,831.53,1969.6z"></path>					<path class="st93" d="M859.65,1991.78c-6.31,16.01,1.56,34.1,17.57,40.41c16.01,6.31,34.1-1.55,40.41-17.57      c6.31-16.01-1.56-34.1-17.57-40.41C884.04,1967.91,865.95,1975.77,859.65,1991.78z"></path>					<path class="st61" d="M862.16,1989.01c-1.75,4.44,0.43,9.46,4.87,11.21c4.44,1.75,9.46-0.43,11.21-4.88      c1.75-4.44-0.43-9.46-4.88-11.21C868.93,1982.39,863.91,1984.57,862.16,1989.01z"></path>				</g>				<path class="st54" d="M1055.62,2081.32c-3.15-16.44-28.42-12.18-69.69-12.46c-2.16-0.01-10.55-0.01-12.72,0     c-41.27,0.28-66.53-3.98-69.68,12.46c-6.07,31.66,33.77,66.25,75.68,66.38h0.73     C1021.85,2147.57,1061.69,2112.98,1055.62,2081.32z"></path>				<path class="st55" d="M979.93,2148.36h-0.73c-13.59-0.05-27.69-3.9-40.8-11.11l-0.8-0.43l0.68-0.6     c10.89-9.76,25.56-15.15,41.3-15.15c15.72,0,30.39,5.38,41.31,15.15l0.67,0.6l-0.8,0.43     C1007.62,2144.45,993.5,2148.31,979.93,2148.36z"></path>				<path class="st5" d="M979.58,2089.98c-28.84,0-52.84-8.94-55.85-20.8l-0.18-0.73h112.05l-0.17,0.73     C1032.4,2081.04,1008.4,2089.98,979.58,2089.98z"></path>				<path class="st56" d="M997.14,2052.68c-1.05,0.01-1.99-0.75-2.17-1.83c-1.29-7.64-7.35-12.55-15.43-12.53     c-8.13,0.03-14.29,5.09-15.34,12.58c-0.17,1.2-1.29,2.04-2.48,1.87c-1.2-0.17-2.04-1.28-1.87-2.48     c1.34-9.6,9.43-16.33,19.67-16.37c10.18-0.03,18.13,6.47,19.78,16.19c0.2,1.2-0.61,2.33-1.8,2.54L997.14,2052.68z"></path>				<path class="st80" d="M808.51,1773.97c2.15,4.78,3.55,83.87,4.84,117.97c0.93,24.47-47.02,123.62-149.58,49.61     C804.93,1943.51,665.58,1801.55,808.51,1773.97z"></path>				<path class="st80" d="M1193.75,1784.79c34.63-27.56,45.61-52.72,19.81-86.24c0.24,69.79-284.35-52.2-396.54,41.91     c2.92,0.37-25.53,29.1-6.99,49.77c14.28,40.81,91.48,93.66,223.59,111.49c-22.68-12.98-60.51-29.25-76.15-53     c16.88,10.1,47.25,21.91,77.82,26.81c44.39,7.12,118.36-2.95,157.26-10.44c14.7,66.72,1.87,163.09-5.05,188.12     C1264.16,1946.48,1230,1796.11,1193.75,1784.79z"></path>				<path class="st94" d="M1132.57,1910.66c1.92,0.01,3.84-0.77,5.23-2.32c2.6-2.88,2.36-7.31-0.51-9.9     c-20.92-18.85-58.62-24.21-89.58-12.81c-3.64,1.35-5.5,5.38-4.16,9.01c1.36,3.64,5.42,5.49,9.01,4.16     c25.96-9.58,58.34-5.23,75.34,10.06C1129.23,1910.05,1130.91,1910.65,1132.57,1910.66z"></path>				<path class="st94" d="M825.78,1910.66c-1.92,0.01-3.84-0.77-5.23-2.32c-2.6-2.88-2.36-7.31,0.51-9.9     c20.91-18.85,58.62-24.21,89.57-12.81c3.64,1.35,5.5,5.38,4.16,9.01c-1.36,3.64-5.42,5.49-9.01,4.16     c-25.96-9.58-58.34-5.23-75.34,10.06C829.12,1910.05,827.44,1910.65,825.78,1910.66z"></path>				<path class="st95" d="M979.99,1719.45c-63.81-1.12-124.44,17.03-170.98,49.95c4.42-15.38,17.59-63.64,67.71-90.43     c-62.27-16.85-88.51,19.77-79.58,65.96c-19.95-24.78-70.78-32.26-103.92,34.41c67.01-20.69,100.05-4.91,109.11-4.6     c-12.71,9.69-24.52,20.29-34.66,32.2c48.84-42.65,138.89-61.49,213.6-61.38c66.39,0.1,147.65,15.87,197.73,56.96     C1131.68,1751.12,1059.14,1720.85,979.99,1719.45z"></path>			</g>		</g>		<g>			<path class="st81" d="M3192.86,3088.2c-0.03,12.02,131.43,22.07,293.61,22.46c162.19,0.38,293.69-9.05,293.72-21.07    c0.03-12.02-131.43-22.07-293.62-22.46C3324.39,3066.74,3192.89,3076.18,3192.86,3088.2z"></path>			<g>				<path class="st27" d="M3542.77,3036.48c0.21,2.29,74.91-0.36,75.02-3.15c0.95-24.29,0.66-345.28,0.95-359.36l-106.67,33.03     C3514.93,2731.03,3541.26,3019.89,3542.77,3036.48z"></path>				<path class="st64" d="M3536.05,3045.04c0.15,1.78,95.03,2.13,95.31-0.12c2.06-16.6,0.7-56.59,1.61-66.23h-100.44     C3534.04,2996.71,3535.06,3033.62,3536.05,3045.04z"></path>				<g>					<path class="st65" d="M3649.59,3019.84c-1.27-5.07-3.98-11.51-6.06-17.4c-1.54-4.36-43.92-4.6-44.27,5.8      c-0.09,2.66-0.03,5.02,0.14,7.15c-7.25-0.09-15.11-0.34-23.4-0.83c-18.03-1.05-34.18-2.87-45.49-4.93      c-1.1,16.44-0.28,44.97-1.35,63.25c0,0,188.21,39.51,218.59,12.76C3756.32,3078.11,3709.62,3042.75,3649.59,3019.84z"></path>					<path class="st66" d="M3529.58,3061.43c-0.09,4.07-0.21,7.99-0.42,11.47c0,0,188.21,39.51,218.59,12.76      c1.2-1.07,1.3-2.69,0.42-4.74C3695.79,3091.08,3576.4,3070.36,3529.58,3061.43z"></path>					<path class="st45" d="M3662.7,3025.45c1.43,0.32,2.85-0.53,3.2-1.94c0.35-1.42-0.53-2.85-1.94-3.2      c-10.93-2.63-23.83,2.18-31.38,11.75c-0.91,1.15-0.71,2.81,0.44,3.71c0.44,0.35,0.96,0.53,1.48,0.56c0.83,0.05,1.68-0.3,2.23-1      C3643.05,3027.33,3653.73,3023.23,3662.7,3025.45z M3677.09,3032.46c1.43,0.3,2.78-0.81,2.98-2.26      c0.2-1.45-0.81-2.78-2.26-2.98c-11.54-1.62-23.06,2.47-31.62,11.14c-1.03,1.04-1.02,2.71,0.02,3.74      c0.47,0.47,1.09,0.72,1.7,0.76c0.73,0.04,1.48-0.22,2.04-0.78C3660.05,3031.86,3671.28,3031.66,3677.09,3032.46z M3693,3034.92      c-10.38-2.04-23.9,2.47-32.93,10.9c-1.07,1-1.12,2.67-0.12,3.74c0.48,0.52,1.12,0.79,1.78,0.83c0.7,0.04,1.41-0.19,1.96-0.71      c7.86-7.35,19.54-11.41,28.3-9.58c1.48,0.31,2.83-0.66,3.1-2.09C3695.37,3036.58,3694.43,3035.19,3693,3034.92z"></path>				</g>			</g>			<g>				<path class="st27" d="M3429.51,3036.21c-0.22,2.29-74.91-0.72-75-3.51c-0.84-24.29,0.97-345.28,0.74-359.36l106.51,33.53     C3458.8,2730.89,3431.11,3019.63,3429.51,3036.21z"></path>				<path class="st64" d="M3436.2,3044.8c-0.16,1.78-95.04,1.68-95.31-0.57c-1.98-16.61-0.43-56.35-1.29-65.99h100.44     C3438.44,2996.25,3437.24,3033.39,3436.2,3044.8z"></path>				<g>					<path class="st65" d="M3322.78,3019.07c1.29-5.06,4.03-11.49,6.14-17.37c1.56-4.35,43.94-4.39,44.24,6.02      c0.07,2.66,0.01,5.02-0.18,7.15c7.25-0.05,15.11-0.27,23.4-0.72c18.04-0.97,34.19-2.71,45.51-4.71      c1.02,16.45,0.07,44.97,1.05,63.25c0,0-188.39,38.62-218.64,11.72C3215.78,3076.83,3262.64,3041.7,3322.78,3019.07z"></path>					<path class="st66" d="M3442.59,3061.22c0.07,4.07,0.18,7.99,0.36,11.47c0,0-188.39,38.62-218.64,11.72      c-1.2-1.07-1.29-2.69-0.41-4.75C3276.24,3090.09,3395.73,3069.94,3442.59,3061.22z"></path>					<path class="st45" d="M3335.56,3034.62c0.55,0.71,1.39,1.06,2.23,1.02c0.52-0.03,1.04-0.21,1.48-0.56      c1.15-0.9,1.36-2.56,0.46-3.71c-7.5-9.61-20.38-14.47-31.32-11.89c-1.42,0.34-2.3,1.77-1.96,3.19      c0.34,1.42,1.75,2.27,3.19,1.96C3318.63,3022.44,3329.29,3026.59,3335.56,3034.62z M3322.31,3041.31      c0.55,0.57,1.3,0.83,2.03,0.79c0.62-0.03,1.23-0.28,1.71-0.75c1.04-1.02,1.06-2.7,0.04-3.74      c-8.52-8.71-20.02-12.85-31.57-11.29c-1.45,0.19-2.47,1.52-2.28,2.97c0.19,1.45,1.54,2.57,2.97,2.27      C3301.04,3030.78,3312.26,3031.04,3322.31,3041.31z M3277.19,3037.03c0.27,1.44,1.62,2.41,3.09,2.11      c8.77-1.79,20.43,2.33,28.25,9.71c0.55,0.52,1.26,0.76,1.96,0.72c0.66-0.04,1.3-0.31,1.78-0.83c1-1.06,0.95-2.74-0.11-3.74      c-8.98-8.47-22.48-13.04-32.87-11.05C3277.86,3034.21,3276.92,3035.59,3277.19,3037.03z"></path>				</g>			</g>			<path class="st96" d="M3320.96,2797.34c14.91,3.98,118.04,7.85,137.66,8.17c4.09-41.44,5.96-61.12,13.76-114.36    c2.2-15.02,21.59-15.92,24.43-0.27c1.77,9.74,7.44,55.02,15.03,114.76c31.66,1.8,113.81-4.22,141.25-10.96    c0,0-17.76-226.37-22.79-286.95c-53.35-6.15-235.45-6.43-292.85,0.1C3331.53,2564.32,3325.76,2709.98,3320.96,2797.34z"></path>			<path class="st84" d="M3639.98,2628.35c-2.54-44.76-10.33-107.48-11.04-122.07c-53.35-6.15-234.04-6.52-291.44,0.01    c-3.19,19.68-5.55,65.57-7.54,121.63C3408.18,2657.66,3553.3,2658.28,3639.98,2628.35z"></path>			<polygon class="st97" points="3394.09,2292.53 3546.13,2284.6 3543.7,2238.03 3395.43,2245.77    "></polygon>			<path class="st35" d="M3301.35,2297.37c-11.98,7.92-23.83,79.86-32.14,136.68c20.55,13.15,84.26,49.07,96.62,44.45    c-2.12-23.53-9.6-71.26-11.41-122.81c14.03-32.34,42.91-88.46,41.76-90.83C3336.78,2278.83,3309.48,2292,3301.35,2297.37z"></path>			<path class="st35" d="M3721.35,2366.59c-20.85,21.86-30.55,56.2-54.14,67.29c-8.91-8.46-62.25-47.58-73.61-62.56    c-38.87-51.25-41.91-100.4-42.36-103.58c29.31-2.51,53.38-3.95,63.48-0.29C3635.05,2285.01,3684.64,2331.03,3721.35,2366.59z"></path>			<path class="st98" d="M3632.36,2579.42c-68.66,48.69-207.68,51.93-295.88,12.02c0,0,14.21-253.56,22.24-313.18    c58.74-20.83,170.17-21.87,225.3-14.81C3595.8,2338.35,3617.4,2468.69,3632.36,2579.42z"></path>			<path class="st5" d="M3398.13,2278.29c-0.37-3.82,0.08-7.54,0.81-11.22c39.16-4.7,98.14-8.63,140.41-7.47    c0.41,1.63,1.19,3.14,1.36,4.85c2.87,29.53-26.73,56.57-66.1,60.39C3435.24,2328.67,3401,2307.82,3398.13,2278.29z"></path>			<path class="st35" d="M3422.71,2627.64c2.07,0.04-71.47-1.29-96.65-9.72c0,0,9.19-271.95,14.22-337.9    c13.18-4.49,33.83-8.83,53.61-12.07c7.44-1.22,15.37,30.63,22.12,29.78L3422.71,2627.64z"></path>			<path class="st35" d="M3528.27,2293.34c5.29-7.9,15.03-25.74,15.15-34.62c22.95,0.51,55.06,6.48,69.52,8.24    c12.58,77.17,15.43,218.96,31.4,333.08c-22.53,14.55-59.12,21.79-98.83,23.77L3528.27,2293.34z"></path>			<path class="st27" d="M3414.17,2192.97l3.46,87.06c0.74,18.72,25.14,32.96,54.49,31.79c29.35-1.17,52.54-17.29,51.8-36.01    l-3.46-87.06L3414.17,2192.97z"></path>			<g>				<path class="st99" d="M3376.57,2320.38c-0.13-12.54-1.07-46.57,1.47-54.02c0,0,16.32-19.18,17.4-20.6     c-5.75,12.92-2.6,31.77,21.01,53.41C3407.33,2296.8,3386.91,2312.32,3376.57,2320.38z"></path>				<path class="st97" d="M3416.44,2299.17l-25.22-18.55l3.45-10.01c0,0,11.67,10.21,16.76,14.73     C3414.19,2287.79,3416.44,2299.17,3416.44,2299.17z"></path>				<path class="st35" d="M3380.89,2313.13c-1.8-10.49-5.4-39.31-2.86-46.76c0,0,16.32-19.18,17.4-20.6     c-1.7,13.14,7.62,30.14,16,39.58C3402.32,2282.98,3388.02,2305.95,3380.89,2313.13z"></path>			</g>			<g>				<path class="st99" d="M3570.72,2310.68c-1.17-12.48-4.32-46.82-7.62-53.97c0,0-20.71-18.78-21.93-20.08     c7.07,12.25,8.33,32.73-12.9,56.71C3537.09,2290.03,3559.59,2303.73,3570.72,2310.68z"></path>				<path class="st97" d="M3528.27,2293.34l23.2-21.07l-4.47-9.59c0,0-10.54,11.37-15.14,16.39     C3529.37,2281.78,3528.27,2293.34,3528.27,2293.34z"></path>				<path class="st35" d="M3565.12,2303.52c0.7-10.62,1.28-39.66-2.03-46.81c0,0-20.71-18.78-21.93-20.08     c7.07,12.25-1.95,32.17-9.31,42.43C3540.67,2275.76,3557.29,2297.12,3565.12,2303.52z"></path>			</g>			<path class="st100" d="M3416.85,2208.68c0.91-3.73,2.55-7.1,4.45-10.33c38.53,8.43,95.53,24.1,135.07,39.09    c-0.15,1.68,0.09,3.36-0.31,5.03c-7,28.83-43.83,44.64-82.27,35.31C3435.34,2268.45,3409.85,2237.51,3416.85,2208.68z"></path>			<path class="st101" d="M3530.73,2339.85c32.78-1.04,56.79-2.23,77.69-4.26c0.15,1.29,0.3,2.64,0.45,3.94    c-17.12,1.66-34.22,2.69-60.1,3.68c-5.81,0.22-11.79,0.42-17.84,0.62L3530.73,2339.85z"></path>			<path class="st101" d="M3339.36,2341.02c18.18,0.53,44.43,0.9,77.53,0.76l0.08,3.99c-33.09,0.14-59.55-0.22-77.8-0.75    C3339.24,2343.67,3339.3,2342.35,3339.36,2341.02z"></path>			<g>				<path class="st102" d="M3545.02,2317.24c0.19,3.57,3.23,6.31,6.8,6.12c3.57-0.19,6.31-3.23,6.12-6.8     c-0.19-3.57-3.23-6.31-6.8-6.12C3547.58,2310.63,3544.84,2313.67,3545.02,2317.24z"></path>				<path class="st102" d="M3549.16,2402.4c0.18,3.57,3.23,6.31,6.8,6.13c3.57-0.19,6.31-3.23,6.13-6.8     c-0.19-3.57-3.23-6.31-6.8-6.12C3551.72,2395.79,3548.98,2398.83,3549.16,2402.4z"></path>				<path class="st102" d="M3551.41,2550.46c0.19,3.57,3.23,6.31,6.8,6.12c3.57-0.18,6.31-3.23,6.12-6.8     c-0.19-3.57-3.23-6.31-6.8-6.13C3553.96,2543.85,3551.22,2546.89,3551.41,2550.46z"></path>				<path class="st102" d="M3549.65,2468.91c0.19,3.57,3.23,6.31,6.8,6.13c3.57-0.19,6.31-3.23,6.12-6.8s-3.23-6.31-6.8-6.13     C3552.21,2462.3,3549.46,2465.34,3549.65,2468.91z"></path>			</g>			<g class="st103">				<path class="st104" d="M3390.87,2410.54c0.11,2.03,3.69,3.49,8,3.27c4.31-0.23,7.72-2.05,7.62-4.08c-0.11-2.03-3.69-3.49-8-3.27     C3394.17,2406.68,3390.76,2408.51,3390.87,2410.54z"></path>				<path class="st104" d="M3387.04,2325.12c0.11,2.03,3.69,3.49,8,3.27c4.31-0.23,7.72-2.05,7.61-4.08c-0.11-2.03-3.69-3.49-8-3.27     C3390.35,2321.26,3386.94,2323.09,3387.04,2325.12z"></path>				<path class="st104" d="M3391.97,2476.82c0.11,2.03,3.69,3.49,8,3.27c4.31-0.23,7.72-2.05,7.62-4.08c-0.1-2.03-3.69-3.49-8-3.27     C3395.28,2472.96,3391.87,2474.79,3391.97,2476.82z"></path>				<path class="st104" d="M3393.37,2558.71c0.11,2.03,3.69,3.49,8,3.27c4.31-0.23,7.72-2.05,7.61-4.08c-0.11-2.03-3.69-3.49-8-3.27     C3396.67,2554.85,3393.26,2556.68,3393.37,2558.71z"></path>			</g>			<g>				<g>					<path class="st6" d="M3562.46,2576.49l-221.66-14.17l-12.04-230.82l25.66-16.56c2.88-1.7,6.14-2.3,9.46-2.33h187.35      c2.67,0.01,3.99,2.53,4.11,5.27l13.21,253.22C3568.7,2574.12,3565.4,2576.64,3562.46,2576.49z"></path>					<polygon class="st105" points="3556.25,2571.49 3524.04,2594.16 3347.42,2579.58 3334.75,2336.61 3359.02,2322.16       3543.37,2324.57      "></polygon>					<path class="st9" d="M3534.67,2599.28l-192.74-15.32l-13.17-252.46l194.12,5.38c4.06,0.1,7.18,3.41,7.39,7.57l12.86,246.52      C3543.37,2595.75,3539.31,2599.65,3534.67,2599.28z"></path>					<path class="st75" d="M3506.51,2578.52c-0.88,0.08-1.79,0.08-2.69,0.01l-134.28-11.63c-7.44-0.62-13.95-6.69-14.38-14.13      l-9.62-184.34c-0.25-4.22,0.73-8.36,3.69-11.4c2.94-3.03,7.25-4.69,11.28-4.55l135.11,4.33c7.93,0.25,14.19,6.41,14.62,14.32      l9.99,191.57c0.24,4.36-1.45,8.61-4.6,11.65C3513.14,2576.76,3509.91,2578.22,3506.51,2578.52z M3359.05,2356.5      c-2.61,0.24-5.12,1.42-6.96,3.32c-2.22,2.28-2.76,5.23-2.55,8.38l9.62,184.34c0.31,5.47,5.26,9.92,10.71,10.39l134.34,11.63      c3.18,0.26,6.35-0.84,8.67-3.08c2.3-2.24,3.55-5.36,3.36-8.58l-9.99-191.56c-0.29-5.82-4.91-10.35-10.73-10.54l-135.11-4.33      C3359.93,2356.45,3359.49,2356.47,3359.05,2356.5z"></path>				</g>									<rect x="3388.92" y="2465.33" transform="matrix(0.9893 0.1456 -0.1456 0.9893 400.0033 -470.7824)" class="st27" width="55.45" height="64.65"></rect>				<path class="st27" d="M3523.64,2537.84c-18.99,1.62-40.68,1.37-80.43-2.23c-28.77-2.6-34.59-24.78-31.11-39.67     c2-8.55,30.93-50.61,44.13-57.14c8.71-4.3,26.71-12.31,28.66-11.14c9.45,5.64,0.57,18.01-13.62,25.76     c-3.96,2.66-7.11,5.8-9.63,13.05c1.12,3.52,28.27-12.84,41.07-17.52c10.23-3.74,40.03-1.15,41.66,2.02     c4,7.8-20.84,12.33-30.76,15.05c-3.45,0.95-12.79,6.65-18.12,11.01c8.25,0.44,23.07-2.13,28.63-2.28     c10.72-0.28,34.05-4.05,37.47,2.5c2.67,5.12-11.68,10.85-29.98,14.75c-4.44,0.95-20.81,4.94-31.42,7.86     c0.04,0.46,25.63,0.38,29.17-0.47c10.48-2.52,24.43-7.26,31.02,1.33c1.8,2.35-20.07,14.13-31.1,15.79     c-4.92,0.74-15.71,2.81-28.83,3.9c7.65,1.19,21.97,1.62,24.99,1.67c15.25-6.21,21.57-8.16,26.62-1.81     C3553.61,2522.24,3532.69,2537.07,3523.64,2537.84z"></path>				<path class="st35" d="M3413.69,2535.79c-57.76-3.83-77.4-6.4-116.27-16.1c-37.23-9.3-33.07-62.14-27.76-87.88     c43.55,9.3,108.81,22.16,153.57,31.34C3421.56,2472.14,3415.88,2520.86,3413.69,2535.79z"></path>			</g>			<g>				<path class="st52" d="M3725.09,2066.3c-2.92,45.39-35.66,79.95-64.28,81.18c-28.61,1.22-39.74-33.38-41.57-76.2     c-1.83-42.83,19.88-78.64,48.5-79.75C3706.86,1990,3727.84,2023.63,3725.09,2066.3z"></path>				<path class="st26" d="M3714.74,1941.36c9.96,152.52-86.4,227.71-227.61,236.93c-141.22,9.22-249.26-52.61-259.23-205.13     c-9.96-152.52,91.29-194.71,232.51-203.93C3601.62,1760,3704.78,1788.84,3714.74,1941.36z"></path>				<path class="st27" d="M3684.35,2139.55c-8.4,65.96-83.12,119.49-144.06,122.67c-128.06,6.68-265.53-59.38-277.21-238.12     c-11.68-178.73,80-189.46,205.4-197.65c83.74-5.47,153.74-8.37,191.95,44.74C3684.01,1903.96,3689.51,2099.03,3684.35,2139.55z"></path>				<path class="st53" d="M3348.25,2138.4c0.01,10.31,15.22,18.66,33.97,18.64c18.75-0.02,33.95-8.39,33.94-18.7     c-0.01-10.31-15.23-18.66-33.97-18.64C3363.44,2119.71,3348.24,2128.08,3348.25,2138.4z"></path>				<path class="st53" d="M3622.98,2121.68c1.28,9.06,14.91,14.61,30.44,12.41c15.52-2.2,27.07-11.33,25.79-20.38     c-1.29-9.06-14.92-14.61-30.44-12.41C3633.24,2103.49,3621.7,2112.62,3622.98,2121.68z"></path>				<path class="st26" d="M3635.02,1712.09c5.36,20.66-3.8,38.93-20.93,55.08c10.54-26.48,8.96-59.57-21.43-98.58     c-18.05,16.5-37.23,33.95-56.41,51.28c1.15-10.92,0.18-22.63-3.64-35.18c-29.48,44.02-63.03,44.64-171.57,77.38     c-74.26,22.4-86.21,73.06-75.07,100.61c50.34-14.86,126.3,7.23,181.76,3.61c69.53-4.54,121.69-20.15,147.95-41.53     C3647.52,1798.82,3670.81,1750.25,3635.02,1712.09z"></path>				<g>					<path class="st58" d="M3574.73,2027.54c-11.19,23.26-7.27,47.35,5.2,55.47c18.78,12.22,60.51,12.28,74.04-9.25      c13.11-20.85,2.55-55.59-23.24-68.52C3608.16,1993.92,3585.57,2005.03,3574.73,2027.54z"></path>					<path class="st106" d="M3651.17,2014.1c-22.18-32.32-66.72-16.44-76.81,14.23c11.18-23.25,35.03-32.27,55.91-21.81      c12.9,6.47,22.84,19.23,26.58,34.11c2.98,11.87,1.82,25.61-3.63,34.27C3659.87,2068.95,3667.48,2037.87,3651.17,2014.1z"></path>					<path class="st26" d="M3580.98,2041.75c-4,15.76,4.05,32.51,17.99,37.42c13.93,4.91,28.47-3.89,32.48-19.65      c4-15.76-4.05-32.51-17.99-37.42C3599.53,2017.19,3584.99,2025.99,3580.98,2041.75z"></path>					<path class="st61" d="M3582.87,2038.93c-1.11,4.37,1.12,9.02,4.99,10.38c3.86,1.36,7.9-1.08,9.01-5.45      c1.11-4.37-1.12-9.02-4.99-10.38C3588.01,2032.11,3583.98,2034.55,3582.87,2038.93z"></path>				</g>				<g>					<path class="st58" d="M3469.09,2036.8c16.9,20.79,16.96,45.22,4.45,55.53c-18.85,15.53-65.75,23.36-84.96,4.71      c-18.61-18.06-13.19-54.2,13.4-71.74C3425.27,2009.95,3452.73,2016.67,3469.09,2036.8z"></path>					<path class="st106" d="M3380.66,2037.83c18.93-35.93,71.95-28.62,89-0.33c-16.89-20.78-45.38-25.21-66.9-11.03      c-13.3,8.77-22.11,23.17-23.55,38.51c-1.15,12.23,2.71,25.53,10.44,33.03C3381.07,2093.41,3366.74,2064.25,3380.66,2037.83z"></path>					<path class="st26" d="M3399.44,2057.04c-4.75,15.82,4.23,32.49,20.05,37.24c15.82,4.75,32.5-4.23,37.24-20.05      c4.75-15.82-4.23-32.5-20.06-37.24C3420.86,2032.24,3404.18,2041.22,3399.44,2057.04z"></path>					<path class="st61" d="M3401.61,2054.19c-1.32,4.39,1.18,9.02,5.56,10.33c4.39,1.32,9.02-1.17,10.33-5.56      c1.32-4.39-1.18-9.02-5.56-10.33C3407.56,2047.31,3402.93,2049.8,3401.61,2054.19z"></path>				</g>				<path class="st26" d="M3645.27,1941.59c-2.12,0.49-4.43,0.24-6.5-0.89c-16.14-8.85-42.4-6.17-61.15,6.26     c-4.19,2.81-9.94,1.63-12.75-2.6c-2.8-4.23-1.63-9.95,2.6-12.75c24.38-16.18,58.1-19.1,80.15-7.05     c4.45,2.44,6.09,8.04,3.65,12.49C3649.95,1939.45,3647.73,1941.02,3645.27,1941.59z"></path>				<path class="st26" d="M3366,1965.94c-2.53-0.01-5.04-1.04-6.86-3.08c-3.37-3.79-3.03-9.61,0.76-13     c18.76-16.69,52.25-21.39,79.7-11.1c4.75,1.78,7.17,7.08,5.39,11.85c-1.77,4.75-7.12,7.15-11.85,5.39     c-21.07-7.92-47.28-4.61-61.01,7.62C3370.38,1965.18,3368.18,1965.94,3366,1965.94z"></path>				<g>					<path class="st54" d="M3598.66,2136.8c-4.03-16.36-29.2-10.77-70.69-8.9c-2.17,0.1-10.61,0.53-12.78,0.66      c-41.46,2.42-67.08-0.55-69.39,16.14c-4.46,32.14,37.38,64.84,79.51,62.79l0.73-0.04      C3568.16,2205.14,3606.41,2168.31,3598.66,2136.8z"></path>					<path class="st55" d="M3526.07,2208.11l-0.73,0.04c-13.67,0.66-28.03-2.49-41.59-9.06l-0.83-0.38l0.65-0.64      c10.44-10.38,24.9-16.55,40.73-17.37c15.8-0.82,30.82,3.83,42.3,13.08l0.71,0.57l-0.78,0.47      C3553.69,2202.75,3539.7,2207.35,3526.07,2208.11z"></path>					<path class="st5" d="M3522.69,2149.45c-28.98,1.49-53.58-6.24-57.21-18.01l-0.21-0.72l112.62-5.81l-0.14,0.74      C3575.31,2137.73,3551.64,2147.96,3522.69,2149.45z"></path>				</g>				<path class="st56" d="M3546.94,2104.31c-1.01,0.07-1.95-0.61-2.19-1.62c-1.69-7.24-7.78-11.59-15.53-11.09     c-7.78,0.51-13.39,5.72-13.95,12.96c-0.09,1.16-1.11,2.03-2.27,1.94c-1.16-0.09-2.03-1.1-1.94-2.27     c0.72-9.28,8.07-16.21,17.88-16.85c9.76-0.64,17.76,5.13,19.91,14.34c0.27,1.14-0.44,2.27-1.57,2.54L3546.94,2104.31z"></path>				<path class="st26" d="M3332.3,1982.56c2.87,75-21.79,124.43-53.57,126.42c-31.78,1.99-61.03-86.44-65.71-161.35     c-5.36-85.79,37.75-123.1,69.31-130.28C3313.39,1810.29,3329.03,1897.31,3332.3,1982.56z"></path>				<path class="st27" d="M3218.1,2129.78c17.91,47.34,68.56,72.82,103.65,64.22c35.09-8.6,15.25-152.84-50.3-158.52     C3216.86,2030.75,3201.26,2085.29,3218.1,2129.78z"></path>				<path class="st46" d="M3257.43,2123.51c4.97,20.28,29.88,35.2,46.69,27.68c6.55-2.93-12.48-73.47-23.3-72.33     C3262.5,2080.79,3252.46,2103.24,3257.43,2123.51z"></path>			</g>			<g>				<g>					<path class="st107" d="M3739.83,2367.69l-119.66,6.24l14.63,160.95c2.37,8.29,26.42,13.52,55.19,11.79      c28.77-1.73,51.85-9.79,53.2-18.3L3739.83,2367.69z"></path>					<path class="st108" d="M3623.43,2409.74c12.78,0.5,31.33-2.04,51.77-6.89c30.65-7.27,53.62-16.51,64.85-25.23l-0.22-9.94      l-119.66,6.24L3623.43,2409.74z"></path>					<path class="st107" d="M3609.8,2354.09l1.07,20.58c0.68,11.22,31.95,18.47,69.75,16.2c37.8-2.27,67.82-13.21,67.15-24.43      l-1.02-19.5L3609.8,2354.09z"></path>					<path class="st109" d="M3746.76,2346.94c0.68,11.22-29.53,21.63-67.34,23.9c-37.8,2.27-68.95-5.53-69.62-16.75      c-0.67-11.22,29.37-21.62,67.18-23.89C3714.78,2327.93,3746.09,2335.72,3746.76,2346.94z"></path>					<path class="st110" d="M3693.18,2344.62c0.08,1.55-5,3.08-11.35,3.41s-11.56-0.66-11.64-2.21c-0.08-1.55,5-3.08,11.35-3.41      C3687.89,2342.08,3693.1,2343.07,3693.18,2344.62z"></path>					<path class="st111" d="M3681.15,2347.36c4.37-0.34,7.3-0.33,7.12-4.71l-5.78-110.77c-0.15-3.63-2.86-6.68-6.4-7.43l-41.79-8.92      c-4.4-0.99-8.52,1.83-9.42,6.11c-0.92,4.29,1.82,8.51,6.11,9.42l35.93,7.63l5.46,104.62      C3672.53,2347.25,3674.3,2347.89,3681.15,2347.36z"></path>					<path class="st112" d="M3714.41,2443.72c0.39,7.43-12.32,14.13-28.38,14.97c-16.06,0.84-29.43-4.41-29.81-11.84      c-0.39-7.43,12.35-14.22,28.41-15.06C3700.69,2430.95,3714.02,2436.29,3714.41,2443.72z"></path>				</g>				<g>					<path class="st27" d="M3744.24,2428.43c-17.71,0.71-31.56,8.17-30.93,16.67c0.63,8.5,15.5,14.81,33.21,14.1      c17.71-0.71,31.56-8.17,30.93-16.67C3776.82,2434.04,3761.96,2427.72,3744.24,2428.43z"></path>					<path class="st27" d="M3737.53,2406.38c-17.36,2.93-29.79,12.18-27.77,20.64c2.02,8.47,17.74,12.95,35.09,10.02      c17.36-2.93,29.79-12.18,27.77-20.64C3770.6,2407.93,3754.88,2403.45,3737.53,2406.38z"></path>					<path class="st27" d="M3742.68,2452.22c-16.33-2.09-30.41,2.97-31.45,11.31c-1.03,8.34,11.37,16.8,27.7,18.9      c16.33,2.09,30.41-2.97,31.45-11.31C3771.42,2462.78,3759.01,2454.32,3742.68,2452.22z"></path>											<ellipse transform="matrix(0.2633 -0.9647 0.9647 0.2633 350.167 5440.9565)" class="st27" cx="3737.75" cy="2491.19" rx="13.14" ry="25.51"></ellipse>				</g>				<path class="st27" d="M3640.57,2426.32c-11.25-3.39-22.51,0.35-25.13,8.35c-2.63,8,4.36,17.24,15.62,20.63     c11.26,3.39,22.54-0.45,25.17-8.45C3658.85,2438.84,3651.82,2429.71,3640.57,2426.32z"></path>			</g>		</g>	</g></g></svg>