<svg xmlns="http://www.w3.org/2000/svg" xmlns:xlink="http://www.w3.org/1999/xlink" id="Camada_1" x="0px" y="0px" viewBox="0 0 1000 1000" style="enable-background:new 0 0 1000 1000;" xml:space="preserve"><style type="text/css">	.st0{fill:#B8E2F7;}	.st1{fill:#CFDC94;}	.st2{fill:#362616;}	.st3{fill:#EFEFEF;}	.st4{fill:#612F14;}	.st5{fill:#D08229;}	.st6{fill:#F08224;}	.st7{fill:#602F13;}	.st8{fill:#F7B78E;}	.st9{fill:#C93230;}	.st10{fill:#F7B78F;}	.st11{fill:#FECA1C;}	.st12{fill:#8C1B1C;}	.st13{fill:#909B39;}	.st14{fill:#B77A44;}	.st15{fill:#F8B78E;}	.st16{fill:#95A936;}	.st17{fill:#EB605B;}	.st18{fill:#911E1D;}	.st19{fill:#EC605B;}	.st20{fill:#F0AF79;}	.st21{fill:#D6C697;}	.st22{fill:#FBBF20;}	.st23{fill:#CFDC93;}	.st24{fill:#AF6626;}	.st25{fill:#8C1D1D;}	.st26{fill:#AE2727;}	.st27{fill:#C4D27F;}	.st28{fill:#FCCB1F;}	.st29{fill:#727E33;}	.st30{fill:#FEDB11;}	.st31{fill:#737F34;}	.st32{fill:#8B1E1D;}	.st33{fill:#C8D689;}	.st34{fill:#EFAE79;}	.st35{fill:#7F9235;}	.st36{fill:#F1F1F1;}	.st37{fill:#F1B17B;}	.st38{fill:#EE704B;}	.st39{fill:#EFF0F1;}	.st40{fill:#56301F;}	.st41{fill:#F0EEA4;}	.st42{fill:#EBECAA;}	.st43{fill:#F2EE9C;}	.st44{fill:#F0EEA2;}	.st45{fill:#ECEDAB;}	.st46{fill:#EDEDA6;}	.st47{fill:#EEEAE7;}	.st48{fill:#EEEDA8;}	.st49{fill:#E6ECB5;}	.st50{fill:#F2EFA5;}	.st51{fill:#EBEDAB;}	.st52{fill:#C3D27D;}	.st53{fill:#C4D27E;}	.st54{fill:#C3D37E;}	.st55{fill:#FBBF21;}	.st56{fill:#FCD31C;}	.st57{fill:#B0C76F;}	.st58{fill:#CF8229;}	.st59{fill:#F0AF78;}	.st60{fill:#D9DBDC;}	.st61{fill:#E8A472;}	.st62{fill:#CACBCC;}	.st63{fill:#442012;}	.st64{fill:#CA3330;}	.st65{fill:#F0B079;}	.st66{fill:#432013;}	.st67{fill:#FDF7F1;}	.st68{fill:#ECAD78;}	.st69{fill:#AF6527;}	.st70{fill:#EB613D;}	.st71{fill:#F49F6B;}	.st72{fill:#8B201B;}	.st73{fill:#F08461;}	.st74{fill:#523023;}	.st75{fill:#FCE2CD;}	.st76{fill:#FCDCCB;}	.st77{fill:#3F2015;}	.st78{fill:#FCE213;}	.st79{fill:#F49967;}	.st80{fill:#F49A67;}	.st81{fill:#F0835F;}	.st82{fill:#EB603C;}	.st83{fill:#583222;}	.st84{fill:#4F2D21;}	.st85{fill:#572D18;}	.st86{fill:#F49F6A;}	.st87{fill:#482519;}	.st88{fill:#819337;}	.st89{fill:#829437;}	.st90{fill:#819336;}	.st91{fill:#C9CACC;}	.st92{fill:#E9A62A;}	.st93{fill:#C4D37E;}	.st94{fill:#FDDD09;}	.st95{fill:#D18630;}	.st96{fill:#95A836;}	.st97{fill:#F7A625;}	.st98{fill:#3B8CB9;}	.st99{fill:#566EA9;}	.st100{fill:#4B99CA;}	.st101{fill:#B0C870;}	.st102{fill:#4D99CA;}	.st103{fill:#9C9590;}	.st104{fill:#B87A44;}	.st105{fill:#5F2F14;}	.st106{fill:#EFAE78;}	.st107{fill:#E8A372;}	.st108{fill:#D57F42;}	.st109{fill:#C46922;}	.st110{fill:#C16823;}	.st111{fill:#E8E6D8;}	.st112{fill:#643B1C;}	.st113{fill:#6C5029;}	.st114{fill:#88522C;}	.st115{fill:#4F2C1A;}	.st116{fill:#4F2C1C;}	.st117{fill:#6C7EB0;}	.st118{fill:#E6A628;}	.st119{fill:#92A637;}	.st120{fill:#F6B78E;}	.st121{fill:#F2EDCD;}	.st122{fill:#F2EAC8;}	.st123{fill:#F3EED0;}</style><g>	<path class="st0" d="M50.49,701.58c-11.45-17.82-16.98-37.93-20.2-58.38c-5.62-35.79-3.97-71.35,8.72-105.76  c10.03-27.21,26.16-50.76,44.25-73.17c13.94-17.28,27.08-35.05,31.57-57.64c3.78-19.03,1.56-37.84-1.45-56.6  c-5.58-34.72,3.1-65.44,24.99-92.67c32.26-40.12,76.94-59.9,124.25-74.81c41.27-13.01,83.91-20.18,126.84-24.6  c61.25-6.3,122.86-6.36,184.22-3.83c56.64,2.33,113.13,8.71,168.15,23.95c41.32,11.44,81.09,26.42,114.47,54.26  c39.71,33.11,58.63,75.09,47.97,126.9c-9.19,44.66,1.13,84.19,26.13,121.02c1.11,1.63,1.73,3.59,2.58,5.4  c-10.51,2.96-9.88-7.72-15.4-12.3c-2.34,1.57-0.6,6.93-4.67,7.11c-4.31,0.19-5.06-4.11-7.16-6.52c-4.22-4.86-9.42-8.82-13.05-14.41  c-1.93,1.92-0.43,3.79-0.28,5.54c0.26,2.97,2.16,6.44-0.8,8.62c-3.49,2.57-5.34-1.36-7.65-3.01c-2.8-2-5.99-1.94-8.84-0.92  c-9.76,3.49-20.18,0.49-29.98,3.71c1.51,2.74,7.91,2.23,6.2,7.29c-1.36,4.01-5.53,3.1-8.85,3.4c-8.99,0.83-11.77,3.77-9.25,12.13  c2.05,6.83-4.82,9.17-5.62,14.37c4.27-0.61,8.75-5.9,12.06-2.1c4.13,4.75-1.77,9.14-3.42,13.68c-3.71,7.26-3.91,15.92-9.18,22.58  c-1.37,1.73-0.33,3.89,0.05,5.9c1.56,8.24,4.3,16.21,6.37,24.3c2.67,10.45,12.2,14.76,22.4,16.94c10.93,2.33,11.9,3.83,10.88,15.35  c-4.62,12.26-9.62,24.39-11.01,37.6c-0.41,3.83,0.11,8.03-4.11,10.33c-19.6-3.57-38.7-8.83-56.95-16.99  c-4.72-21.51-7.84-43.38-14.04-64.59c-2.67-9.16-5.12-18.35-11.19-26.01c-3.77-5.52-8.68-9.15-15.54-9.92  c-3.33-0.37-6.73-0.96-8.26-4.67c4.66-7.16,13.04-6.64,19.73-9.62c10.51-3.28,19.46-8.93,26.56-17.41  c0.79-1.18,1.62-2.33,2.43-3.48c13.39-21.42,11.9-47.95-3.81-66.67c-1.53-1.83-4.05-3.62-3.43-6.01c2.21-8.45-5.66-9.82-9.02-9.16  c-6.68,1.32-11.19-1.55-16.33-4.02c-4.33-2.08-8.9-3.53-13.5-4.85c-2.65-0.76-6.1-1.89-7.85,0.26c-6.3,7.75-15.74,7.42-23.97,10.15  c-6.59,2.18-12.47,5.56-17.88,9.83c-2.44,1.93-5.92,4.4-5.54,7.05c1.86,12.85-7.13,24.01-5.17,36.73  c-0.91,6.04-0.05,11.52,4.81,15.83c1.01,0.89,2.02,1.97,2.47,3.23c5.83,16.24,16.17,28.13,32.58,34.38c2.4,0.92,3.67,3,2.68,5.81  c-4.84,3.59-11.99,3.43-15.3,9.49c-9.5,12.18-15.29,27.17-27.9,37c-3.35,2-6.85,3.7-10.57,4.92c-12.37,4.03-9.16,14.21-9.12,23.14  c-0.44,2.72-1.48,5.09-3.83,6.72c-2.68,1.23-5.32,1.24-7.9-0.29c-2.4-2.4-2.27-5.56-2.62-8.6c-2.77-24.34-20.49-41.32-44.66-42.85  c-14.74-0.93-14.72-0.94-18.17-15.34c-1.43-5.99-3.04-11.95-3.71-18.08c-0.65-5.97,1.96-8.33,7.91-6.69  c6.7,1.84,11.15,5.7,13.88,12.39c5.49,13.43,12.33,16.32,25.68,10.87c14.96-6.1,23.07-17.97,24.99-33.69  c3.46-28.38-5.19-51.44-29.21-68.78c-12.33-8.9-25.41-17.54-34.02-30.79c-1.05-1.97-1.57-4.21-3-6c-0.66-0.56-1.31-1.12-2-1.62  c-1.56-0.95-3.18-1.79-4.66-2.88c-5.67-5.76-13.04-10.17-14.97-18.9c-0.6-10.59-0.98-21.18,0.2-31.75  c1.18-5.49,7.68-7.23,8.71-12.37c-2.28,1.5-1.94,8.81-7.96,3.96c-1.76-4.61-1.29-9.44-1.2-14.17c0.3-16.03-0.52-31.97-2.24-47.91  c-4.37-40.42-41.32-64.83-78.02-51.2c-16.56,6.15-26.6,18.68-32.01,34.89c-3.67,11-5.29,22.53-5.49,34.19  c-1.65,7.46-1.32,14.77,1.72,21.87c0.63,7.12,1.12,14.25-0.38,21.32c-5.52,7.32-6.82-2.13-10.06-2.6  c2.86,4.16,8.51,6.13,10.24,11.66c1.05,8.83,1.41,17.64-0.22,26.43c-5.62,8.28-15.9,11.44-21.62,19.62  c-6.86,5.51-15.94,5.34-23.45,9.18c-2.74,4.95-0.39,10.74-2.58,15.77c-5.29,8.83-14.18,13.58-22.17,19.26  c-25.77,18.32-35.26,43.93-27.17,74.16c3.88,14.48,13.35,24.2,26.38,30.82c6.51,3.3,11.68,2.08,15.51-4.56  c5.68-9.83,14.94-15.51,24.7-20.55c3.5-0.46,6.48,0.46,8.74,3.29c1.47,2.46,1.65,5.12,1.27,7.87c-1.56,6.44-7.03,9.89-11.06,14.46  c-2.96,2.78-6.16,5.19-10.04,6.58c-9.21,2.69-19.73,2.01-26.74,10.4c-3.67,3.29-8.44,4.14-12.85,5.8  c-16.24,6.13-28.48,15.62-29.33,34.76c-0.09,2.03-0.68,4-2.13,5.59c-4.34,2.51-9.23,2.83-14.03,3.49c-4-0.05-7.35-1.61-10.17-4.39  c-3.02-3.67-6.4-7.02-9.63-10.51c-9.36-10.11-16.2-21.32-19.34-35.17c-2.6-11.46-5.85-23.14-14.17-32.33  c-0.71-0.79-1.13-1.71-1.27-2.75c0.75-3.85,3.65-5.9,6.95-6.61c25.91-5.58,32.01-25.16,34.07-47.69c0.06-0.67,0.04-1.35,0.03-2.02  c-0.28-10.85-3.8-21.38-2.57-32.46c0.55-4.94-3.46-8.7-6.93-12.08c-3.87-3.77-8.58-6.76-10.14-12.52  c-0.82-3.04-3.66-3.94-6.53-4.01c-9.19-0.22-18.42-1.06-27.29,2.67c-4.84,2.04-9.47,5.78-15.38,2.2c-2.03-1.23-3.97,0.91-4.98,2.59  c-4,6.59-10.31,10.81-15.7,16c-15.48,14.88-18.53,39.51-7.95,61.68c0.58,0.81,1.1,1.66,1.59,2.52c3.44,6.31,7.76,11.86,13.52,16.25  c5.31,4.05,5.88,8.79,1.63,13.96c-5.17,6.29-10.45,12.49-19.1,14.1c-4.34-0.46-8.14-3.5-12.77-2.67c-2.51,0.45-4.53,1.53-5.24,4.13  c-0.86,3.18,1.65,3.87,3.74,5.05c5.4,3.05,10.77,3.69,16.27,0.36c8.05-0.42,14-7.96,22.56-6.67c1.52,1.76,1.44,3.81,0.73,5.76  c-6.66,18.15-11.4,37.08-21.9,53.66c-2.92,4.62-5.95,9.22-4.26,15.15c-0.25,4.39-1.66,8.3-4.76,11.51  c-13.53,6.44-28.43,8.15-42.65,12.24c-2.95-0.07-4.8-1.96-6.57-3.97c-2.28-2.79-5.13-5.18-6.5-8.66  c-2.55-9.13,0.23-14.75,9.84-17.66c11.73-3.56,19.06-11.56,19.77-24.45c0.1-2.53,0.16-5.06,0.18-7.59  c4.79-16.88-4.66-29.41-13-42.25c-1.64-2.53-4.04-4.63-3.87-8.02c6.24-12.51,0.35-22.23-14.09-23.15  c-3.06-0.19-6.41,1.35-9.15,0.01c-22.66-11.12-38.8,6.4-54.65,15.51c-13.21,7.59-19.26,24.55-18.85,42.66  c0.33,14.48,8.83,25.42,11.37,38.59c0.19,1,0.81,2.11,1.66,2.53c12.07,5.91,21.78,18.15,37.83,13.36  c5.44-1.62,11.41-2.78,16.82,0.98c1.95,2.89,1.9,6.02,1.14,9.25c-1.64,4.32-4.77,7.88-6.28,12.28c-2.7,4.76-2.15,11-6.7,14.94  c-24.45,11.88-49.4,22.94-69.33,42.26C54.6,701.33,52.74,702.38,50.49,701.58z"></path>	<path class="st1" d="M50.49,701.58c21.24-20.48,46.27-34.76,73.69-45.13c2.88,3.13,1.43,6.36,0.11,9.48  c-8.76,20.63-17.59,41.22-26.73,61.68c-1.53,3.42-3.39,6.7-7.06,8.4c-9.71,1.9-19.57,3.1-28.84,6.89  c-8.35,3.41-15.25,8.22-16.12,18.02c-0.85,9.55,4.18,16.44,11.8,21.29c10.58,6.74,22.37,10.07,34.89,10.76  c3.07,0.17,6.15,0.16,9.23,0.07c15.43-0.46,30.24,0.83,45.15,6.51c28.13,10.72,57.65,9.46,87.06,5.97  c7.07-0.84,13.29-3.65,17.78-9.2c5.31-6.56,11.48-6.89,19.26-5.1c28.95,6.67,57.61,5.93,85.66-4.87  c20.39-7.86,27.37-19.48,23.78-41.11c-1.18-7.1,1.64-10.33,8.19-11.33c51.08-7.77,102.39-13.83,154.11-10.23  c34.05,2.37,67.79,8.34,101.69,12.56c16.91,2.11,33.71,4.87,50.97,2c11.46-1.9,26.68,7.37,28.31,17.48  c2.35,14.52,12.19,19.97,24.25,22.96c12.91,3.21,26.06,5.61,39.44,6.17c3.76,0.16,7.49,0.87,11.22,0.99  c13.85,0.44,26.51,4.22,39.22,10.02c25.6,11.69,51.96,11.84,78.93,2.9c31.98-10.6,40.79-35.89,20.74-62.86  c-2.24-3.02-4.88-5.73-7-8.83c-3.6-9.28-4.15-19.3-6.96-28.77c-0.42-2.14-0.43-4.25,0.56-6.27c0.92-1.24,2.36-1.85,3.5-0.94  c9.5,7.57,19.8,14.46,24.07,26.74c9.51,17.18,15.25,35.2,9.55,54.83c-6.34,21.87-23.22,34.01-42.75,42.64  c-28.93,12.77-59.77,18.29-90.98,21.66c-99.72,10.77-199.89,6.49-299.87,8.94c-66.99,1.64-133.96,2.06-200.9,0.83  c-62.63-1.15-125.39-3.54-187.12-15.99c-24.04-4.85-47.66-11.05-69.31-23.53C34.08,786.51,15.64,740.34,50.49,701.58z"></path>	<path class="st2" d="M834.61,520.75c2.03-3.7,4.78-7.13,4.6-13.99c-2.54,5.12-8.1,2.31-9.32,7.62c-0.5,2.19-2.84,3.19-4.92,1.82  c-1.72-1.13-2.63-3-1.33-5.26c1.32-2.31,1.85-5.75,3.79-6.91c5.51-3.29,8.62-5.67,0.31-9.22c-1.85-0.79-1.82-3.75-0.28-4.17  c5.46-1.51,4.3-10.5,11.38-9.7c1.68,0.19,3.3,0.86,4.98,1.08c2.55,0.34,6.43,1.47,6.5-2.04c0.05-2.29-3.2-4.43-6.91-2.83  c-2.81,1.21-4.7-0.66-4.65-3.54c0.05-2.91,2.24-4.17,4.91-3.97c11.46,0.85,23.02-0.13,33.89-2.89c8.06-2.05,9.61,2.68,13.87,6.71  c-0.95-4.41-1.68-8.88-2.92-13.21c-0.8-2.8-0.25-4.92,2.23-5.98c3.26-1.38,4.87,1.63,4.65,3.62c-0.85,7.6,8.94,6.3,10.38,12.78  c0.35,1.58,5.83,4.67,5.28,9.18c3.9-0.5,3.27-2.64,3.9-4.03c1.19-2.66-4.51-6.35,0.25-7.7c3.96-1.12,5.62,3.79,7.34,6.66  c2.7,4.5,3.5,10.54,10.43,10.9c4.36,0.24,7.9,1.59,9.39,6.26c0.74,2.33,2.12,3.9,4.96,4.42c5.85,1.06,9.35,4.04,6.53,10.66  c-0.59,1.39-0.3,2.58,0.78,3.65c1.93,1.92,4.28,3.8,1.53,6.79c-4.38,4.76-4.25-4.19-9.55-1.59c7.41,5.02,7.2,14.14,13.45,19.65  c1.7,4.76-0.47,9.38-0.54,14.08c-0.04,2.48-1.07,4.83-3.88,5.29c-3.61,0.59-5.66-1.08-5.28-5.33c-0.95,3.87,0.86,6.45,2.32,9.31  c3.67,7.2,2.43,9.13-5.82,8.75c-1.62-0.07-2.68-0.14-2.81,1.19c-1.16,11.41-13.2,13.42-18.46,21.47  c-3.84,5.88-11.91,2.85-17.91,4.64c-6,1.79-13.14,2.86-19.95,2.29c-3.54-0.47-6.97-1.07-6.48-5.96c0.14-1.36,0.15-2.75-0.35-4.04  c-4.69-12.15-4.72-12.19,6.59-18.19c4.28-2.27,8.53-4.52,10.34-9.38c1.03-2.78,0.79-5.6-2.1-7.14c-2.58-1.38-4.52,0.3-6.17,2.2  c-1.13,1.3-1.97,2.78-2.72,4.32c-1.48,3.04-2.51,6.82-7.01,6.09c-3.96-0.64-5.34-4.24-6.37-7.37c-2.15-6.56-2.53-13.37-0.26-20.02  c1.44-4.2,1.35-7.74-1.98-10.75c-1.19,0.5-1.53,1.01-1.69,1.74c-0.86,3.84,0.25,9.41-4.63,10.42c-5.42,1.12-5.62-4.81-7.4-8.18  c-4.71-8.93-6.06-9.39-15.34-4.23c-2.18,1.21-4.36,2.45-6.67,1.05C832.52,525.95,833.04,523.33,834.61,520.75z"></path>	<path class="st0" d="M886.48,595.45c8.38-1.17,16.75-2.26,24.92-4.76c2.26-0.69,5.18-3.09,8.34-0.04c3.05,2.95,4.43,0.47,5.11-2.76  c1.01-4.82,3.18-8.6,9.11-7.54c1.99,0.36,4.33-0.7,4.01-1.97c-1.89-7.49,7.26-10.53,5.83-17.58c2.59,0.89,3.25,2.14,3.27,4.1  c0.03,2.47,1.36,3.98,3.89,2.71c1.97-0.99,3.3-3.14,1.33-4.9c-5.89-5.26-3.77-12.13-4.48-18.56c5.2,0.09,3.82,3.63,3.8,6.45  c-0.02,2.12,1.28,2.99,3.2,3.06c2.16,0.08,3.66-1.69,2.87-3.11c-3.22-5.81,2.64-9.9,2.4-15.04  c15.38,33.01,20.99,67.34,16.45,103.74c-3.49,27.96-9.93,54.56-25.15,78.57c-7.97-9.74-16.61-18.8-26.52-26.61  c-4.79-3.19-5.31-8.55-6.58-13.42c-2.16-8.26-4.38-16.5-7.26-24.54c-5.84-18.25-16.29-33.77-28.52-48.25  C881.12,600.7,881.62,597.16,886.48,595.45z"></path>	<path class="st3" d="M596.61,412.4c13.17,16.4,31.69,26.75,46.61,41.18c11.76,11.37,18.29,24.97,18.93,41.48  c0.7,18.15-0.17,35.48-15.44,48.67c-6.83,5.89-14.78,8.74-23.21,9.61c-8,0.82-13.2-4.5-16.37-11.5c-1.26-2.78-1.49-6.06-2.93-8.71  c-2.91-5.35-9.38-7.49-13.77-6.78c-5.22,0.84,0.4,6.05-0.07,9.45c-0.31,2.2,0.84,4.62,1.42,6.92c1.49,5.86,1.55,12.86,4.95,17.25  c3.6,4.64,11.06,0.87,16.62,2.14c21.62,4.96,42.67,17.36,43.1,53.63c4.67,9.76-0.65,17.34-5.62,24.86  c-2.77,4.19-6.4,7.69-10.44,10.72c-4.53,2.76-9.6,4.12-14.64,5.55c-7.8,2.36-15.29,5.68-23.26,7.49  c-10.49,3.08-20.54,7.13-29.23,13.94c-12.03,9.43-21.12,9.18-32.31-1.14c-1.5-1.38-2.79-2.97-3.97-4.63  c-5.78-7.47-11.43-14.9-19.68-20.16c-7.77-4.95-15.76-7.53-24.9-6.43c-3.04,0.36-6.08,0.71-8.82-1.17  c-1.73-4.42,2.14-5.18,4.56-6.45c18.37-9.65,34.15-22.61,48.38-37.56c8.65-9.09,18.42-16.73,28.28-22.77  c-9.82,3.78-20.11,8.69-28.37,17.1c-18.76,19.11-39.47,25.48-63.64,8.97c4.64,2.46,7.94,5.86,11.12,9.4  c3.27,3.64,5.66,7.72,5.75,12.81c0.1,5.51-2.86,9.84-6,13.83c-1.78,2.27-0.48,5.57-3.14,7.24c-5.45,2.37-10.66,0.72-15.85-0.94  c-7.43-2.38-14.76-5.06-22.39-6.78c-10.23-2.31-19.64-0.7-27.62,6.34c-6.23,5.5-13.59,8.86-21.02,12.22  c-16.79,5.84-26.96,2.67-39.28-12.2c-4.9-7.28-9.2-14.92-12.08-23.22c-1.27-3.67-3.18-7.61-0.51-11.59  c-1.93-21.59,10.08-34.59,31.12-42.15c4.13-1.49,8.22-3.1,12.32-4.66c12.95-2.47,24.09,2.81,34.98,8.52  c8.76,4.6,16.77,10.57,25.87,14.58c21.26,9.35,42.34,9.77,63.09-1.55c3.62-1.98,7.28-3.79,11.31-4.7  c23.62-5.31,37.6-19.68,41.22-43.79c0.88-3.09,1.25-6.33,2.63-9.28c4.56-5.75,11.57-6.69,17.91-8.25c7.31-1.81,9.9-5.69,9.42-12.86  c-0.31-4.63-0.63-9.42,1.34-13.91c7.35-3.41,13.09-1.89,16.91,5.52c1.54,10.44,0.56,21.18,3.29,31.45c0.96,3.6,0.81,9.64,5.81,9.38  c4.11-0.21,3.98-5.85,4.46-9.37c1.49-10.83,1.96-21.72-0.38-32.54c-0.9-5.36-1.09-10.81-2.34-16.12c-0.54-2.31-0.33-5.64-2.1-6.65  c-9.87-5.62-12.07-16.56-18.14-24.76C593.14,440.18,590.77,424.15,596.61,412.4z"></path>	<path class="st4" d="M452.35,346.37c0.2-8.23,0.4-16.45,0.6-24.68c6.84-7.27,2.5-13.78-1.38-20.33  c-1.25-24.88,3.81-47.88,24.08-64.18c33.43-26.87,83.49-8.15,93.96,34.65c3.66,14.97,3.94,30.34,4.19,45.67  c0.15,9.54,0.23,19.09,0.35,28.64c0.96,1.36,0.75,2.72-0.01,4.08c-0.24,12.32-0.48,24.63-0.72,36.95  c-4.64,3.31-7.69-0.71-11.26-2.41c-3.11-2.36-6.4-4.62-5.34-9.36c3.48-17.8,1.14-35.77,1.5-53.64c-0.52-3.56,1.48-6.4,2.75-9.48  c1.63-3.94,2.01-7.76-2.26-11.61c-4.49,6.94-2.32,15.15-5.11,22.03c-4.13,20.29-14.99,35.84-32.75,46.52  c-3.29,0.87-6.61-0.04-9.92,0.04c-6.26,0.14-12.6-0.71-17.88,3.83c-2.42-3.24-3.83-7.21-7.69-9.36  c-12.84-7.17-21.57-17.5-23.36-29.95c4.61,12.73-1.41,28.93,3.51,44.08c-3.3,4.95-7.65,5.9-12.91,3.43  c-0.11-10.22-0.22-20.45-0.32-30.67C451.59,349.19,451.39,347.78,452.35,346.37z"></path>	<path class="st5" d="M432.17,527.27c-2.53-1.64-5.26-2.58-8.3-2.51c-15.89-0.28-19.07-3.38-19.25-18.82  c-0.03-2.69-0.06-5.39,0.03-8.07c0.78-5.1-1.07-11.44,6.26-13.56c1.38-0.4,2.81-0.85,0.89-2.49c-6.15-5.27-2.38-7.43,2.94-8.29  c4.03-0.65,2.72-1.49,1.5-4.16c-1.66-3.63,3.8-2.98,4.65-5.65c-1.72-3.06-5.14-2.76-7.89-3.8c-2.17-0.82-5.4-0.96-5.39-3.84  c0.01-3.32,2.93-4.18,5.9-4.27c1.34-0.04,2.76,0.26,4.82-1.47c-15.75-3.61-15.02-14.43-11.98-26.15  c1.49-5.75-2.47-12.27,2.54-17.51c23.38-0.79,45.06,6.28,66.43,14.49c4.83,1.86,6.58,6.81,7.3,11.7  c4.16,28.13,5.19,56.38,2.44,84.69c-0.81,8.29,0.25,17.43-7.39,23.69c-3.75,2.86-7.65,1.91-11.6,0.45  c-7.01-2.61-14.03-5.22-21.24-7.23C440.52,532.22,435.68,530.91,432.17,527.27z"></path>	<path class="st6" d="M136.4,621.67c-6.91-1.15-13.52,0.89-20.24,1.88c-8.74,1.29-17.34,1.8-22.28-7.71  c-1.24-2.4-3.23-2.04-5.17-2.34c-7.89-1.21-12.05-5.58-12.04-13.81c0-2.31-0.14-5.29-1.51-6.82c-13.78-15.49-6.3-33.46-6.11-50.53  c0.03-2.84,2.4-4.8,4.68-6.4c1.38-0.97,3.99-1.73,4.08-2.75c1.16-13.99,13.76-16.06,22.79-20.62c7.88-3.98,16.57-6.4,23.68-12.04  c0.46-0.36,1.44-0.48,1.99-0.25c13.87,5.87,30.48,1.59,43.22,11.77c6.88,5.5,6.24,11.77-2.31,19  c-7.88,4.87-13.38,14.06-24.99,12.69c3.68,10.16,4.05,18.79-6.18,24.54c-1.73,0.97-2.2,3.36-3.05,5.21  c-3.06,6.62-6.99,10.29-13.9,4.13c-1.21-1.08-2.67-2.56-4.4-0.96c-1.36,1.26-1.23,3.06-0.87,4.76c1.15,5.44,5.2,7.32,10.04,8.86  c9.54,3.02,17.13,13.29,17.06,22.95C140.86,616.53,142.04,621.09,136.4,621.67z"></path>	<path class="st7" d="M686.54,475.35c-2.59-2.55-1.84-5.73-1.35-8.67c1.37-8.16,6.97-15.16,4.11-24.7  c-1.34-4.48,4.43-9.49,8.83-12.93c6.79-5.32,14.6-8.33,22.75-10.98c5.71-1.86,13.89,1.11,16.51-8.24c0.74-2.65,5.55-1.94,8.54-1.24  c6.6,1.54,13.17,3.25,19.04,6.84c4.54,2.78,9.03,7.87,13.59-0.12c0.38-0.66,2.38-0.39,3.62-0.55c-2.28,9.97,12.39,2.66,11.36,11.09  c-0.37,3.01-3.71,2.33-5.69,3.36c21.42,22.37,24.62,53.21,7.82,75.29c-2.95-4.05-3.83-9.33-10.85-10.28  c-5.3-0.72-6.61-7.12-7.36-12.22c0.73-1.32-1.77-0.72-0.4-0.62c0.39,0.03,0.37,0.37-0.07,1.01c-3.89,5.71-7.06,5.85-9.72-0.03  c-2.54-5.63-3.53-11.7-2.64-17.74c-3.88,4.82-7.05,11.86-14.85,10.06c-6.86-1.58-5.78-8.25-5.88-13.68  c-16.05,8.34-19.13,7.91-22.89-3.19C710.59,465.78,702.91,479.09,686.54,475.35z"></path>	<path class="st8" d="M316.53,474.4c-0.24,28.07-11.03,47.56-34.41,51.1c-2.66,0.4-6.84,1.42-7.53,5.68  c-2.75,6.79-8.63,4.28-13.57,4.59c-2.21-0.31-4.26-0.96-5.72-2.8c-0.86-4.11-3.41-6.51-6.72-9.28  c-10.21-8.53-22.87-13.59-32.14-23.3l0.12,0.15c-2.78-5.37-3-10.39,2.03-14.66c0.63-0.27,1.37-0.49,1.86-0.16  c8.86,6,8.85,6.01,12.01-4.48c2.81-3.64,1.12-9.35,5.58-12.24c6.25-0.75,9.83-8.24,16.26-6.6c-5.97-2.85-9.46,7.16-16.26,4.11  c-1.22-3.1-0.2-6.03,0.6-8.99c3.4-12.68,4.51-13.27,16.79-9.1c7.29,2.48,14.9,6.86,20.43-3c0.3-0.53,1.15-0.94,1.77-0.89  c10.6,0.85,20.67,4.19,30.5,7.79c5.72,2.09,5.01,9.18,6.73,14.17C315.7,468.98,315.16,471.92,316.53,474.4z"></path>	<path class="st9" d="M563.65,537.36c-2.21,21.75-12.83,36.96-34.17,43.77c-8.42,2.68-16.48,6.09-24.51,9.86  c-22.46,10.56-44.39,7.49-65.73-4.01c-13.44-7.24-25.72-16.78-41.27-19.9c-4.25-0.85-9.05,0.47-12.81-2.71  c6.65-10.43,17.92-9.01,27.91-10.88c9.91-2.25,17.95,2.97,26.05,7.04c16.63,8.34,33.66,14.79,52.76,13.86  c-27.46,1.48-47.8-15.4-70.21-26.95c3.54-4.07,7.08-8.14,10.62-12.21c0.82-0.62,1.74-0.92,2.76-0.94  c17.66,0.78,30.92,11.65,45.3,19.9c5.31,3.05,10.31,6.62,15.9,9.21c9.16,4.26,17.29-0.43,25.69-2.73c0.98-0.27,1.98-1.04,1.52-2.26  c-3.67-9.81,4.68-10.9,10.14-12.88C543.37,542,552.63,536.26,563.65,537.36z"></path>	<path class="st10" d="M686.54,475.35c0.99-0.93,2.29-2.85,2.91-2.65c13.97,4.47,18.33-9.08,27.05-14.32  c2.88-1.73,5.4-4.04,8.32-6.27c1.55,4.16-4.52,9.3,0.38,11.34c8.33,3.47,14.16-3.81,21-7.7c0,4.34,0,8.31,0,12.28  c0,2.52,0.5,4.97,3.12,5.88c2.53,0.88,4.68-0.44,6.31-2.36c3.44-4.05,6.78-8.19,10.85-13.12c0.74,9.84-0.91,19.57,5.82,27.47  c4.67-2.47,2.82-7.87,6.18-10.68c0.56,5.24,1.49,10.21,3.92,14.72c1.1,2.04,2.68,5.35,5.12,3.98c11.48-6.43,7.28,3,7.94,7.53  c0.15,1,0.14,2.03,0.2,3.05c-0.59,0.77-1.18,1.54-1.77,2.31c-8.54,6.95-18.5,11.84-27.09,18.72c-6.54,3.78-15.04,2.93-20.71,8.76  c4.09,6.62,0.83,11.6-3.65,16.31c-3.9,1.76-7.49,1.28-10.76-1.5c-4.08-4.44-3.76-9.37-1.57-14.51  c-18.79-8.84-31.14-23.54-40.63-41.79C686.26,486.63,683.2,481.96,686.54,475.35z"></path>	<path class="st11" d="M255.21,531.91c0.81,1.29,1.94,1.72,3.4,1.3c7.77,2.17,9.22,9.01,11.35,15.35  c4.52,20.93,8.74,41.88,5.72,63.5c-0.64,4.6,1.27,8.64,3.16,12.66c1.73,3.67,3.78,7.29,3.01,11.62  c-2.91,6.68-9.28,8.96-15.14,11.89c-6.8,2-9.11-3.46-11.57-7.61c-4.19-7.07-9.6-10.24-18.1-10.83c-8.84-0.61-18.48-1.59-24.3-10.33  c-5.1-2.76-3.57-5.74-0.93-9.62c13.55-19.92,19.84-42.93,27.36-65.4C242.21,537.32,245.76,530.84,255.21,531.91z"></path>	<path class="st12" d="M220.14,486.24c-4.39,3.97-3.19,9.34-3.6,14.3c-14.77-18.98-10.31-52.7,9.28-68.7  c4.68-3.82,9.41-7.05,12.02-13.11c2.36-5.49,4.58-5.34,10.58-1.58c2.39,1.49,3.7-0.69,5.27-1.44c11.68-5.58,23.94-7.75,36.66-5.52  c3.86,0.68,10.44,0.5,7.24,8.46c-1.54,3.82,3.03,3.68,4.93,5.02c11.89,8.46,13.32,13.64,11.27,28.12  c-1.04,7.35,4.78,14.64,2.75,22.6c-0.55-0.4-1.58-0.81-1.58-1.21c0.08-23.58-20.1-20.64-33.96-25.89c-1.2-0.45-3.75-2.06-4.13,0.45  c-1.89,12.72-10,6.25-16.25,5.49c-5.66-0.69-12.08-7.81-15.54-4.47c-4.27,4.12-5.63,12.03-5.71,18.97  c0.52,0.67,0.38,1.13-0.44,1.38c-4.22,3.24,0.96,10.79-5.88,12.83C229.56,485.82,225.78,488.82,220.14,486.24z"></path>	<path class="st13" d="M770.8,545.52c10.57,11.3,12.4,26.25,15.88,40.22c4.26,17.05,9.09,34.17,8.82,52.05  c-0.34,1.85-1.45,3.13-3.04,4.04c-16.81,5.79-22,4.48-32.47-8.99c-3.27-4.21-6.83-6.27-12.25-5.3c-8.12,1.45-16.35,0.97-24.53,0.73  c-4.5-0.13-9.05-0.63-10.68-6.04c1.39-6.73,1.72-13.66,3.77-20.28c5.01-5.73,11.81-3.29,17.93-3.93c5.14-0.26,6.89-3.34,7.2-8.1  c0.42-6.52-0.95-12.92-0.86-19.42c1.08-11.42,7.93-18.75,17.16-24.51C762.09,543.27,766.32,542.39,770.8,545.52z"></path>	<path class="st14" d="M886.48,595.45c-4.08,2.32-2.6,5.82-1.93,9.14c-5.1,8.54-11.47,9.62-19.74,3.32  c0.89-8.24-0.93-12.63-11.02-13.65c-14.72-1.5-18.25-10.03-24.09-26.85c-1.96-5.64,0.66-14.23-6.55-18.31  c-0.73-0.42-1.12-3.34-0.68-3.63c8.87-5.92,6.05-17.51,12.14-24.71c0.06,4.52-0.35,9.49,6.28,3.97c9.8-8.16,15.41-6.42,20.02,6  c0.93,2.49-1.57,7.57,3.23,6.89c3.55-0.5,3.69-5.63,3.04-8.59c-1.1-5.1,0.34-8.1,4.97-5.34c4.14,2.47,7.9,8.2,4.8,13.03  c-5.72,8.91-1.34,16.62,0.77,24.81c0.4,1.53,1.27,2.36,2.76,2.43c2.08,0.1,3.36-1.22,3.13-3.09c-0.49-4.04,2.56-5.74,4.45-8.45  c2.75-3.96,5.03-6.34,9.62-3.02c4.57,3.3,5.35,7.28,2.93,12.45c-3.27,7-10.54,8.25-16.15,11.77c-4.86,3.05-12.4,4.48-1.36,9.71  c2.62,1.24,2.06,4.92,0.64,7.41C881.79,594.17,884.32,594.61,886.48,595.45z"></path>	<path class="st15" d="M136.4,621.67c4.96-12.84-1.55-26.24-14.36-28.68c-7.67-1.46-10.76-6.47-12-13.27  c-0.69-3.78,1.24-6.84,4.43-8.49c3.89-2.01,4.22,2.3,5.65,4.11c4.96,6.27,8.27,4.95,10.28-2.06c1.4-4.89,2.4-8.88,8.79-10.6  c4.31-1.16,3.9-7.23,2.33-11.76c-1.95-5.65-3.01-10.46,6.08-9.8c3.62,0.26,7.55-1.85,9.27-5.45c2.27-4.74,6.16-4.68,10.3-4.63  c6.38,6.36,10.99,13.84,14.15,22.25c0.57,1.53,0.97,3.79,2.11,4.32c6.13,2.9,6.78,6.22,3.04,12.02c-1.77,2.75-0.78,7.28-1.04,11.01  c-3.39,4.67-8.87,3.77-13.89,4.59c3.83,6.5,9.13,3.47,13.86,3.24c-0.17,13.6-7.31,22.95-19.74,26.42  c-9.84,2.75-11.97,7.85-10.14,16.56c-8.05,6.47-11.48,6.46-19.38-0.06C136.22,628.17,136.31,624.92,136.4,621.67z"></path>	<path class="st16" d="M91.27,734.32c10.82-24.27,21.67-48.52,32.4-72.83c0.65-1.47,0.37-3.35,0.52-5.04  c2.05-4.79,4.09-9.58,6.14-14.37c9.84-4.78,20.79-1.44,30.91-4.19c1.35,1.35,2.69,2.7,4.04,4.06c0.47,0.52,0.69,1.09,0.66,1.7  c-0.02,0.63-0.1,0.94-0.21,0.94c-2.56,4.51-8.25,3.74-12.51,7.33c6.59,2.57,11.3-2.34,16.62-2.48c3.47,1.04,4.57,3.56,4.35,6.91  c-1.98,4.1-5.93,5.57-9.82,6.58c-7.83,2.03-13.51,6.13-15.51,14.15c10.14-0.97,18.18-9.94,29.25-8.86c2.31,1.7,3.29,3.84,2.27,6.67  c-6.6,6.42-15.51,8.22-23.66,11.2c-10.7,3.91-18.21,10.08-20.6,21.55c-4.38,8.98-8.87,17.9-12.32,27.3  c-4.81,8.04-5.47,18.37-13.53,24.63c-8.17-3.67-17.58-5.03-23.66-12.65C85.76,741.83,87.76,737.8,91.27,734.32z"></path>	<path class="st3" d="M407.09,496.43c-0.02,0.68-0.04,1.36-0.04,2.04c-0.02,19.25-0.02,19.25,16.82,26.28  c-8.68,7.86-19.8,12.91-25.13,24.7c-1.92,4.24-8.06,4.85-13.65,2.43c-26.08-11.27-35.58-36.99-32.2-63.23  c2.88-22.33,15.33-37.93,33.69-49.82c6.53-4.23,12.47-9.38,18.68-14.1c1.42,9.87,4.67,20.14-6.25,27.21  c-1.11,0.72-1.86,2.02-2.31,3.31c-6.15,17.63-17.08,34.12-13,54.21c0.13,0.65,0,1.36,0.01,2.02c0.56,7.83,2.75,15.27,5.63,22.53  c0.75,1.88,1.76,4.15,4.05,3.95c2.33-0.21,2.68-2.71,3.24-4.65c2.66-9.26,1.93-18.78,2.09-28.23c0.05-2.7,0.08-5.42,1.13-8  C402.02,494.27,404.21,491.45,407.09,496.43z"></path>	<path class="st17" d="M279.86,637.95c0.11-0.67,0.53-1.49,0.29-1.99c-13.5-27.8-2.81-59.03-12.43-87.36  c1.8-10.98,3.03-11.62,11.97-6.23c5.05,4.72,5.3,11.49,7.35,17.48c0.54,1.59,1.05,3.26,1.22,4.91  c1.99,20.32,10.07,36.41,30.3,44.21c2.75,1.44,5.5,2.89,8.25,4.33c8.96,2.78,14.67,9.18,19.12,17.04c1.75,3.1,2.89,6.12,0.65,9.43  c-10.02-2.64-17.64,1.85-24.65,8.26c-2.52,2.31-5.36,4.22-8.17,6.17c-15.89,11.06-21.69,9.66-31.47-7.65  C280.77,643.87,279.01,641.29,279.86,637.95z"></path>	<path class="st3" d="M452.67,381.27c4.14-1.3,8.28-2.6,12.42-3.9c4.99-4.12,11.05-3.17,16.82-3.53  c7.22,7.48,14.1,15.26,22.66,21.47c3.39,2.46,4.66,2.65,7.14-0.4c3.02-3.71,7.04-6.42,10.73-9.42c2.16-1.76,4.73-4.72,7.68-0.72  c2.25,9.54-0.96,18.27-3.98,27.02c-4.64,6.09-11.56,9.33-17.54,13.72c-5.73,4.22-11.03,1.75-15.76-2.1  c-12.05-9.81-26.07-15.59-40.43-21.07c-6.73-2.57-14.49,0.39-20.42-4.73C436.87,389.63,444.24,384.77,452.67,381.27z"></path>	<path class="st18" d="M663.87,615.76c0.77-2.25,1.54-4.5,2.3-6.75c10.35-5.36,11.43-7.89,7.65-18.66c-0.83-2.36,0-3.92,1.65-5.38  c3.71-1.6,7.41-3.21,11.12-4.81c7.08-3.31,12.47-0.71,16.99,4.88c-0.11,6-5.64,8.06-8.67,11.94c-5.14,6.68-5.29,14.39-4.59,22.3  c-2.58,16.04-5.29,32.03-5.26,48.38c0.01,5.18,0.17,11.06-5.05,14.75c-6.74,2.21-13.44,2.33-20.12-0.24  c-7.26-6.62-4.58-15.04-4.18-23.05c1.8-9.99,1.71-20.21,3.57-30.2C660.12,624.28,660.3,619.44,663.87,615.76z"></path>	<path class="st19" d="M212.73,619.45c9.82,4.82,19.89,8.98,31.08,8.58c5.26-0.19,7.56,2.7,10.53,6.39  c3.51,4.35,3.92,12.01,11.71,12.32c7.79,7.65,7.71,12.75-0.64,18.32c-6.15,4.1-12.83,7.24-19.98,9.29  c-5.82,1.17-10.46-1.76-15.19-4.37c-5.91-4.56-12.37-8.58-16.89-14.64c-5.6-7.49-10.45-15.38-5.16-25.22  C209.7,626.57,211.21,623.01,212.73,619.45z"></path>	<path class="st20" d="M609.12,497.94c-4.79-1.83-9.59-3.65-14.38-5.48c-2.68-0.51-5.28-1.46-8.06-1.43  c-3.2,0.04-6.57-0.22-7.44-3.94c-0.93-3.95,1.28-6.41,5.09-7.73c-4.22,1.6-9.67,3.75-11.02-2.23c-1.79-7.97,6.09-6.79,10.65-8.81  c-4.38,1.05-8.96,2.66-11.87-2.15c-2.08-3.43,0.58-5.67,2.99-7.73c1.27-0.77,2.68-1.04,4.12-1.17c2.17-0.39,4.2-1.23,6.47-2.07  c-2.63,0.35-4.84,1.64-7.37,1.42c-7.98-5.43-7.73-7.27,1.79-13.38c8.96-1.36,12.17-6.61,11.56-15.5  c-0.43-6.28-0.93-12.73,0.91-18.98c0.52-0.99,1.22-1.81,2.11-2.48c2.68,1.39,1.11,4.12,1.92,6.11c-0.14,7.49-0.13,14.98-0.47,22.46  c-0.25,5.4-0.01,10.15,6.32,12.18c2.31,0.74,3.73,2.83,4.25,5.37c1.65,8.03,4.28,14.34,13.17,18.24  c5.75,2.52,3.18,11.78,5.04,17.86c0.97,3.17,0.63,6.74,0.89,10.13c1.15,6.2-1.37,8.36-7.21,6.2  C614.85,503.46,610.93,502.08,609.12,497.94z"></path>	<path class="st21" d="M431.98,397.62c22.94-0.87,42.19,8.87,59.8,21.99c7.49,5.58,12.97,8.41,20.41,0.4  c3.32-3.58,8.49-5.45,12.81-8.09c2.05-5.88,7.45-7.31,12.4-9.39c8.44-3.54,17.29-5.51,26.24-7.2c9.17-0.41,17.09,2.94,24.4,8.13  c1.37,0.53,2.73,1.07,4.1,1.6c-1.35,3.8-4.81,3.22-7.69,3.53c-21.84,2.33-42.3,9.77-62.96,16.58c-5.42,1.79-6.98,5.9-8.96,10.18  c-8.21,5.05-16.1,5.72-23.42-1.67c-2.06-6.7-8.14-9.44-13.6-11.38c-21.71-7.74-43.74-14.58-67.07-15.51  c-0.41-0.32-0.83-0.65-1.24-0.98C415.46,403.08,423.72,400.35,431.98,397.62z"></path>	<path class="st20" d="M380.92,512.83c0.09-9.51-1.08-19.25,0.59-28.47c2.1-11.59,12.42-20.37,12.96-32.9  c0.02-0.56,0.67-1.4,1.2-1.57c13.48-4.48,9.83-15.46,9.59-25.14c1.49-6.22-1.77-12.93,1.95-18.92c0,0,0.24,0.59,0.24,0.59  c0.76,0.37,1.02,0.75,0.79,1.15c-0.24,0.41-0.48,0.61-0.73,0.61c-0.01,6.8,0.24,13.61-0.08,20.4c-0.42,8.98-1.29,17.81,11.58,18.53  c2.91,0.16,5.3,2.29,4.51,5.57c-0.93,3.81-4.33,2.23-6.84,2.23c-2.55,0-5.18-2.35-8.46,1.21c3.68,0.93,6.95,1.62,10.13,2.6  c3.78,1.16,9.32,1.75,8.66,6.74c-0.52,4-5.93,0.96-9.4,2.87c2.4,2.04,6.92,1.06,7.42,4.86c0.3,2.25-1.72,2.5-3.43,2.71  c-3.55,0.42-7.35-1.25-10.93,1.28c0.67,3.37,3.81,2.15,5.59,3.19c1.78,1.04,3.73,2.14,2.96,4.63c-0.57,1.83-2.42,2.75-4.09,2.21  c-10.21-3.35-6.56,5.14-8.03,9.24c-1.89-2.72-3.81-1.52-5.74-0.06c-2.83,5.5-7.12,9.79-11.69,13.79  C387.24,512.3,384.85,515.31,380.92,512.83z"></path>	<path class="st1" d="M208.18,630.13c-2.17,18.7,10.77,28.11,23.26,37.79c0.59,5.39-3.91,5.47-6.76,5.18  c-14.96-1.49-27.25,3.2-37.02,14.6c-1.73,0.36-3.11-0.33-4.36-1.44c-2.63-3.35-4.19-7.05-3.67-11.42c0.19-2.37-0.77-4.34-2.15-6.17  c-3.8-3.2-5.16-7.3-4.43-12.15c-1.19-2.12-2.38-4.24-3.58-6.35c-3.2-0.88-4.09-3.26-4.06-6.24c-0.07-0.66-0.12-1.31-0.14-1.97  C179.17,636.49,193.86,633.99,208.18,630.13z"></path>	<path class="st22" d="M864.81,607.91c7.23,2.76,13.88,2.09,19.74-3.32c13.06,13.67,22.83,29.28,28.08,47.55  c-1.47,1.84-3.45,2.1-5.6,1.84c-4.32-1.02-5.16-4.95-6.75-8.2c-2.63-5.37-5.79-10.31-12.6-9.95c-6.74,0.35-8.38,5.84-9.87,11.18  c-0.46,1.64-1.19,3.15-2.64,4.2c-8.37,0.96-16.18,0.2-21.86-7.1C855.28,631.45,857.55,618.89,864.81,607.91z"></path>	<path class="st13" d="M703.24,586.47c-4.58-4.66-10.43-5.99-16.65-6.3c11.03-10.64,17.3-24.76,26.64-36.63  c12.5,5.03,17.84,14.86,18.65,27.76c0.56,7.18,2.55,14.54-2.46,21.07c-3.03,2.27-5.89,0.64-8.25-0.95  C715.66,587.73,708.95,589.02,703.24,586.47z"></path>	<path class="st23" d="M793.29,639.9c0.74-0.7,1.48-1.41,2.22-2.11c18.7,4.98,37.5,9.65,55.6,16.65c2.28,2.13,2.29,4.96,2.39,7.76  c-0.1,4.39-1.38,8.58-2.26,12.84c-0.68,2.05-1.44,4.05-4,4.37c-4.38-3.64-7.91-8.19-12.65-11.48c-12.06-8.38-24-9.96-35.94,0.19  c-4.75,0.66-7.7-1.49-9.21-5.88C789.05,654.51,789.46,646.91,793.29,639.9z"></path>	<path class="st24" d="M511.25,434.48c-0.55-5.89,1.63-9.14,7.7-11.25c23.86-8.32,47.79-16.14,73.19-18.16  c0.84,0.41,1.69,0.82,2.54,1.23c-0.08,0.63-0.21,1.25-0.38,1.86c-4.92,3.71-10.95,3.5-16.58,4.52  c-13.45,2.44-26.54,6.19-39.68,9.89c-9.21,2.59-13.27,8.5-14.43,17.57c-3.61,28.24-1.67,56.43,0.15,84.64  c0.38,5.83,3.77,10.98,3.85,16.89c-2.9,5.66-6.97,7.19-12.5,3.53c-3.08-3.99-3.85-8.73-3.88-13.53  C511,499.26,510.82,466.87,511.25,434.48z"></path>	<path class="st25" d="M255.21,531.91c-8.02,0.76-10.58,8.49-16.04,12.53c-6.9,4.59-13.71,9.41-22.6,9  c-4.72-2.47-4.87-5.87-2.01-9.88c5.68-2.26,9.83-6.69,14.19-10.63c6-5.42,8.58-10.73-0.58-16.65c-5.45-3.52-10.21-8.83-11.73-15.88  c13.19,6,23.97,15.92,36.66,22.69C257.55,525.47,260,527.63,255.21,531.91z"></path>	<path class="st26" d="M421.69,547.43c7.94,0.22,14.17,4.89,20.62,8.48c18.02,10.03,36.07,19.47,57.97,17.71  c-9.6,3.27-19.29,3.49-28.97,1.66c-12.16-2.3-23.48-7-34.31-12.97c-7.52-4.14-15.69-6.6-23.92-8.83  C415.96,551.46,418.83,549.45,421.69,547.43z"></path>	<path class="st27" d="M663.87,615.76c-1.83,14.27-3.66,28.54-5.49,42.8c-2.73,2.07-5.86,3.12-9.21,3.63  c-10.2,1.55-13.21-2.23-9.8-12.35c9.86-9.28,17.63-19.6,17.07-34.1C658.92,615.75,661.39,615.76,663.87,615.76z"></path>	<path class="st28" d="M318.55,608.98c-6.85-2.9-13.69-5.83-20.56-8.69c-3.38-1.41-4.86-3.55-5.69-7.44  c-2.8-13.23-6.51-26.27-9.68-39.42c-0.81-3.36-1.46-6.64-4.35-8.91c-0.96-4.24-6.24-7.84-1.9-12.87c6.9,4.96,9.24,12.8,10.9,20.2  C292.23,574.02,302.45,593.03,318.55,608.98z"></path>	<path class="st29" d="M770.8,545.52c-13.86,0.34-22.73,8.05-28.18,24.5c-5.3-6.8-4.71-13.71-0.4-20.69  c2.38-4.73,3.78-9.71,3.88-15.03C755.92,534.52,765.62,535.04,770.8,545.52z"></path>	<path class="st30" d="M851.23,662.54c-0.04-2.7-0.09-5.4-0.13-8.1c2.76-3.01,1.31-6.92,2.21-10.33c7.06,3.23,14.52,5.01,22.15,6.19  c3.07,2.86,2.84,6.61,2.78,10.32c-0.67,7.05-5.02,8.98-11.25,7.68C861.49,667.16,855.66,666.71,851.23,662.54z"></path>	<path class="st31" d="M729.5,570.04c0.77-12.64-10.01-18.19-16.28-26.52c2.89-8.13,9.98-8.35,16.88-8.93  c0.7,4.5,1.4,9.01,2.1,13.51C735.48,555.94,736.97,563.54,729.5,570.04z"></path>	<path class="st32" d="M214.55,543.56c-0.15,3.46-0.06,6.87,2.01,9.88c-5.06,3.56-20.05,1.77-23.95-2.83  c-1.19-1.41-1.93-4.01-0.5-4.28c4.52-0.85,2.31-8.16,8.53-7.62C205.92,539.17,210.43,540.46,214.55,543.56z"></path>	<path class="st33" d="M345.69,639.73c1.6-9.27-5.92-13.47-10.77-19.06c-2.38-2.74-5.39-4.93-8.13-7.36  c4.9-1.25,9.81-2.47,14.94-2.12c2.4,11.99,7.63,22.78,14.02,33.08c-3.01,5.8-6.78,10.25-14.29,8.04  C341.18,647.55,343,643.5,345.69,639.73z"></path>	<path class="st34" d="M675.47,584.97c-0.45,1.57-1.71,4.2-0.25,4.62c10.62,3.09,2.93,10.05,2.52,14.5  c-0.57,6.18-6.47,6.01-11.57,4.93C661.65,596.53,665.23,587.26,675.47,584.97z"></path>	<path class="st35" d="M161.24,637.89c-1.31,2.65-3.39,4.07-6.4,4.08c-8.17,0.03-16.34,0.07-24.51,0.11  c0.64-4.26,2.39-7.92,5.81-10.67c6.45,2.59,12.91,2.71,19.38,0.06C157.43,633.61,159.33,635.75,161.24,637.89z"></path>	<path class="st36" d="M588.04,403.46c-8.25-1.78-15.93-6.07-24.68-5.64c-3.35-4.85-6.43-9.73-1.24-15.27  c3.76,1.54,7.53,3.08,11.29,4.62C578.28,392.6,583.16,398.03,588.04,403.46z"></path>	<path class="st37" d="M451.57,301.37c1.84,0.11,4.5-3.91,5.37,0.35c1.34,6.54,2.91,13.38,2.26,19.88  c-0.63,6.32-4.06-0.11-6.25,0.11C448.14,315.21,447.49,308.45,451.57,301.37z"></path>	<path class="st38" d="M185.4,588.49c-7.73,6.63-11.61,5.61-18.58-5.16c6.31-0.91,12.46-1.79,18.61-2.67  C185.43,583.27,185.41,585.88,185.4,588.49z"></path>	<path class="st39" d="M276.37,531.64c-0.78,4.5,3.51,8.24,1.9,12.86c-7.29-8.36-7.97,0.32-10.55,4.1  c-3.02-5.14-4.15-11.4-9.11-15.4c5.28-0.98,11.09,2.15,15.97-2.02C275.21,531.2,275.81,531.35,276.37,531.64z"></path>	<path class="st40" d="M766.8,525.54c6.6-9.76,16.19-15.19,27.09-18.73C787.49,516.87,777.73,522.04,766.8,525.54z"></path>	<path class="st41" d="M519.4,200.95c15.29-0.47,28.98,4.06,41.07,13.37C547.07,209.01,534.05,202.5,519.4,200.95z"></path>	<path class="st42" d="M451.42,225.67c7.32-9.63,17.21-15.56,28.85-18.95C470.53,212.86,460.92,219.18,451.42,225.67z"></path>	<path class="st43" d="M599.28,295.53c-0.07-13.71-2.45-27.05-6.2-40.17C601.09,267.81,601.07,281.53,599.28,295.53z"></path>	<path class="st44" d="M437.24,328.68c-6.79-8.91-10.73-18.84-10.55-30.09C430.82,308.39,432.42,319.06,437.24,328.68z"></path>	<path class="st45" d="M426.93,281.01c-2.29-10.66,1.67-20.04,6.35-29.27C432.25,261.73,427.87,271.02,426.93,281.01z"></path>	<path class="st46" d="M588.36,328.11c3.02-8.3,6.03-16.6,9.05-24.89C598.1,312.97,594.74,321.37,588.36,328.11z"></path>	<path class="st47" d="M434.22,535.64c-0.63-0.16-1.27-0.3-1.91-0.42c-0.05-2.65-0.09-5.3-0.14-7.95c4.62,0.81,9.22,1.68,12.76,5.18  C442.26,536.53,438.42,536.68,434.22,535.64z"></path>	<path class="st48" d="M571.5,222.12c4.64,4.11,9.45,8.08,12.13,13.34c-4.52-3.75-9.26-7.68-14-11.62  C570.26,223.27,570.88,222.69,571.5,222.12z"></path>	<path class="st49" d="M495.08,202.36c6.82-3.77,11.26-4.53,18.16-1.74C506.64,203.48,501.92,202.94,495.08,202.36z"></path>	<path class="st50" d="M452.35,346.37c0,1.41,0,2.82,0,4.23c-5.18-3.83-9.49-8.31-12.99-16.99  C445.72,338.43,447.58,343.96,452.35,346.37z"></path>	<path class="st51" d="M574.12,350.22c0-1.36,0.01-2.72,0.01-4.08c3.94-2.05,4.48-7.48,10.13-9.47  C581.9,342.73,578.76,346.99,574.12,350.22z"></path>	<path class="st52" d="M91.27,734.32c-1.43,4.03-2.85,8.06-4.28,12.08c-0.53,0.84-1.26,1.46-2.15,1.88  c-5.19,1.29-10.64,1.66-15.49,4.22c-5.48,2.89-11,6.13-10.83,13.23c0.19,7.61,5.54,10.97,12.35,12.51  c4.4,0.77,8.98,1.69,13.23,1.38c40.31-2.94,78.95,11.08,118.91,11.41c8.76,0.07,17.73-0.68,24.37-6.29  c15.38-13,33.03-10.96,50.68-9.15c16.89,1.73,33.54,5.83,50.77,3.53c5.96-0.79,11.23-2.78,16.23-5.75  c5.9-3.51,10.23-8.24,9.57-15.67c-0.65-7.31-5.57-11.57-11.84-14.19c-6.99-2.93-14.45-4.01-22.02-4.21  c-3.75-0.1-7.52,0.13-11.24-0.71c-6.11-2.37-10.23-6.18-9.6-13.39c13.82-8.18,28.27-15.03,44.53-16.1  c11.21-0.74,22.47-0.29,33.74,1.14c22.39,2.84,44.37-0.9,65.89-6.67c33.05-8.86,66.18-8.31,99.58-2.9  c19.19,3.11,38.29,7.38,57.97,5.57c4.45-0.41,7.87,1.78,11.09,4.47c8.5,7.1,18.43,10.27,29.35,10.42  c27.08,0.37,53.97-0.84,79.86-10.05c3.55-1.27,7.26-1.94,11.06-1.98c14.08-0.15,21.32,10.55,15.86,23.44  c-7.6,17.94-3.36,27.51,15.44,33.62c10.12,3.29,20.66,4.54,31.34,4.3c16.29-0.38,31.81,2.45,46.79,9.31  c11.75,5.38,23.75,10.26,36.83,12.23c11.88,1.79,23.19,0.43,34.25-3.5c15.51-5.5,20.25-18.05,12.71-32.7  c-1.25-2.42-2.89-4.65-3.57-7.36c-0.86-7.42-2.1-14.87,1.32-22.04c2.2-2.08,4.5-2.02,6.89-0.34  c13.49,10.29,21.87,23.74,20.35,40.84c-1.53,17.23-14.24,26.91-28.96,32.82c-33.28,13.36-65.78,10.62-97.39-6.41  c-12.08-6.51-26-3.57-39.01-5.5c-17.42-2.59-35.33-2.81-51.45-11.18c-7.55-3.92-13.17-8.76-13.06-18.81  c0.1-9.17-15.71-19.4-26.6-17.03c-21.34,4.64-41.95-1.07-62.77-3.25c-25.3-2.65-50.56-5.79-75.72-9.48  c-23.84-3.49-47.74-1.56-71.6-1.79c-22.13-0.21-43.98,3.49-65.85,6.63c-10.07,1.45-20.2,2.42-30.32,3.48  c-4.55,0.48-8.59,1.02-5.98,7.31c9.35,22.5-6.02,37.56-22.45,44.26c-30.71,12.53-62.2,13.64-94.09,4.87  c-3.51-0.97-7.26-1.97-9.21,1.63c-7.15,13.2-20.25,14.94-32.58,15.48c-25.5,1.12-51.81,3.64-75.83-6.76  c-18.17-7.87-36.42-6.69-55.01-7.35c-16.29-0.58-31.82-4.41-43.9-16.34c-12.46-12.29-8.98-31.08,7.18-37.76  C67.56,737.18,78.97,733.35,91.27,734.32z"></path>	<path class="st53" d="M661.42,759.05c9.05-1.64,19.43,1.12,29.85,2.32c7.17,0.83,13.84,4.17,15.8,12.44  c1.76,7.41,5.84,12.1,13.88,12.68c2,0.14,4.05,0.69,5.92,1.44c5.26,2.1,10.41,5.59,10.6,11.21c0.22,6.5-5.16,9.37-11.28,11.28  c-11.23,3.51-22.18,0.39-33.3,0.07c-21.83-0.62-43.7,0.34-65.52-0.38c-13.84-0.46-27.67-2.42-41.4-4.46  c-4.9-0.73-9.75-3.19-14.13-5.71c-10.72-6.17-11.14-18.51-1.39-25.87c9.37-7.07,20.73-8.84,31.6-10.46c9.62-1.43,19.5-2.38,29.34-3  C640.84,760,650.3,758.94,661.42,759.05z"></path>	<path class="st54" d="M537.03,775.38c-10.19,0.32-19.32-0.35-27.07-6.28c-5.52-4.23-5.69-8.44-0.13-13.27  c8.74-7.58,19.4-5.17,29.2-5.58c5.67-0.23,12.49-0.93,17.69,3.43c3.09,2.6,6.98,4.87,6.63,9.68c-0.36,5.02-4.05,7.78-8.12,9.69  C549.21,775.91,542.64,775.66,537.03,775.38z"></path>	<path class="st55" d="M930.83,726.08c-2.09,0.18-4.19,0.35-6.28,0.53c-5.16,3.89-10.37,7.48-16.92,2.7  c0.25-11.23-2.03-22.61,2.06-33.61c5.51-2.81,10.61-1.39,15.56,1.52C928.36,706.6,930.95,716.08,930.83,726.08z"></path>	<path class="st56" d="M925.25,697.22c-5.01,0.14-10.14,1.18-14.73-1.91c-0.75-0.67-1.64-1.39-1.75-2.38  c-1.28-11.78,0.1-23.87-4.5-35.27c-0.71-1.77,0.53-3.91,2.07-5.4c2.1-0.04,4.2-0.08,6.3-0.12c6.41,12.29,7.77,26.17,12.23,39.07  C924.99,693.21,925.12,695.21,925.25,697.22z"></path>	<path class="st57" d="M924.79,748.66c15.57,17.24,9.34,39.15-17.29,45.25c-24.24,5.55-45.86-1.83-66.91-11.65  c-15.02-7.01-30.44-9.05-46.59-8.94c-13.36,0.1-26.43-1.46-38.61-7.68c-15.43-7.88-18.41-17.72-9.59-32.58  c2.77-4.66,3.86-9.77,1.31-14.63c-2.78-5.32-7.68-7.22-13.79-6.7c-13.34,1.13-25.06,8.58-38.5,9.39  c-23.96,1.45-47.94,7.28-71.77-0.86c-2.25-0.77-5.44-1.07-6.5-2.69c-7.24-11.08-18.28-6.95-28.25-7.98  c-16.85-1.73-33.64-4.17-50.39-6.69c-28.79-4.33-57.39-5.23-85.96,1.91c-22.11,5.53-44.35,10.4-67.44,9.08  c-9.5-0.54-18.84-2.21-28.43-2.37c-14.03-0.24-27,2.2-39.45,8.61c-5.03,2.59-10.59,4.13-15.91,6.15  c-6.71-0.22-7.75-5.99-10.21-10.39c-1.46-6.49-3.93-12.83-3.17-19.68c0.77-2.01,2.45-3.15,4.08-4.35  c14.98-10.24,28.68-22.09,42.38-33.94c2.54-2.2,4.49-5.26,8.27-5.65c5.48-1.11,9.06-5.47,13.71-8.01  c9.66,11.96,21.13,18.33,36.75,11.88c3.64-0.59,6.67-0.2,7.1,4.39c-6.67,4.63-15.36,1.5-22.13,5.75c-3.2,1.97-6.38,3.96-8.9,6.79  c-2.42,7.99-3.95,15.8,3.81,22c4.4,2.41,9.1,3.63,14.12,3.66c4.91-0.01,9.8-0.13,14.7-0.16c14.92-1.84,28.82-7.5,43.21-11.33  c18.35-4.88,36.79-9.35,56-9.03c31.88,0.98,62.84,8.77,94.29,12.82c5.6,1.47,11.24,2.1,16.96,0.69c7.3-0.54,13.74-2.68,17.64-9.52  c3.46-4.95,5.18-10.39,4.54-16.45c-0.81-2.44-2.5-4.21-4.45-5.78c-1.72-1.7-4.81-2.21-4.78-5.44c4.92-1.56,9.84-3.12,14.76-4.68  c-0.88,8.65,1.55,12.87,11.1,8.93c2.28-0.94,5.25-0.19,7.91-0.21c1.55,7.25-3.08,15.08,2.03,22.01c2.32,5.53-1.9,7.21-5.49,9.14  c-3.6,1.95-7.65,3.39-7.76,8.46c3.3,4.72,7.25,1.83,10.99,0.96c3.89-0.91,7.29-3.98,11.7-2.61c3.54,2.87-2.34,6.74,1.06,9.61  c14.14,0.85,25.47-5.14,35.45-14.37c0.49-2.4,0.76-4.85,2.13-6.97c4.27-2.82,3.94-9.34,9.15-11.41c5.38-0.56,10.55,0.95,15.8,1.59  c9.05,1.48,18.16,2.98,27.32,2.08c9.69-0.95,18.68-3.9,25.13-11.98c1.26-1.57,2.85-2.98,5.17-2.81c1.63,3.56,4.55,4.68,8.23,4.38  c2.46,6.23-0.25,11.5-3.1,16.75c-2.85,2.33-6.32,2.04-9.67,2.31c-15.15,1.21-21.24,11.54-14.92,25.44  c3.18,6.99,8.88,11.82,14.59,16.67c3.45,2.93,8.41,5.03,7.43,11.02c-3.47,2.93-7.78,1.93-11.76,2.51  c-3.91,0.57-7.64,1.72-8.33,6.19c-0.67,4.38,2.32,7.95,5.85,8.58c14.82,2.65,29.64,8.43,44.87,1.87c3.54-1.03,6.7,0.32,9.59,1.97  c8.86,5.07,18.56,7.62,28.39,9.81c1.26,0.51,2.55,1.99,3.58,1.79c11.1-2.12,18.86,3.1,25.62,11.01c1.9,2.23,4.64,3.19,7.34,1.39  c2.35-1.57,5.94-2.67,3.84-6.94c-1.74-3.54,3.06-6.42,1.26-10.08C912.36,762.53,916.99,753.78,924.79,748.66z"></path>	<path class="st58" d="M526.59,541.59c-4.13-4.91-5.71-11.01-5.97-16.99c-1.25-28.47-4.03-56.97-0.11-85.44  c1.27-9.2,4.5-16.25,15.18-19c19.37-4.99,38.36-11.49,58.62-12.02c0,7.15,0.03,14.29,0.01,21.44c-0.05,13.83-0.06,13.83-14.5,15.63  c-0.61,0.32-1.29,0.45-1.9,0.73c-12.01,5.53-12.01,5.53-17.89-9.59c-1.49,11.54-5.36,18.94-15.32,20.9c-1.26,0.25-2,1.99-1.37,3.4  c0.62,1.39,2.15,1.68,3.5,1.44c11.3-2.07,11.11,5.59,11.33,13.12c0.3,10.44-0.8,20.95,1.06,33.12c4.04-4.21,3.4-7.94,3.47-11.35  c0.22-10.22-0.51-20.48,0.36-30.67c0.75-8.77,3.92-10.24,13.1-6.95c-0.75,2.14-4.2,3.26-2.95,5.97c1.42,3.06,4.63,2.15,7.27,2.12  c3.3-0.04,6.29-2.88,10.29-0.88c-2.29,4.43-7.28,2.39-10.39,4.47c-2.35,1.57-6.77,1.41-5.53,5.67c1.02,3.52,4.17,2.26,6.88,1.53  c2.18-0.59,4.55-1.04,7.03,0.42c-2.14,1.26-4.21,2.29-6.06,3.63c-1.66,1.2-3.22,2.78-1.86,5.08c1.01,1.72,2.68,1.47,4.47,1.19  c3.85-0.6,8.4-2.46,9.42,3.91c-0.13,8.43,2.31,18.17-1.12,24.92c-3.57,7.01-15.05,5.11-22.41,8.91c-1.78,0.92-3.68,1.61-5.52,2.4  C553.43,535.36,541.49,542.96,526.59,541.59z"></path>	<path class="st59" d="M399.5,659.72c-2.33-1.19-4.66-2.38-6.99-3.57c8.35-4.47,16.42-9.14,24.04-15.04  c10.68-8.26,23.12-5.5,35.23-1.97c9.68,2.83,18.75,8.67,29.54,6.64c0.48-0.8,1.19-1.17,2.13-1.11  c25.54-6.44,41.83,6.67,55.15,26.07c-9.76,6.02-21.1,6.25-31.85,8.57c-2.27,0.49-4.69,0.29-6.81,1.51  c-24.56,0.54-47.95,6.85-71.17,14.17c-8.99,2.83-18.03,5.74-27.58,6.19c-4.97-10.96-2.73-23.08-5.51-34.44  c-0.84-3.42,1.98-5.33,5.7-5.24c3.7,0.09,7.4,0.03,11.09-0.01c6.78-1.56,13.57-3.15,20.52-1.56c-6.78-1.23-13.47-0.4-20.12,1.42  C408.44,660.58,403.56,663.43,399.5,659.72z"></path>	<path class="st60" d="M483.45,644.67c-0.71,0.37-1.42,0.74-2.13,1.11c-1.82-2.81-0.23-5.18,0.94-7.63  c7.3-15.25,5.04-22.39-9.83-31.41c-2.17-1.32-5.21-1.69-6.56-6.43c7.38,2.56,13.83,4.37,19.92,7c12.9,5.57,24.48,5.57,36.23-3.79  c9.25-7.37,17.35-16.31,28.23-21.69c6.75-3.34,13.53-6.19,21.51-6.62c-27.02,15.77-44.47,42.83-71.14,59.13  C494.94,637.83,487.76,638.95,483.45,644.67z"></path>	<path class="st26" d="M526.59,541.59c13.03-4.3,26.06-8.6,39.09-12.9c-0.07,3.03,0.14,6.12-2.03,8.66  c-11.48,4.13-22.95,8.25-34.43,12.38c-2.62,0.94-5.41,2.2-5.35,5.28c0.05,2.85,3.65,2.44,5.66,3.69  c-13.46,11.12-28.69,11.68-43.96,2.09c-8.6-5.4-17.31-10.64-26.01-15.89c-7.84-4.73-16.34-7.69-25.35-9.25  c3.56-1.06,7.13-2.12,10.7-3.19c10.85,0.55,19.64,7.87,30.26,9.17c5.19-0.19,9.52,1.95,13.53,4.96c9.49,7.48,18.66,5.41,27.68-0.93  C520.31,545.59,523.85,544.59,526.59,541.59z"></path>	<path class="st61" d="M499.95,680.83c12-6.76,25.46-7.94,38.66-10.08c3.94,4.16,7.64,8.59,13.24,10.76  c6.37,2.47,11.77,2.91,17.29-2.92c8.83-9.32,20.54-13.74,33.02-16.11c1.68,11.15-0.99,21.47-6.04,31.32  c-20.87,0.37-40.3-8.04-60.88-9.88C523.48,682.86,511.46,684.56,499.95,680.83z"></path>	<path class="st62" d="M609.12,497.94c3.33,1.55,6.86,2.78,9.96,4.71c5.23,3.25,6.34,0.43,6.72-4.01  c2.97,13.51,1.51,26.92-1.02,40.27c-0.59,3.09-2.66,5.54-6.03,6.25c-1.91,0.4-3.3-0.59-4.05-2.3  C608.38,528.44,606.32,513.49,609.12,497.94z"></path>	<path class="st4" d="M596.12,693.8c1.13-10.61,2.69-21.14,6.04-31.33c7.49-2.64,14.97-5.29,22.46-7.94  c1.42,2.57,5.9,0.39,6.53,4.19c-8.8,2.23-11.71,8.62-12.7,16.94c-0.74,6.25-0.99,12.82-5.29,18.11  C607.48,696.39,601.8,696.36,596.12,693.8z"></path>	<path class="st20" d="M499.12,259.1c1.05,16.03,22.48,31.28,41.17,33.36c9.41,1.05,9.15,4.93,8.09,11.83  c-1.45,9.41-2.48,18.84-6.36,27.71c-2.12,4.85-5.18,8.74-9.44,11.78c-3.92,2.79-6.83,4.28-8.4-2.59  c-2.23-9.78-9.62-13.32-19.13-13.31c-9.72,0.01-18.67,1.33-21.51,12.79c-1.31,5.3-3.71,4.69-7.09,1.77  c-11.05-9.56-13.19-22.32-13.86-36c-0.44-9.12,0.88-15.31,10.77-19.48C485.38,281.89,495.03,273.01,499.12,259.1z"></path>	<path class="st63" d="M520.08,369.47c0.49-2.6,0.05-5.63,3.27-6.95c18.48-7.56,23.19-24.46,28.06-41.27  c2.39-1.58,4.83-2.9,7.81-1.6c4.47,5.75,1.85,12.4,2.14,18.61c0.46,9.83,0.08,19.69,0.13,29.54c0.02,3.83,0.07,7.6-4.21,9.48  c-9.83,2.87-19.62-3.64-29.46-0.12C522.77,377.07,517.61,377.09,520.08,369.47z"></path>	<path class="st64" d="M528.64,375.33c9.98-5.66,19.14,0.53,28.63,1.96c1.62,1.75,3.24,3.51,4.85,5.26  c-1.6,5.26,1.3,10.14,1.23,15.27c-13.44,2.91-26.78,6.11-38.36,14.1c0.64-9.52,4-18.71,3.33-28.38  C526.03,380.71,526.56,377.99,528.64,375.33z"></path>	<path class="st65" d="M528.64,375.33c-0.1,2.74-0.2,5.47-0.31,8.21c-5.91,7.13-16.28,9.87-19.67,21.7  c-5.33-13.78-23.09-14.4-25-29.54c2.76-3.89,6.52-3,10.27-2.13c1.31-4.65,2.76-9.28,9.18-6.56c5.49,2.32,12.32-5.09,16.99,2.46  C519.59,376.31,524.73,374.91,528.64,375.33z"></path>	<path class="st66" d="M493.92,373.56c-2.89,3.3-7.04,0.51-10.27,2.13c-6.18,0.56-12.37,1.12-18.56,1.68  c-5.53-1.05-4.01-5.45-4.18-8.95c-0.63-13.49,1.42-27.08-2.21-42.36c7.26,6.92,7.32,15.58,12.26,21.75  c4.39,5.48,9.02,10.29,15.21,13.06C492.09,363.51,494.41,367.45,493.92,373.56z"></path>	<path class="st67" d="M502.52,350.1c-4.19-1.49-11.97,4.12-12.59-6.19c-0.26-4.4,0.2-6.92,5.44-8.83  c6.64-2.41,12.21-0.56,18.27,0.68c4.95,1.02,5.41,5.32,5.32,8.54c-0.11,4.07-3.37,6.23-7.86,5.84  C508.4,349.9,505.68,350.1,502.52,350.1z"></path>	<path class="st68" d="M559.22,319.65c-2.57,0.72-4.84,2.85-7.81,1.6c1.43-8.37,2.87-16.73,4.31-25.14  C567.36,300.3,568.38,307.62,559.22,319.65z"></path>	<path class="st69" d="M487.18,547.84c-3.56-2.91-8.88-2.46-12-6.22c8.39-8.34,7.27-19.8,7.79-29.74  c1.41-26.72,1.24-53.56-3.46-80.13c-0.73-4.14-2.09-7.49-5.85-8.75c-21.52-7.25-43.25-13.75-66.16-14.81  c-0.18-0.58-0.2-1.17-0.06-1.77c11.13-2.67,21.55,1.39,32.06,3.68c15.59,3.41,30.76,8.31,45.59,14.26  c4.14,1.66,7.23,3.45,4.64,8.55c2.06,7,1.01,14.18,1.04,21.27c0.11,26.47,0.13,52.94-0.02,79.41  C490.73,538.54,491.65,543.92,487.18,547.84z"></path>	<path class="st70" d="M274.07,504.59c-3.77-0.34-5.68-3.09-5.5-6.17c0.2-3.33,3.79-1.68,5.86-2.31c4.87-1.49,9.75-2.95,14.8-4.48  c2.42,2.54,0.9,5.61,0.92,8.48C285.48,504.13,279.38,502.93,274.07,504.59z"></path>	<path class="st71" d="M239.74,488.63c3.6,1.97,8.84,3.22,10.97,6.49c1.93,2.96-3.29,3.75-5.51,3.83c-3.94,0.15-8.63,0.06-9.73-5.21  C234.92,491.11,236.45,489.2,239.74,488.63z"></path>	<path class="st72" d="M220.14,486.24c4.3-1.44,8.61-2.87,12.91-4.31c2.16,5.49,0.79,10.58-4.54,12.33  C222.56,496.2,222.58,489.39,220.14,486.24z"></path>	<path class="st73" d="M274.07,504.59c3.78-7.17,10.73-2.94,16.08-4.47C286.21,506.74,281.75,511.45,274.07,504.59z"></path>	<path class="st74" d="M300.1,468.14c-0.14,2.25-1.15,3.86-3.61,3.74c-2.84-0.14-3.93-2.1-4.08-4.71c-0.12-2.15,0.27-4.37,2.81-4.4  C298.47,462.73,299.52,465.35,300.1,468.14z"></path>	<path class="st75" d="M238.93,469.1c-0.08-0.53,0.06-0.99,0.44-1.38c5.47-4.06,10.87-8.35,18.56-5.12  C250.25,461.11,246.02,469.01,238.93,469.1z"></path>	<path class="st76" d="M282.58,476.7c-9.93-5.5-3.96-10.68-1.09-15.82C280.68,465.99,280.37,471.11,282.58,476.7z"></path>	<path class="st77" d="M258.17,479.33c-0.35,1.92-0.42,4.55-3.29,3.89c-2.45-0.57-3.79-2.7-3.74-5.43c0.05-2.2,0.44-4.35,3.24-3.89  C257.17,474.36,257.86,476.79,258.17,479.33z"></path>	<path class="st78" d="M729.5,570.04c3.65-6.98,1.94-14.61,2.7-21.94c3.19,1.64,6.57,1.72,10.01,1.22c0.08,6.9-1.2,13.82,0.4,20.69  c0.53,7.64,0.99,15.29,1.61,22.93c0.51,6.28-2.52,8.54-8.42,7.81c-3.3-2.06-7.36-3.39-7.74-8.19  C730.75,585.2,729.65,577.59,729.5,570.04z"></path>	<path class="st79" d="M768.75,502.42c-4.53,0.2-9.04-1.25-9.24-5.94c-0.2-4.83,4.26-6.33,8.81-6.36c4.8-0.04,9.86,1,9.74,6.45  C777.97,501.19,773.27,502.64,768.75,502.42z"></path>	<path class="st80" d="M713.05,485.58c0.56,5.86-2.38,8-5.28,7.78c-5.31-0.41-11.37-1.37-12.42-8.14c-0.58-3.7,2.62-5.73,5.99-5.1  C706.07,481,711.63,481.2,713.05,485.58z"></path>	<path class="st81" d="M744.31,510.81c-9.44,7.57-14.51,7.13-22.78-2C726.42,500.2,736.64,501.1,744.31,510.81z"></path>	<path class="st82" d="M744.31,510.81c-7.34-3.51-14.3-11.39-22.78-2c-2.91-1.73-4.97-4.44-3.67-7.57c1.77-4.26,5.4-0.69,7.92-0.51  c5.02,0.36,9.93,2.05,15.11,1.73C750.05,501.89,748.98,505.65,744.31,510.81z"></path>	<path class="st83" d="M719.41,475.53c-0.56,2.09-1.41,4.49-4.32,4.53c-2.43,0.04-3.58-1.79-3.57-4.08  c0.03-3.15,1.82-5.55,4.84-5.48C718.19,470.55,719.57,472.87,719.41,475.53z"></path>	<path class="st84" d="M759.12,476.82c2.39,0.16,3.4,1.54,3.56,3.82c0.17,2.52-0.26,4.83-2.99,5.58c-2.44,0.67-3.94-1.08-4.26-3.12  C755,480.29,756.15,477.94,759.12,476.82z"></path>	<path class="st8" d="M342.06,652.27c-14.67,15.96-31.57,29.23-49.57,41.18c-7.14,1.62-7.06-9.3-13.99-7.99  c-3.84,1.33-6.65,4.95-11.07,4.94c-8.33-3.87-14.24-11.31-22.51-15.27c-0.43-0.98-0.29-1.84,0.51-2.57  c4.53-2.2,8.97-4.62,13.61-6.55c9.48-3.93,13.45-9.65,7.01-19.26c4.61-2.93,9.21-5.86,13.82-8.79c4.7,8.02,10.2,15.36,16.65,22.14  c3.31,3.48,4.42,0.62,6.25-0.74c9.26-6.88,18.29-14.09,27.77-20.65c4.89-3.38,10.52-5.28,15.16,1.03  C346.99,644.64,344.48,648.44,342.06,652.27z"></path>	<path class="st26" d="M717.32,674.35c-4.28,2.6,1.65,12.36-7.9,11.26c-7.31,4.05-15.11,2.53-22.78,1.8  c-3.16-0.3-5.77-1.95-6.22-5.62c3.29-19.35,1.61-39.23,6.32-58.42c0.48-1.96,1.28-3.84,1.93-5.76c8.23,1.16,16.26,3.41,24.52,4.39  c11.34,7.26,23.44,3.41,35.3,2.25c4.01-0.39,8.54-2.57,10.59,2.64c6.72,17.03,19.65,16.99,34.21,12.99  c1.13,7.63-1.37,14.9-2.22,22.34c-7.96,14.41-21.71,17.57-36.37,17.83c-7,0.12-14.04-1.83-21.07-2.84  c0.58-1.23,2.04-1.22,2.89-2.07c-8.3-2.34-9.98-11.03-15.86-17.19C719.5,664.08,720.04,669.62,717.32,674.35z"></path>	<path class="st65" d="M713.18,622.02c-9.02,3.27-17.08,1.18-24.52-4.39c-3.13-8.41-0.14-15.71,4.13-22.77  c2.53,1.46,3.58,4.81,6.68,5.78c1.85-3.3-1.87-7.68,1.73-9.53c4.07-2.08,6.48,2.27,9.3,4.29c2.64,1.9,5.88,3.53,5.93,7.55  C717.75,609.72,719.08,616.49,713.18,622.02z"></path>	<path class="st26" d="M716.44,602.95c-4.72-3.72-9.43-7.44-14.06-11.09c-4.55,4.41,8.35,9.54-0.55,12.42  c-6.82,2.21-7.6-4.67-9.03-9.43c3.48-2.8,6.96-5.59,10.44-8.39c9.6-3.38,17.23,1.29,24.82,6.1c2.58,2.73,5.16,5.47,7.74,8.2  C729.37,601.73,722.62,599.78,716.44,602.95z"></path>	<path class="st85" d="M844.9,544.22c-2.53-1.04-3.96-2.86-3.37-5.51c0.46-2.08,2-3.64,4.32-3.46c3.41,0.27,3.16,2.93,2.9,5.29  C848.5,542.76,847.37,544.28,844.9,544.22z"></path>	<path class="st86" d="M157.29,578.37c-4.51,0.11-8.53-0.85-8.22-6.41c0.29-5.17,3.69-7.78,8.79-7.88c5.03-0.1,9.2,2.2,8.97,7.38  C166.6,576.57,162.26,578.5,157.29,578.37z"></path>	<path class="st87" d="M161.51,558.21c-0.05-2.34,1.11-4.13,3.25-4.27c3.24-0.21,4.6,2.04,4.68,5.06c0.06,2.1-0.46,4.51-2.8,4.48  C163.67,563.44,162.42,560.75,161.51,558.21z"></path>	<path class="st57" d="M308.52,736.56c8.82,0.12,17.54-0.47,26.4,1.59c15.09,3.5,23.6,10.6,23.31,21.35  c-0.28,10.51-12.09,20.13-25.89,22.17c-18.03,2.66-35.69-0.42-53.29-3.05c-11.27-1.68-22.44-0.58-33.64-1.08  c-2.59-0.11-4.47,1.38-6.25,3.05c-17.4,16.33-39.1,15.61-59.88,12.42c-29.18-4.48-57.87-11.63-87.82-9.64  c-7.43,0.49-15.41-0.52-22.57-3.88c0.3-0.37,0.6-0.74,0.9-1.11c25.5-11.71,25.5-11.71,35.07-10.06c-0.22-2.52-2.7-4.55-1.59-7.3  c1.87-2.1,4.26-2.23,6.8-1.78c3.96-8.21,7.91-16.41,11.87-24.62c2.55,1.85,2.61,4.64,2.86,7.38c0.11,1.6,0.06,3.2-0.04,4.8  c-0.24,4.11-1.52,8.04-2.12,12.09c0.2,2.01-3.26,5.27,2.23,5.43c3.98,0.11,8.03,0.22,11.92,1.45c19.57,10.38,37.83,7.24,55.72-4.61  c8.15-5.4,14.89-13.04,24.66-15.94c15.8,0.49,31.32,6.29,47.34,2.46c10.59,1.8,16.38,10.65,24.22,16.49  c2.04,2.4,3.03,5.54,5.33,7.75c9.02,1.07,18.01,2.35,27.05,2.82c3.59,0.19,7.54,0.78,10.41-2.44c0.57-4.96-5.36-4.2-6.59-7.52  c1.45-5.53,7.25-3.01,10.27-5.6c4.06-5.85-1.93-5.32-4.45-6.97c-7.76-3.24-16.68-4.15-22.53-11.2  C307.6,739.46,307.58,737.98,308.52,736.56z"></path>	<path class="st88" d="M122.32,742.42c-0.13-2.61-0.26-5.22-0.4-7.82c2.64-9.69,6.41-18.86,12.58-26.91  c0.43,0.16,0.87,0.32,1.31,0.46c3.97,2.08,7.22-0.24,10.42-1.94c10.14-5.4,21.09-9.01,31.23-14.4c3.28-1.74,6.75-3.26,10.6-1.44  c1.71,1.29,2.76,2.87,2.33,5.12c-19.38,14.74-35.99,33.51-59.94,41.64C127.2,738.24,126.5,742.96,122.32,742.42z"></path>	<path class="st88" d="M179.63,674.84c2.6,2.92,3.28,6.61,4.07,10.25c-14.84,10.95-31.47,17.97-49.22,22.59c0,0,0.02,0.02,0.02,0.02  c1.49-9.56,4.04-17.81,15.11-21.11C159.88,683.53,169.65,678.82,179.63,674.84z"></path>	<path class="st88" d="M173.06,656.51c2.2,3.79,3.93,7.75,4.43,12.15c-10.13,3.83-19.63,9.32-31.23,11.81  c1.31-8.93,3.43-16.27,13.64-18.58C164.46,660.86,168.68,658.35,173.06,656.51z"></path>	<path class="st89" d="M110.06,759.22c-1.63,2.35-4.17,1.67-6.43,1.91c-6.94,1.56-12.1-2.37-17.49-5.64  c-2.4-2.72-3.53-5.57-0.83-8.77c0.56-0.1,1.12-0.2,1.68-0.31C94.15,751.62,103.81,752.35,110.06,759.22z"></path>	<path class="st90" d="M165.42,643.92c1.35,2.08,2.7,4.16,4.06,6.23c-3.61,4.18-8.89,4.72-13.73,5.99c-3.48,0.91-4.56-1.8-5.28-4.7  c-0.84-3.37,1.63-2.84,3.46-3.42C157.81,646.78,161.6,645.3,165.42,643.92z"></path>	<path class="st91" d="M380.92,512.83c9.58-2.05,12.27-12.65,20.44-16.45c-0.29,13.18,1.01,26.44-2.12,39.47  c-0.71,2.97-1.09,6.56-4.61,7.16c-3.98,0.67-6.23-2.47-7.34-5.75C384.6,529.27,381.55,521.35,380.92,512.83z"></path>	<path class="st92" d="M680.42,681.8c9.01,6.31,19.36,2.33,29,3.81c0,2.47,0,4.93,0,7.4c-12.96,7.35-25.52,15.88-41.54,14.43  c-4.31-5.27,2.36-7.46,3.16-11.3c-0.67-0.57,1.11-2.11,0.03-1.61c-5.14,2.38-10.2,4.94-15.72,6.32c-3.95,0.99-7.91,1.25-11.48-1.36  c-1.33-7.26,4.32-9.41,9.1-11.68c3.48-1.65,7.09-2.6,7.44-7.24C667.08,680.98,673.75,681.39,680.42,681.8z"></path>	<path class="st93" d="M189.94,695.33c-0.84-1.33-1.68-2.66-2.53-3.99c-0.87-1.27-2.75-2.18-1.54-4.21  c9.1-14.15,22.31-18.6,38.42-16.46c2.71,0.36,5.5,0.07,7.15-2.76c4.75,1.28,8.28,6.21,13.98,4.63c-0.12,0.49-0.14,0.98-0.04,1.47  c-4.46,5.45-11.66,4.02-17.33,6.85c-10.64,5.31-20.03,12.6-30.61,17.91c-1.54,0.42-3.09,0.42-4.62-0.03  C191.27,698.11,190.28,696.99,189.94,695.33z"></path>	<path class="st94" d="M576.16,459.36c-8.76-1.44-11.24,2.54-10.73,10.91c0.69,11.24,0.15,22.55,0.37,33.82  c0.1,4.76-1.04,8.45-6.45,8.29c-5.53-0.17-3.67-4.82-3.72-7.81c-0.19-11.27-0.25-22.56-0.03-33.83c0.11-5.9-1.19-8.21-7.68-5.85  c-2.29,0.84-7.31,5.79-8.63-1.12c-1.01-5.26-1.69-11.2,7.29-10.87c5.77,0.22,9.91-2.59,8.73-9.47c-0.97-5.64,0.79-9.8,6.96-9.68  c6.39,0.13,3.18,5.55,3.25,8.47c0.13,5.04,1.24,7.18,6.47,4.77c2.45-1.13,4.94-2.45,7.84-1.78c-2.63,3.32-11.35,6.69,0.07,9.91  c1.09,1.38,1.32,2.71-0.19,3.97C578.51,459.18,577.34,459.27,576.16,459.36z"></path>	<path class="st95" d="M579.69,459.09c0.06-1.32,0.13-2.64,0.19-3.97c4.49-2.87,8.97-2.58,13.69,1.08  C588.95,457.16,584.32,458.12,579.69,459.09z"></path>	<path class="st58" d="M487.18,547.84c0.13-34.05,0.25-68.09,0.41-102.14c0.02-4.37-0.79-8.92,2.16-12.81  c6.88,4.59,14.15,3.73,21.51,1.58c4.48,2.29,2.93,6.52,2.95,10.02c0.13,24.24,0.09,48.48,0.08,72.73  c-0.01,9.53-0.34,19.08,2.12,28.42C510.64,555.96,496.19,557.05,487.18,547.84z"></path>	<path class="st96" d="M185.87,687.13c0.52,1.4,1.03,2.81,1.54,4.21c-16,4.65-30.63,12.44-45.43,19.82c-4.1,2.05-7.92,3.95-7.5-3.5  c16.41-7.53,32.81-15.06,49.22-22.59C184.43,685.77,185.15,686.45,185.87,687.13z"></path>	<path class="st97" d="M906.33,652.26c0,6.46-0.32,13.01,5.73,17.51c1.22,0.91,1.54,2.24,0.71,3.57  c-4.33,6.97-1.59,14.64-2.26,21.97c-0.86,11.73,1.64,23.64-1.75,35.25c4.1,12.96-0.16,22.04-12.42,26.53  c-6.55,1.2-12.84-0.15-19.08-2c-6.79-2.12-8.46-6.84-7.03-13.38c0.79-3.6,1.41-7.24,2.21-10.84c0.75-10.49,2.9-20.87,2.26-31.46  c-0.11-5.36-0.17-10.72-0.1-16.08c-1.37-7.71,2.71-15.15,1.07-22.87c-0.07-3.38-0.14-6.76-0.21-10.14  c-0.15-8.4,1.95-16.16,11.29-17.54c8.57-1.26,13.19,4.98,16.07,12.44C903.76,647.65,905.15,649.91,906.33,652.26z"></path>	<path class="st98" d="M795.64,683.39c-0.04-5.87,1.94-11.29,3.66-16.77c4.66-8.63,12.64-10.27,20.86-7.96  c11.27,3.18,22.27,7.64,27.1,19.96c2.3,3.96-0.89,6.62-2.25,9.73c-3.36,4.88-5.11,11.05-11.03,13.91  c-13.04-3.19-24.06-11.14-36.59-15.56C796.04,686.22,795.42,684.92,795.64,683.39z"></path>	<path class="st30" d="M843.43,687.35c1.28-2.9,2.55-5.81,3.83-8.72c0.66-1.28,1.33-2.56,1.99-3.83c11.2-3.27,19.89,2.08,28.34,8.27  c-0.02,5.44-0.05,10.88-0.07,16.32C864.18,700.97,853.08,696.21,843.43,687.35z"></path>	<path class="st55" d="M877.59,683.07c-9.66-2.03-18.29-7.59-28.34-8.27c-1.1-4.37,2.17-8.03,1.98-12.26  c5.86-0.31,11.25,1.84,16.71,3.38c5.13,1.45,7.9,0.21,7.74-5.49C879.81,667.68,876.59,675.55,877.59,683.07z"></path>	<path class="st99" d="M195.39,697.57c9.26-5.66,18.45-11.43,27.81-16.94c6.81-4,14.17-6.48,22.18-6.6c9.54,2.1,15.4,9.86,23,14.95  c9.73,7.27,18.84,15.08,23.8,26.61c2.46,3.87,4.79,7.85,8.53,10.7c2.06,3.83,4.25,7.57,7.81,10.27c0.47,1.35,0.94,2.7,1.41,4.05  c-0.08,3.39-1.18,6.09-4.78,7.12c-5.15-0.17-7.62-4.1-10.32-7.57c-11.18-14.31-23.71-27.39-36.89-39.84  c-12.42-11.72-20.93-12.89-36.15-5.13c-7.61,3.88-15,8.18-22.09,13c-2.98,2.02-5.81,5.06-10.12,3.75  C187.22,705.41,190.43,701.13,195.39,697.57z"></path>	<path class="st100" d="M895.93,754.74c13.72-3.04,10.66-15,12.84-24.18c5.26-1.32,10.52-2.64,15.78-3.95  c1.77,7.33,0.11,14.7,0.24,22.05c-3.88,9.37-10.62,15.68-20.26,18.87C896.71,766.59,893.99,762.23,895.93,754.74z"></path>	<path class="st101" d="M85.31,746.72c-0.33,2.75-0.12,5.35,2.12,7.37c-1.65,4.91-6.24,4.58-10.02,5.43  c-5.91,1.33-10.64,2.64-6.87,10.7c0.87,1.86,2.72,6.67-1.43,9.06c0,0-0.24,0.19-0.24,0.19c-7.94,0.21-11.24-4.9-13.08-11.55  c-1.69-6.15,1.72-10.19,6.06-13.68C68.69,748.73,76.51,746.16,85.31,746.72z"></path>	<path class="st102" d="M795.64,683.39c13.16,5.63,26.44,10.99,38.89,18.16c3.96-1.26,6.35,1.7,8.82,3.68  c10.93,8.8,20.42,19.28,31.85,27.52c-0.77,3.59-0.84,7.54-2.45,10.7c-3.03,5.97,0.7,7.6,4.88,9.37  c1.08,10.49-3.78,17.29-14.12,19.78c-14-1.59-26.28-8.11-38.91-13.61c-12-4.24-22.5-10.73-30.71-20.63  c-6.42-6-12.98-11.84-19.2-18.03c-4.91-4.88-8.23-10.61-8.25-17.96c-0.03-13.3,6.74-20.13,20.07-19.71  C789.56,682.76,792.6,683.14,795.64,683.39z"></path>	<path class="st103" d="M793.89,738.37c10.23,6.88,20.47,13.75,30.71,20.63c-0.53,4.02-4.13,5.18-6.8,4.96  c-12.82-1.04-25.72-2.04-38.31-4.49c-5.53-1.08-10.56-5.84-9.19-12.87c1.37-7.06,6.92-8.55,13.35-8.2  C787.04,738.59,790.47,738.39,793.89,738.37z"></path>	<path class="st104" d="M863.5,772.61c7.58-4.54,12.3-11.13,14.12-19.78c6.13,0.38,12.02,2.99,18.3,1.9  c0.68,5.73,3.58,9.97,8.6,12.79c1.7,2.07,3.41,4.14,5.13,6.23c-1.69,3.66-4.11-0.94-5.83,0.7c-1.86,3.17,7.76,4.2,1.85,7.41  c-4.52,2.46-7.98,12.34-15.64,3.29c-6.16-7.28-12.33-16.05-24.36-9.82C864.46,775.98,863.64,774.04,863.5,772.61z"></path>	<path class="st105" d="M399.5,659.72c4.72,0.21,9.45,0.42,14.17,0.63c0.47,0.44,0.61,0.86,0.42,1.27c-0.18,0.4-0.36,0.59-0.52,0.59  c-5.35,0.25-10.69,0.51-16.87,0.8c4.12,12.79,5.55,25.37,4.5,38.19c-5.15-0.01-10.31-0.02-15.46-0.03  c-2.64-7.09-1.65-14.74-3.52-22.01c-1.4-5.46-3.19-10.35-7.56-14.05C381.89,658.46,391.26,661.7,399.5,659.72z"></path>	<path class="st106" d="M374.66,665.1c3.79-1.47,6.79-0.56,7.71,3.54c2.39,10.69,6.6,21.24,3.36,32.52  c-5.66,0.41-10.72-1.28-15.4-4.34c-5.27-7.94-5.78-16.63-4.04-25.67C369.08,669.14,371.87,667.12,374.66,665.1z"></path>	<path class="st107" d="M613.16,693.77c1.22-7.91,2.91-15.77,3.54-23.73c0.74-9.49,4.24-14.42,14.45-11.32  c1.75,1.94,4.69,3.01,4.59,6.29c0.08,6.53-3.15,12.24-4.55,18.4C627.68,691.21,621.3,694.02,613.16,693.77z"></path>	<path class="st108" d="M292.18,715.58c-7.93-8.87-15.87-17.74-23.8-26.61c3.17-2.07,6.34-4.13,9.5-6.2  c5.3,2.9,8.25,7.76,10.8,12.95C289.85,702.34,291.02,708.96,292.18,715.58z"></path>	<path class="st18" d="M717.32,674.35c0.07-5.66,0.1-11.33,0.22-16.99c0.03-1.64-0.13-3.68,2.01-4.1c1.92-0.37,2.99,1.22,3.81,2.71  c4.07,7.4,7.98,14.91,16.4,20.32c-2.89,0.44-4.51,0.69-6.12,0.93C728,677.38,722.57,676.4,717.32,674.35z"></path>	<path class="st109" d="M667.89,707.44c14.78-2.14,27.96-8.85,41.54-14.43c0.13,1.83-0.32,3.52-2.07,4.28  c-9.34,4.06-18.62,8.33-28.16,11.85C675.62,710.46,671.14,711.35,667.89,707.44z"></path>	<path class="st110" d="M643.86,699.5c13.11,1.8,23.91-5.61,37.36-11.13c-3.11,6.14-7.79,5.28-10.2,7.8  c-4.96,2.13-9.83,4.57-14.95,6.32C651.61,704.02,646.69,705.52,643.86,699.5z"></path>	<path class="st111" d="M288.68,695.72c-5.14-3.03-8.24-7.76-10.8-12.95c3.72-3.12,5.55,0.15,7.23,2.45  c2.2,3.01,4.21,6.11,7.38,8.22C291.22,694.2,289.95,694.96,288.68,695.72z"></path>	<path class="st112" d="M366.29,671.16c-0.02,8.77,1.87,17.25,4.04,25.68C362.11,689.36,361.91,680.62,366.29,671.16z"></path>	<path class="st113" d="M631.19,683.41c-1.82-6.96,2.62-12.37,4.55-18.4C638.12,672.11,635.31,677.92,631.19,683.41z"></path>	<path class="st114" d="M413.57,662.21c0.03-0.62,0.06-1.24,0.1-1.86c6.75-3.76,13.8-1.62,20.82-0.73  C427.52,660.48,420.54,661.34,413.57,662.21z"></path>	<path class="st115" d="M522.68,302.39c0.72-2.22,1.33-5.03,4.31-4.66c2.56,0.32,3.77,2.6,3.7,5.26c-0.07,2.66-1.03,4.89-4.09,4.59  C523.8,307.3,522.96,304.96,522.68,302.39z"></path>	<path class="st116" d="M476.52,297.34c3.26,1.21,4.4,3.32,4.29,5.76c-0.12,2.47-1.38,4.74-4.33,4.54  c-3.17-0.21-3.32-2.75-3.33-5.24C473.14,299.61,474.88,298.39,476.52,297.34z"></path>	<path class="st117" d="M189.96,711.73c11.57-7.65,23.12-15.21,35.76-21.16c13.23-6.22,23.69-2.15,33.13,7.08  c13.82,13.51,27.78,26.91,39.08,42.75c1.73,2.43,4.38,4.21,6.6,6.29c5.66,4.28,4.08,8.63-0.04,12.81c-2.87,2.91-6.2,5.24-9.94,6.97  c-2.17,0.72-4.27,0.59-6.28-0.55c-8.83-3.99-14.16-12.5-22.34-17.33c-9.18-1.96-14.05-10.09-21.15-15.03  c-4.49-3.12-7.46-3.27-11.33,0.55c-5.01,4.96-10.33,9.66-16.97,12.49c-12.43,9.23-24,19.77-38.96,25.12  c-14.2,5.07-27.77,4.45-40.64-3.9c0.65-1.81,2.19-2.58,3.83-3c21.95-5.62,34.13-21.01,41.49-41.3c1.15-3.18,2.08-6.49,4.02-9.35  C187.16,712.87,188.36,711.99,189.96,711.73z"></path>	<path class="st88" d="M189.96,711.73c-0.69,0.68-1.38,1.35-2.07,2.03c-9.03,19.59-22.53,34.87-43.13,42.47  c-7.67,2.83-15.69,7.06-24.38,2.68c0.59-4.08,1.18-8.17,1.77-12.25c24.95-8.66,42.58-27.29,61.07-44.77  c2.46-2.33,5.04-4.68,8.82-4.59c1.12,0.09,2.24,0.18,3.35,0.27C193.2,702.14,190.04,706.34,189.96,711.73z"></path>	<path class="st118" d="M294.06,764.59c2.39-1.82,4.77-3.66,7.18-5.45c4.41-3.28,6.67-7.11,3.3-12.44c1.8-2.03,3.6-4.05,5.4-6.08  c6.26,5.33,14.91,5.66,21.52,10.27c0.06,4.36,0.93,8.2,6.01,9.31c-2.04,5.9-9.02,0.3-11.59,4.97c-2.06,8.88,5.99,5.63,9.46,7.88  c-0.43,1.96-2.06,2.84-3.66,3.13c-13.41,2.41-26.52,0.8-39.39-3.32c0.99-0.95,2.18-1.34,3.52-1.16c0.96,0.12,1.89,0.4,3.81,3.47  C296.76,770.22,294.27,767.99,294.06,764.59z"></path>	<path class="st119" d="M120.38,758.9c28.78-1.83,49.33-16.32,63.42-40.95c0.91-1.59,0.44-5.08,4.09-4.2  c-7.31,27.15-20.51,48.75-51,54.06c-3.93-0.24-7.88-0.33-11.8-0.76C120,766.49,118.41,763.67,120.38,758.9z"></path>	<path class="st52" d="M216.49,746.6c6.19-5.77,12.48-11.44,18.53-17.35c2.68-2.63,4.81-2.98,7.76-0.39  c7.62,6.7,15.43,13.17,23.16,19.73c-5.92,3.62-11.86,4.07-18.92,2.77C236.92,749.51,226.45,749.71,216.49,746.6z"></path>	<path class="st120" d="M69.11,779.28c-2.11-3.35,1.2-9.19-4.9-10.72c3.7-2.3,0.5-8.58,6.56-10.11c5.54-1.4,11.65-0.92,16.66-4.36  c5.4,2.35,10.8,4.69,16.2,7.04c2.59,3.4,5.18,6.8,7.77,10.19C94.76,761.37,83.67,779.73,69.11,779.28z"></path>	<path class="st96" d="M192.04,697.29c-14.64,13.01-28.44,26.94-43.87,39.1c-7.82,6.16-16.64,8.64-26.02,10.27  c0.06-1.41,0.11-2.82,0.17-4.23c2.41-4.43,5.2-7.17,10.79-8.98c17.1-5.55,29.51-18.75,43.23-29.69c4.21-3.36,8.06-7.23,13.59-8.42  C190.64,695.98,191.34,696.64,192.04,697.29z"></path>	<path class="st121" d="M337.46,760.19c-3.23,0.36-7.35,2.24-9.39-0.66c-2.33-3.32,1.97-5.8,3.38-8.65  c4.02-0.54,7.37,0.89,9.33,4.31C342.6,758.36,338.8,758.65,337.46,760.19z"></path>	<path class="st122" d="M335.34,773.04c-1.29,0.26-2.6,0.47-3.87,0.79c-3.12,0.79-7.16,2.85-9.09-0.15  c-1.91-2.97,1.94-5.75,3.5-8.51C330.95,765.48,336.4,765.35,335.34,773.04z"></path>	<path class="st123" d="M294.06,764.59c3.03,1.73,5.28,4.05,5.89,7.73c-2.49,1.76-5.11,0.62-7.66,0.54  c-2.53-1.63-4.48-3.58-4.01-6.93C290.21,765.48,292.13,765.03,294.06,764.59z"></path>	<path class="st22" d="M875.19,732.76c-13.49-3.84-21.07-15.36-31.03-23.79c-3.09-2.62-6.41-4.95-9.63-7.42  c2.97-4.74,5.93-9.47,8.9-14.21c10.96,5.15,22.22,9.46,34.09,12.03C878.79,710.65,875.75,721.62,875.19,732.76z"></path></g></svg>